M48
; DRILL file {KiCad 9.0.5} date 2026-03-01T23:01:23+0530
; FORMAT={-:-/ absolute / metric / decimal}
; #@! TF.CreationDate,2026-03-01T23:01:23+05:30
; #@! TF.GenerationSoftware,Kicad,Pcbnew,9.0.5
; #@! TF.FileFunction,Plated,1,2,PTH
FMAT,2
METRIC
; #@! TA.AperFunction,Plated,PTH,ComponentDrill
T1C0.750
; #@! TA.AperFunction,Plated,PTH,ComponentDrill
T2C0.800
; #@! TA.AperFunction,Plated,PTH,ComponentDrill
T3C0.900
; #@! TA.AperFunction,Plated,PTH,ComponentDrill
T4C1.000
; #@! TA.AperFunction,Plated,PTH,ComponentDrill
T5C1.100
%
G90
G05
T1
X74.385Y-90.72
X74.385Y-91.99
X74.385Y-93.26
T2
X35.035Y-100.87
X36.245Y-78.25
X36.245Y-83.13
X39.745Y-70.63
X42.745Y-74.13
X42.745Y-79.13
X42.745Y-81.63
X42.745Y-86.63
X44.745Y-70.63
X45.195Y-100.87
X46.035Y-51.37
X47.125Y-58.05
X47.125Y-60.59
X47.125Y-63.13
X47.125Y-65.67
X47.125Y-68.21
X47.125Y-70.75
X47.125Y-73.29
X47.125Y-75.83
X47.125Y-78.37
X47.125Y-80.91
X47.125Y-83.45
X47.125Y-85.99
X47.125Y-88.53
X47.125Y-91.07
X53.115Y-30.87
X53.115Y-35.87
X54.745Y-58.05
X54.745Y-60.59
X54.745Y-63.13
X54.745Y-65.67
X54.745Y-68.21
X54.745Y-70.75
X54.745Y-73.29
X54.745Y-75.83
X54.745Y-78.37
X54.745Y-80.91
X54.745Y-83.45
X54.745Y-85.99
X54.745Y-88.53
X54.745Y-91.07
X56.195Y-51.37
X56.2Y-100.86
X58.075Y-35.87
X59.245Y-75.63
X59.245Y-91.63
X63.155Y-35.87
X64.245Y-75.63
X66.36Y-100.86
X69.115Y-30.87
X69.115Y-35.87
X69.405Y-91.63
T3
X28.695Y-100.87
X31.235Y-100.87
X69.51Y-100.86
X72.05Y-100.86
T4
X27.745Y-52.05
X27.745Y-54.59
X27.745Y-57.13
X27.745Y-59.67
X27.745Y-62.21
X27.745Y-64.75
X27.745Y-67.29
X27.745Y-69.83
X60.065Y-82.36
X60.065Y-84.9
X60.065Y-87.44
X62.605Y-82.36
X62.605Y-84.9
X62.605Y-87.44
X62.745Y-57.55
X62.745Y-60.09
X62.745Y-62.63
X62.745Y-65.17
X62.745Y-67.71
X62.745Y-70.25
X75.595Y-59.48
X75.595Y-62.02
X75.595Y-64.56
X75.595Y-67.1
X75.595Y-69.64
X75.595Y-72.18
X75.595Y-74.72
X75.595Y-77.26
X85.86Y-85.56
X85.86Y-93.16
X101.595Y-58.1
X101.595Y-60.64
X101.595Y-63.18
X101.595Y-65.72
X101.595Y-68.26
X101.595Y-70.8
X101.595Y-73.34
X101.595Y-75.88
T5
X41.75Y-31.12
X41.75Y-35.62
X48.25Y-31.12
X48.25Y-35.62
X77.035Y-35.87
X79.575Y-35.87
X82.115Y-35.87
X95.115Y-32.87
X95.115Y-37.37
X101.615Y-32.87
X101.615Y-37.37
T4
G00X29.5Y-30.25
M15
G01X29.5Y-32.25
M16
G05
G00X31.5Y-35.95
M15
G01X33.5Y-35.95
M16
G05
G00X35.5Y-30.25
M15
G01X35.5Y-32.25
M16
G05
M30
