%TF.GenerationSoftware,KiCad,Pcbnew,9.0.5*%
%TF.CreationDate,2026-03-01T23:00:25+05:30*%
%TF.ProjectId,AVR_Controller_E177_Sneha,4156525f-436f-46e7-9472-6f6c6c65725f,rev?*%
%TF.SameCoordinates,Original*%
%TF.FileFunction,Copper,L2,Bot*%
%TF.FilePolarity,Positive*%
%FSLAX46Y46*%
G04 Gerber Fmt 4.6, Leading zero omitted, Abs format (unit mm)*
G04 Created by KiCad (PCBNEW 9.0.5) date 2026-03-01 23:00:25*
%MOMM*%
%LPD*%
G01*
G04 APERTURE LIST*
G04 Aperture macros list*
%AMRoundRect*
0 Rectangle with rounded corners*
0 $1 Rounding radius*
0 $2 $3 $4 $5 $6 $7 $8 $9 X,Y pos of 4 corners*
0 Add a 4 corners polygon primitive as box body*
4,1,4,$2,$3,$4,$5,$6,$7,$8,$9,$2,$3,0*
0 Add four circle primitives for the rounded corners*
1,1,$1+$1,$2,$3*
1,1,$1+$1,$4,$5*
1,1,$1+$1,$6,$7*
1,1,$1+$1,$8,$9*
0 Add four rect primitives between the rounded corners*
20,1,$1+$1,$2,$3,$4,$5,0*
20,1,$1+$1,$4,$5,$6,$7,0*
20,1,$1+$1,$6,$7,$8,$9,0*
20,1,$1+$1,$8,$9,$2,$3,0*%
G04 Aperture macros list end*
%TA.AperFunction,ComponentPad*%
%ADD10C,1.600000*%
%TD*%
%TA.AperFunction,ComponentPad*%
%ADD11R,1.905000X2.000000*%
%TD*%
%TA.AperFunction,ComponentPad*%
%ADD12O,1.905000X2.000000*%
%TD*%
%TA.AperFunction,ComponentPad*%
%ADD13C,1.500000*%
%TD*%
%TA.AperFunction,ComponentPad*%
%ADD14R,1.800000X1.800000*%
%TD*%
%TA.AperFunction,ComponentPad*%
%ADD15C,1.800000*%
%TD*%
%TA.AperFunction,ComponentPad*%
%ADD16R,3.500000X3.500000*%
%TD*%
%TA.AperFunction,ComponentPad*%
%ADD17RoundRect,0.750000X-0.750000X-1.000000X0.750000X-1.000000X0.750000X1.000000X-0.750000X1.000000X0*%
%TD*%
%TA.AperFunction,ComponentPad*%
%ADD18RoundRect,0.875000X-0.875000X-0.875000X0.875000X-0.875000X0.875000X0.875000X-0.875000X0.875000X0*%
%TD*%
%TA.AperFunction,ComponentPad*%
%ADD19C,2.000000*%
%TD*%
%TA.AperFunction,ComponentPad*%
%ADD20R,2.000000X2.000000*%
%TD*%
%TA.AperFunction,ComponentPad*%
%ADD21R,1.700000X1.700000*%
%TD*%
%TA.AperFunction,ComponentPad*%
%ADD22C,1.700000*%
%TD*%
%TA.AperFunction,ComponentPad*%
%ADD23R,1.500000X1.050000*%
%TD*%
%TA.AperFunction,ComponentPad*%
%ADD24O,1.500000X1.050000*%
%TD*%
%TA.AperFunction,ComponentPad*%
%ADD25RoundRect,0.250000X-0.550000X-0.550000X0.550000X-0.550000X0.550000X0.550000X-0.550000X0.550000X0*%
%TD*%
%TA.AperFunction,Conductor*%
%ADD26C,0.250000*%
%TD*%
%TA.AperFunction,Conductor*%
%ADD27C,0.500000*%
%TD*%
%TA.AperFunction,Conductor*%
%ADD28C,0.200000*%
%TD*%
G04 APERTURE END LIST*
D10*
%TO.P,R2,1*%
%TO.N,GPIO_FLAG_1*%
X45195000Y-100870000D03*
%TO.P,R2,2*%
%TO.N,Net-(D1-A)*%
X35035000Y-100870000D03*
%TD*%
%TO.P,C4,1*%
%TO.N,Net-(U1-XTAL2{slash}PB7)*%
X42745000Y-81630000D03*
%TO.P,C4,2*%
%TO.N,GND*%
X42745000Y-86630000D03*
%TD*%
%TO.P,C3,1*%
%TO.N,Net-(U1-XTAL1{slash}PB6)*%
X42745000Y-79130000D03*
%TO.P,C3,2*%
%TO.N,GND*%
X42745000Y-74130000D03*
%TD*%
D11*
%TO.P,U3,1,IN*%
%TO.N,Net-(U3-IN)*%
X77035000Y-35870000D03*
D12*
%TO.P,U3,2,GND*%
%TO.N,GND*%
X79575000Y-35870000D03*
%TO.P,U3,3,OUT*%
%TO.N,+5V*%
X82115000Y-35870000D03*
%TD*%
D13*
%TO.P,Y1,1,1*%
%TO.N,Net-(U1-XTAL1{slash}PB6)*%
X36245000Y-78250000D03*
%TO.P,Y1,2,2*%
%TO.N,Net-(U1-XTAL2{slash}PB7)*%
X36245000Y-83130000D03*
%TD*%
D14*
%TO.P,D1,1,K*%
%TO.N,GND*%
X28695000Y-100870000D03*
D15*
%TO.P,D1,2,A*%
%TO.N,Net-(D1-A)*%
X31235000Y-100870000D03*
%TD*%
D10*
%TO.P,C7,1*%
%TO.N,Net-(C7-Pad1)*%
X53115000Y-35870000D03*
%TO.P,C7,2*%
%TO.N,GND*%
X53115000Y-30870000D03*
%TD*%
D16*
%TO.P,J5,1*%
%TO.N,Net-(J5-Pad1)*%
X35500000Y-31250000D03*
D17*
%TO.P,J5,2*%
%TO.N,GND*%
X29500000Y-31250000D03*
D18*
%TO.P,J5,3*%
%TO.N,N/C*%
X32500000Y-35950000D03*
%TD*%
D10*
%TO.P,R3,1*%
%TO.N,GPIO_FLAG_2*%
X56200000Y-100860000D03*
%TO.P,R3,2*%
%TO.N,Net-(D2-A)*%
X66360000Y-100860000D03*
%TD*%
%TO.P,R4,1*%
%TO.N,PWM1*%
X59245000Y-91630000D03*
%TO.P,R4,2*%
%TO.N,Net-(Q1-G)*%
X69405000Y-91630000D03*
%TD*%
D19*
%TO.P,SW1,1,1*%
%TO.N,RESET*%
X95115000Y-32870000D03*
X101615000Y-32870000D03*
%TO.P,SW1,2,2*%
%TO.N,GND*%
X95115000Y-37370000D03*
X101615000Y-37370000D03*
%TD*%
D20*
%TO.P,BZ1,1,+*%
%TO.N,+5V*%
X85860000Y-85560000D03*
D19*
%TO.P,BZ1,2,-*%
%TO.N,Net-(BZ1--)*%
X85860000Y-93160000D03*
%TD*%
D21*
%TO.P,J6,1,Pin_1*%
%TO.N,Net-(J6-Pin_1)*%
X75595000Y-77260000D03*
D22*
%TO.P,J6,2,Pin_2*%
%TO.N,Net-(J6-Pin_2)*%
X75595000Y-74720000D03*
%TO.P,J6,3,Pin_3*%
%TO.N,Net-(J6-Pin_3)*%
X75595000Y-72180000D03*
%TO.P,J6,4,Pin_4*%
%TO.N,Net-(J6-Pin_4)*%
X75595000Y-69640000D03*
%TO.P,J6,5,Pin_5*%
%TO.N,Net-(J6-Pin_5)*%
X75595000Y-67100000D03*
%TO.P,J6,6,Pin_6*%
%TO.N,Net-(J6-Pin_6)*%
X75595000Y-64560000D03*
%TO.P,J6,7,Pin_7*%
%TO.N,Net-(J6-Pin_7)*%
X75595000Y-62020000D03*
%TO.P,J6,8,Pin_8*%
%TO.N,Net-(J6-Pin_8)*%
X75595000Y-59480000D03*
%TD*%
D21*
%TO.P,J2,1,Pin_1*%
%TO.N,Net-(J2-Pin_1)*%
X101595000Y-58100000D03*
D22*
%TO.P,J2,2,Pin_2*%
%TO.N,Net-(J2-Pin_2)*%
X101595000Y-60640000D03*
%TO.P,J2,3,Pin_3*%
%TO.N,Net-(J2-Pin_3)*%
X101595000Y-63180000D03*
%TO.P,J2,4,Pin_4*%
%TO.N,Net-(J2-Pin_4)*%
X101595000Y-65720000D03*
%TO.P,J2,5,Pin_5*%
%TO.N,Net-(J2-Pin_5)*%
X101595000Y-68260000D03*
%TO.P,J2,6,Pin_6*%
%TO.N,Net-(J2-Pin_6)*%
X101595000Y-70800000D03*
%TO.P,J2,7,Pin_7*%
%TO.N,Net-(J2-Pin_7)*%
X101595000Y-73340000D03*
%TO.P,J2,8,Pin_8*%
%TO.N,Net-(J2-Pin_8)*%
X101595000Y-75880000D03*
%TD*%
D21*
%TO.P,J4,1,Pin_1*%
%TO.N,Net-(J4-Pin_1)*%
X62745000Y-70250000D03*
D22*
%TO.P,J4,2,Pin_2*%
%TO.N,Net-(J4-Pin_2)*%
X62745000Y-67710000D03*
%TO.P,J4,3,Pin_3*%
%TO.N,Net-(J4-Pin_3)*%
X62745000Y-65170000D03*
%TO.P,J4,4,Pin_4*%
%TO.N,Net-(J4-Pin_4)*%
X62745000Y-62630000D03*
%TO.P,J4,5,Pin_5*%
%TO.N,Net-(J4-Pin_5)*%
X62745000Y-60090000D03*
%TO.P,J4,6,Pin_6*%
%TO.N,Net-(J4-Pin_6)*%
X62745000Y-57550000D03*
%TD*%
D23*
%TO.P,Q1,1,S*%
%TO.N,GND*%
X74385000Y-90720000D03*
D24*
%TO.P,Q1,2,G*%
%TO.N,Net-(Q1-G)*%
X74385000Y-91990000D03*
%TO.P,Q1,3,D*%
%TO.N,Net-(BZ1--)*%
X74385000Y-93260000D03*
%TD*%
D25*
%TO.P,U1,1,~{RESET}/PC6*%
%TO.N,RESET*%
X47125000Y-58050000D03*
D10*
%TO.P,U1,2,PD0*%
%TO.N,Net-(J3-Pin_8)*%
X47125000Y-60590000D03*
%TO.P,U1,3,PD1*%
%TO.N,Net-(J3-Pin_7)*%
X47125000Y-63130000D03*
%TO.P,U1,4,PD2*%
%TO.N,Net-(J3-Pin_6)*%
X47125000Y-65670000D03*
%TO.P,U1,5,PD3*%
%TO.N,Net-(J3-Pin_5)*%
X47125000Y-68210000D03*
%TO.P,U1,6,PD4*%
%TO.N,Net-(J3-Pin_4)*%
X47125000Y-70750000D03*
%TO.P,U1,7,VCC*%
%TO.N,+5V*%
X47125000Y-73290000D03*
%TO.P,U1,8,GND*%
%TO.N,GND*%
X47125000Y-75830000D03*
%TO.P,U1,9,XTAL1/PB6*%
%TO.N,Net-(U1-XTAL1{slash}PB6)*%
X47125000Y-78370000D03*
%TO.P,U1,10,XTAL2/PB7*%
%TO.N,Net-(U1-XTAL2{slash}PB7)*%
X47125000Y-80910000D03*
%TO.P,U1,11,PD5*%
%TO.N,Net-(J3-Pin_3)*%
X47125000Y-83450000D03*
%TO.P,U1,12,PD6*%
%TO.N,Net-(J3-Pin_2)*%
X47125000Y-85990000D03*
%TO.P,U1,13,PD7*%
%TO.N,Net-(J3-Pin_1)*%
X47125000Y-88530000D03*
%TO.P,U1,14,PB0*%
%TO.N,GPIO_FLAG_1*%
X47125000Y-91070000D03*
%TO.P,U1,15,PB1*%
%TO.N,GPIO_FLAG_2*%
X54745000Y-91070000D03*
%TO.P,U1,16,PB2*%
%TO.N,PWM1*%
X54745000Y-88530000D03*
%TO.P,U1,17,PB3*%
%TO.N,Net-(J1-Pin_4)*%
X54745000Y-85990000D03*
%TO.P,U1,18,PB4*%
%TO.N,Net-(J1-Pin_1)*%
X54745000Y-83450000D03*
%TO.P,U1,19,PB5*%
%TO.N,Net-(J1-Pin_3)*%
X54745000Y-80910000D03*
%TO.P,U1,20,AVCC*%
%TO.N,+5V*%
X54745000Y-78370000D03*
%TO.P,U1,21,AREF*%
%TO.N,Net-(U1-AREF)*%
X54745000Y-75830000D03*
%TO.P,U1,22,GND*%
%TO.N,GND*%
X54745000Y-73290000D03*
%TO.P,U1,23,PC0*%
%TO.N,Net-(J4-Pin_1)*%
X54745000Y-70750000D03*
%TO.P,U1,24,PC1*%
%TO.N,Net-(J4-Pin_2)*%
X54745000Y-68210000D03*
%TO.P,U1,25,PC2*%
%TO.N,Net-(J4-Pin_3)*%
X54745000Y-65670000D03*
%TO.P,U1,26,PC3*%
%TO.N,Net-(J4-Pin_4)*%
X54745000Y-63130000D03*
%TO.P,U1,27,PC4*%
%TO.N,Net-(J4-Pin_5)*%
X54745000Y-60590000D03*
%TO.P,U1,28,PC5*%
%TO.N,Net-(J4-Pin_6)*%
X54745000Y-58050000D03*
%TD*%
%TO.P,C8,1*%
%TO.N,Net-(U3-IN)*%
X69115000Y-35870000D03*
%TO.P,C8,2*%
%TO.N,GND*%
X69115000Y-30870000D03*
%TD*%
%TO.P,C6,1*%
%TO.N,GND*%
X39745000Y-70630000D03*
%TO.P,C6,2*%
%TO.N,+5V*%
X44745000Y-70630000D03*
%TD*%
%TO.P,R1,1*%
%TO.N,RESET*%
X56195000Y-51370000D03*
%TO.P,R1,2*%
%TO.N,+5V*%
X46035000Y-51370000D03*
%TD*%
D14*
%TO.P,D2,1,K*%
%TO.N,GND*%
X72050000Y-100860000D03*
D15*
%TO.P,D2,2,A*%
%TO.N,Net-(D2-A)*%
X69510000Y-100860000D03*
%TD*%
D19*
%TO.P,SW2,1,1*%
%TO.N,Net-(J5-Pad1)*%
X41750000Y-31120000D03*
X48250000Y-31120000D03*
%TO.P,SW2,2,2*%
%TO.N,Net-(C7-Pad1)*%
X41750000Y-35620000D03*
X48250000Y-35620000D03*
%TD*%
D10*
%TO.P,C2,1*%
%TO.N,GND*%
X64245000Y-75630000D03*
%TO.P,C2,2*%
%TO.N,Net-(U1-AREF)*%
X59245000Y-75630000D03*
%TD*%
D21*
%TO.P,J1,1,Pin_1*%
%TO.N,Net-(J1-Pin_1)*%
X60065000Y-82360000D03*
D22*
%TO.P,J1,2,Pin_2*%
%TO.N,+5V*%
X62605000Y-82360000D03*
%TO.P,J1,3,Pin_3*%
%TO.N,Net-(J1-Pin_3)*%
X60065000Y-84900000D03*
%TO.P,J1,4,Pin_4*%
%TO.N,Net-(J1-Pin_4)*%
X62605000Y-84900000D03*
%TO.P,J1,5,Pin_5*%
%TO.N,RESET*%
X60065000Y-87440000D03*
%TO.P,J1,6,Pin_6*%
%TO.N,GND*%
X62605000Y-87440000D03*
%TD*%
D19*
%TO.P,FB1,1*%
%TO.N,Net-(U3-IN)*%
X63155000Y-35870000D03*
%TO.P,FB1,2*%
%TO.N,Net-(C7-Pad1)*%
X58075000Y-35870000D03*
%TD*%
D21*
%TO.P,J3,1,Pin_1*%
%TO.N,Net-(J3-Pin_1)*%
X27745000Y-69830000D03*
D22*
%TO.P,J3,2,Pin_2*%
%TO.N,Net-(J3-Pin_2)*%
X27745000Y-67290000D03*
%TO.P,J3,3,Pin_3*%
%TO.N,Net-(J3-Pin_3)*%
X27745000Y-64750000D03*
%TO.P,J3,4,Pin_4*%
%TO.N,Net-(J3-Pin_4)*%
X27745000Y-62210000D03*
%TO.P,J3,5,Pin_5*%
%TO.N,Net-(J3-Pin_5)*%
X27745000Y-59670000D03*
%TO.P,J3,6,Pin_6*%
%TO.N,Net-(J3-Pin_6)*%
X27745000Y-57130000D03*
%TO.P,J3,7,Pin_7*%
%TO.N,Net-(J3-Pin_7)*%
X27745000Y-54590000D03*
%TO.P,J3,8,Pin_8*%
%TO.N,Net-(J3-Pin_8)*%
X27745000Y-52050000D03*
%TD*%
D26*
%TO.N,RESET*%
X47745000Y-55130000D02*
X48245000Y-55130000D01*
D27*
X90615000Y-37370000D02*
X90615000Y-47870000D01*
D26*
X56745000Y-55630000D02*
X57385000Y-54990000D01*
X56195000Y-51370000D02*
X59815000Y-54990000D01*
X56745000Y-86701000D02*
X56745000Y-55630000D01*
X56745000Y-55630000D02*
X56245000Y-55130000D01*
X56245000Y-55130000D02*
X48245000Y-55130000D01*
X59815000Y-54990000D02*
X60115000Y-54990000D01*
D27*
X83495000Y-54990000D02*
X60115000Y-54990000D01*
D26*
X60065000Y-87440000D02*
X57484000Y-87440000D01*
X47745000Y-55130000D02*
X47125000Y-55750000D01*
D27*
X101615000Y-32870000D02*
X95115000Y-32870000D01*
D26*
X47125000Y-55750000D02*
X47125000Y-58050000D01*
X57385000Y-54990000D02*
X60115000Y-54990000D01*
D27*
X95115000Y-32870000D02*
X90615000Y-37370000D01*
D26*
X57484000Y-87440000D02*
X56745000Y-86701000D01*
D27*
X90615000Y-47870000D02*
X83495000Y-54990000D01*
D28*
%TO.N,Net-(J3-Pin_3)*%
X32745000Y-69750000D02*
X27745000Y-64750000D01*
X45245000Y-85330000D02*
X45245000Y-87630000D01*
X45245000Y-87630000D02*
X44245000Y-88630000D01*
X44245000Y-88630000D02*
X33745000Y-88630000D01*
X47125000Y-83450000D02*
X45245000Y-85330000D01*
X32745000Y-87630000D02*
X32745000Y-69750000D01*
X33745000Y-88630000D02*
X32745000Y-87630000D01*
D26*
%TO.N,Net-(J3-Pin_5)*%
X38585000Y-59670000D02*
X27745000Y-59670000D01*
X47125000Y-68210000D02*
X38585000Y-59670000D01*
D28*
%TO.N,Net-(J3-Pin_8)*%
X38585000Y-52050000D02*
X27745000Y-52050000D01*
X47125000Y-60590000D02*
X38585000Y-52050000D01*
%TO.N,Net-(J3-Pin_1)*%
X47125000Y-88530000D02*
X45025000Y-90630000D01*
X45025000Y-90630000D02*
X31245000Y-90630000D01*
X27745000Y-87130000D02*
X27745000Y-69830000D01*
X31245000Y-90630000D02*
X27745000Y-87130000D01*
%TO.N,Net-(J3-Pin_4)*%
X47125000Y-70750000D02*
X38585000Y-62210000D01*
X38585000Y-62210000D02*
X27745000Y-62210000D01*
%TO.N,Net-(J3-Pin_7)*%
X47125000Y-63130000D02*
X38585000Y-54590000D01*
X38585000Y-54590000D02*
X27745000Y-54590000D01*
%TO.N,Net-(J3-Pin_6)*%
X47125000Y-65670000D02*
X38585000Y-57130000D01*
X38585000Y-57130000D02*
X27745000Y-57130000D01*
%TO.N,Net-(J3-Pin_2)*%
X31245000Y-71130000D02*
X31245000Y-70790000D01*
X45745000Y-88130000D02*
X44245000Y-89630000D01*
X47125000Y-85990000D02*
X45745000Y-87370000D01*
X45745000Y-87370000D02*
X45745000Y-88130000D01*
X44245000Y-89630000D02*
X33245000Y-89630000D01*
X31245000Y-87630000D02*
X31245000Y-71130000D01*
X33245000Y-89630000D02*
X31245000Y-87630000D01*
X31245000Y-70790000D02*
X27745000Y-67290000D01*
%TD*%
%TA.AperFunction,Conductor*%
%TO.N,GND*%
G36*
X38351942Y-62830185D02*
G01*
X38372584Y-62846819D01*
X44654110Y-69128345D01*
X44687595Y-69189668D01*
X44682611Y-69259360D01*
X44640739Y-69315293D01*
X44585828Y-69338499D01*
X44440464Y-69361523D01*
X44245776Y-69424781D01*
X44063386Y-69517715D01*
X43897786Y-69638028D01*
X43753028Y-69782786D01*
X43632715Y-69948386D01*
X43539781Y-70130776D01*
X43476522Y-70325465D01*
X43444500Y-70527648D01*
X43444500Y-70732351D01*
X43476522Y-70934534D01*
X43539781Y-71129223D01*
X43600923Y-71249219D01*
X43632585Y-71311359D01*
X43632715Y-71311613D01*
X43753028Y-71477213D01*
X43897786Y-71621971D01*
X44018226Y-71709474D01*
X44063390Y-71742287D01*
X44179607Y-71801503D01*
X44245776Y-71835218D01*
X44245778Y-71835218D01*
X44245781Y-71835220D01*
X44329082Y-71862286D01*
X44440465Y-71898477D01*
X44510156Y-71909515D01*
X44642648Y-71930500D01*
X44642649Y-71930500D01*
X44847351Y-71930500D01*
X44847352Y-71930500D01*
X45049534Y-71898477D01*
X45244219Y-71835220D01*
X45426610Y-71742287D01*
X45537688Y-71661585D01*
X45592213Y-71621971D01*
X45592215Y-71621968D01*
X45592219Y-71621966D01*
X45736966Y-71477219D01*
X45793767Y-71399037D01*
X45849095Y-71356373D01*
X45918708Y-71350392D01*
X45980504Y-71382997D01*
X46004570Y-71415629D01*
X46012713Y-71431611D01*
X46133028Y-71597213D01*
X46277786Y-71741971D01*
X46399100Y-71830109D01*
X46443390Y-71862287D01*
X46513461Y-71897990D01*
X46536080Y-71909515D01*
X46586876Y-71957490D01*
X46603671Y-72025311D01*
X46581134Y-72091446D01*
X46536080Y-72130485D01*
X46443386Y-72177715D01*
X46277786Y-72298028D01*
X46133028Y-72442786D01*
X46012715Y-72608386D01*
X45919781Y-72790776D01*
X45856522Y-72985465D01*
X45824500Y-73187648D01*
X45824500Y-73392351D01*
X45856522Y-73594534D01*
X45919781Y-73789223D01*
X45961468Y-73871037D01*
X46012585Y-73971359D01*
X46012715Y-73971613D01*
X46133028Y-74137213D01*
X46277786Y-74281971D01*
X46443385Y-74402284D01*
X46443387Y-74402285D01*
X46443390Y-74402287D01*
X46488446Y-74425244D01*
X46536630Y-74449795D01*
X46587426Y-74497770D01*
X46604221Y-74565591D01*
X46581684Y-74631725D01*
X46536630Y-74670765D01*
X46443644Y-74718143D01*
X46399077Y-74750523D01*
X46399077Y-74750524D01*
X47078554Y-75430000D01*
X47072339Y-75430000D01*
X46970606Y-75457259D01*
X46879394Y-75509920D01*
X46804920Y-75584394D01*
X46752259Y-75675606D01*
X46725000Y-75777339D01*
X46725000Y-75783553D01*
X46045524Y-75104077D01*
X46045523Y-75104077D01*
X46013143Y-75148644D01*
X45920244Y-75330968D01*
X45857009Y-75525582D01*
X45825000Y-75727682D01*
X45825000Y-75932317D01*
X45857009Y-76134417D01*
X45920244Y-76329031D01*
X46013141Y-76511350D01*
X46013147Y-76511359D01*
X46045523Y-76555921D01*
X46045524Y-76555922D01*
X46725000Y-75876446D01*
X46725000Y-75882661D01*
X46752259Y-75984394D01*
X46804920Y-76075606D01*
X46879394Y-76150080D01*
X46970606Y-76202741D01*
X47072339Y-76230000D01*
X47078553Y-76230000D01*
X46399076Y-76909474D01*
X46443652Y-76941861D01*
X46536628Y-76989234D01*
X46587425Y-77037208D01*
X46604220Y-77105029D01*
X46581683Y-77171164D01*
X46536630Y-77210203D01*
X46443388Y-77257713D01*
X46277786Y-77378028D01*
X46133028Y-77522786D01*
X46012715Y-77688386D01*
X45919781Y-77870776D01*
X45856522Y-78065465D01*
X45824500Y-78267648D01*
X45824500Y-78472351D01*
X45856522Y-78674534D01*
X45919781Y-78869223D01*
X46012715Y-79051613D01*
X46133028Y-79217213D01*
X46277786Y-79361971D01*
X46426078Y-79469709D01*
X46443390Y-79482287D01*
X46534840Y-79528883D01*
X46536080Y-79529515D01*
X46586876Y-79577490D01*
X46603671Y-79645311D01*
X46581134Y-79711446D01*
X46536080Y-79750485D01*
X46443386Y-79797715D01*
X46277786Y-79918028D01*
X46133028Y-80062786D01*
X46012715Y-80228386D01*
X45919781Y-80410776D01*
X45856522Y-80605465D01*
X45828438Y-80782786D01*
X45824500Y-80807648D01*
X45824500Y-81012352D01*
X45828878Y-81039995D01*
X45856522Y-81214534D01*
X45919781Y-81409223D01*
X46012715Y-81591613D01*
X46133028Y-81757213D01*
X46277786Y-81901971D01*
X46432749Y-82014556D01*
X46443390Y-82022287D01*
X46518340Y-82060476D01*
X46536080Y-82069515D01*
X46586876Y-82117490D01*
X46603671Y-82185311D01*
X46581134Y-82251446D01*
X46536080Y-82290485D01*
X46443386Y-82337715D01*
X46277786Y-82458028D01*
X46133028Y-82602786D01*
X46012715Y-82768386D01*
X45919781Y-82950776D01*
X45856522Y-83145465D01*
X45824500Y-83347648D01*
X45824500Y-83552351D01*
X45856522Y-83754534D01*
X45861173Y-83768848D01*
X45863165Y-83838690D01*
X45830921Y-83894842D01*
X44879167Y-84846596D01*
X44879159Y-84846604D01*
X44876286Y-84849478D01*
X44876284Y-84849480D01*
X44764480Y-84961284D01*
X44743263Y-84998034D01*
X44737166Y-85008593D01*
X44737165Y-85008595D01*
X44685424Y-85098213D01*
X44685423Y-85098215D01*
X44644499Y-85250943D01*
X44644499Y-85250945D01*
X44644499Y-85419046D01*
X44644500Y-85419059D01*
X44644500Y-87329902D01*
X44624815Y-87396941D01*
X44608181Y-87417583D01*
X44032584Y-87993181D01*
X43971261Y-88026666D01*
X43944903Y-88029500D01*
X43378321Y-88029500D01*
X43311282Y-88009815D01*
X43265527Y-87957011D01*
X43255583Y-87887853D01*
X43284608Y-87824297D01*
X43322026Y-87795015D01*
X43426349Y-87741859D01*
X43470921Y-87709474D01*
X42791447Y-87030000D01*
X42797661Y-87030000D01*
X42899394Y-87002741D01*
X42990606Y-86950080D01*
X43065080Y-86875606D01*
X43117741Y-86784394D01*
X43145000Y-86682661D01*
X43145000Y-86676447D01*
X43824474Y-87355921D01*
X43856859Y-87311349D01*
X43949755Y-87129031D01*
X44012990Y-86934417D01*
X44045000Y-86732317D01*
X44045000Y-86527682D01*
X44012990Y-86325582D01*
X43949755Y-86130968D01*
X43856859Y-85948650D01*
X43824474Y-85904077D01*
X43824474Y-85904076D01*
X43145000Y-86583551D01*
X43145000Y-86577339D01*
X43117741Y-86475606D01*
X43065080Y-86384394D01*
X42990606Y-86309920D01*
X42899394Y-86257259D01*
X42797661Y-86230000D01*
X42791446Y-86230000D01*
X43470922Y-85550524D01*
X43470921Y-85550523D01*
X43426359Y-85518147D01*
X43426350Y-85518141D01*
X43244031Y-85425244D01*
X43049417Y-85362009D01*
X42847317Y-85330000D01*
X42642683Y-85330000D01*
X42440582Y-85362009D01*
X42245968Y-85425244D01*
X42063644Y-85518143D01*
X42019077Y-85550523D01*
X42019077Y-85550524D01*
X42698554Y-86230000D01*
X42692339Y-86230000D01*
X42590606Y-86257259D01*
X42499394Y-86309920D01*
X42424920Y-86384394D01*
X42372259Y-86475606D01*
X42345000Y-86577339D01*
X42345000Y-86583553D01*
X41665524Y-85904077D01*
X41665523Y-85904077D01*
X41633143Y-85948644D01*
X41540244Y-86130968D01*
X41477009Y-86325582D01*
X41445000Y-86527682D01*
X41445000Y-86732317D01*
X41477009Y-86934417D01*
X41540244Y-87129031D01*
X41633141Y-87311350D01*
X41633147Y-87311359D01*
X41665523Y-87355921D01*
X41665524Y-87355922D01*
X42345000Y-86676446D01*
X42345000Y-86682661D01*
X42372259Y-86784394D01*
X42424920Y-86875606D01*
X42499394Y-86950080D01*
X42590606Y-87002741D01*
X42692339Y-87030000D01*
X42698553Y-87030000D01*
X42019076Y-87709474D01*
X42063650Y-87741859D01*
X42167974Y-87795015D01*
X42218770Y-87842989D01*
X42235565Y-87910810D01*
X42213028Y-87976945D01*
X42158313Y-88020397D01*
X42111679Y-88029500D01*
X34045098Y-88029500D01*
X33978059Y-88009815D01*
X33957417Y-87993181D01*
X33381819Y-87417583D01*
X33348334Y-87356260D01*
X33345500Y-87329902D01*
X33345500Y-83031577D01*
X34994500Y-83031577D01*
X34994500Y-83228422D01*
X35025290Y-83422826D01*
X35086117Y-83610029D01*
X35167040Y-83768848D01*
X35175476Y-83785405D01*
X35291172Y-83944646D01*
X35430354Y-84083828D01*
X35589595Y-84199524D01*
X35672455Y-84241743D01*
X35764970Y-84288882D01*
X35764972Y-84288882D01*
X35764975Y-84288884D01*
X35853550Y-84317664D01*
X35952173Y-84349709D01*
X36146578Y-84380500D01*
X36146583Y-84380500D01*
X36343422Y-84380500D01*
X36537826Y-84349709D01*
X36725025Y-84288884D01*
X36900405Y-84199524D01*
X37059646Y-84083828D01*
X37198828Y-83944646D01*
X37314524Y-83785405D01*
X37403884Y-83610025D01*
X37464709Y-83422826D01*
X37480850Y-83320917D01*
X37495500Y-83228422D01*
X37495500Y-83031577D01*
X37464709Y-82837173D01*
X37412419Y-82676243D01*
X37403884Y-82649975D01*
X37403882Y-82649972D01*
X37403882Y-82649970D01*
X37315861Y-82477219D01*
X37314524Y-82474595D01*
X37198828Y-82315354D01*
X37059646Y-82176172D01*
X36900405Y-82060476D01*
X36867592Y-82043757D01*
X36725029Y-81971117D01*
X36537826Y-81910290D01*
X36343422Y-81879500D01*
X36343417Y-81879500D01*
X36146583Y-81879500D01*
X36146578Y-81879500D01*
X35952173Y-81910290D01*
X35764970Y-81971117D01*
X35589594Y-82060476D01*
X35523420Y-82108555D01*
X35430354Y-82176172D01*
X35430352Y-82176174D01*
X35430351Y-82176174D01*
X35291174Y-82315351D01*
X35291174Y-82315352D01*
X35291172Y-82315354D01*
X35274926Y-82337715D01*
X35175476Y-82474594D01*
X35086117Y-82649970D01*
X35025290Y-82837173D01*
X34994500Y-83031577D01*
X33345500Y-83031577D01*
X33345500Y-78151577D01*
X34994500Y-78151577D01*
X34994500Y-78348422D01*
X35025290Y-78542826D01*
X35086117Y-78730029D01*
X35134745Y-78825466D01*
X35175476Y-78905405D01*
X35291172Y-79064646D01*
X35430354Y-79203828D01*
X35589595Y-79319524D01*
X35672455Y-79361743D01*
X35764970Y-79408882D01*
X35764972Y-79408882D01*
X35764975Y-79408884D01*
X35843917Y-79434534D01*
X35952173Y-79469709D01*
X36146578Y-79500500D01*
X36146583Y-79500500D01*
X36343422Y-79500500D01*
X36537826Y-79469709D01*
X36725025Y-79408884D01*
X36900405Y-79319524D01*
X37059646Y-79203828D01*
X37198828Y-79064646D01*
X37225709Y-79027648D01*
X41444500Y-79027648D01*
X41444500Y-79232351D01*
X41476522Y-79434534D01*
X41539781Y-79629223D01*
X41632715Y-79811613D01*
X41753028Y-79977213D01*
X41897786Y-80121971D01*
X42063388Y-80242286D01*
X42116828Y-80269516D01*
X42167623Y-80317490D01*
X42184418Y-80385312D01*
X42161880Y-80451446D01*
X42116828Y-80490484D01*
X42063388Y-80517713D01*
X41897786Y-80638028D01*
X41753028Y-80782786D01*
X41632715Y-80948386D01*
X41539781Y-81130776D01*
X41476522Y-81325465D01*
X41444500Y-81527648D01*
X41444500Y-81732351D01*
X41476522Y-81934534D01*
X41539781Y-82129223D01*
X41564878Y-82178477D01*
X41621949Y-82290485D01*
X41632715Y-82311613D01*
X41753028Y-82477213D01*
X41897786Y-82621971D01*
X41972487Y-82676243D01*
X42063390Y-82742287D01*
X42179607Y-82801503D01*
X42245776Y-82835218D01*
X42245778Y-82835218D01*
X42245781Y-82835220D01*
X42322745Y-82860227D01*
X42440465Y-82898477D01*
X42541557Y-82914488D01*
X42642648Y-82930500D01*
X42642649Y-82930500D01*
X42847351Y-82930500D01*
X42847352Y-82930500D01*
X43049534Y-82898477D01*
X43244219Y-82835220D01*
X43426610Y-82742287D01*
X43553668Y-82649975D01*
X43592213Y-82621971D01*
X43592215Y-82621968D01*
X43592219Y-82621966D01*
X43736966Y-82477219D01*
X43736968Y-82477215D01*
X43736971Y-82477213D01*
X43789732Y-82404590D01*
X43857287Y-82311610D01*
X43950220Y-82129219D01*
X44013477Y-81934534D01*
X44045500Y-81732352D01*
X44045500Y-81527648D01*
X44035124Y-81462135D01*
X44013477Y-81325465D01*
X43950218Y-81130776D01*
X43905367Y-81042753D01*
X43857287Y-80948390D01*
X43849556Y-80937749D01*
X43736971Y-80782786D01*
X43592213Y-80638028D01*
X43426613Y-80517715D01*
X43426612Y-80517714D01*
X43426610Y-80517713D01*
X43373171Y-80490484D01*
X43322376Y-80442510D01*
X43305581Y-80374689D01*
X43328118Y-80308554D01*
X43373172Y-80269515D01*
X43426610Y-80242287D01*
X43519590Y-80174732D01*
X43592213Y-80121971D01*
X43592215Y-80121968D01*
X43592219Y-80121966D01*
X43736966Y-79977219D01*
X43736968Y-79977215D01*
X43736971Y-79977213D01*
X43789732Y-79904590D01*
X43857287Y-79811610D01*
X43950220Y-79629219D01*
X44013477Y-79434534D01*
X44045500Y-79232352D01*
X44045500Y-79027648D01*
X44013477Y-78825466D01*
X43950220Y-78630781D01*
X43950218Y-78630778D01*
X43950218Y-78630776D01*
X43910993Y-78553793D01*
X43857287Y-78448390D01*
X43787497Y-78352331D01*
X43736971Y-78282786D01*
X43592213Y-78138028D01*
X43426613Y-78017715D01*
X43426612Y-78017714D01*
X43426610Y-78017713D01*
X43369653Y-77988691D01*
X43244223Y-77924781D01*
X43049534Y-77861522D01*
X42874995Y-77833878D01*
X42847352Y-77829500D01*
X42642648Y-77829500D01*
X42618329Y-77833351D01*
X42440465Y-77861522D01*
X42245776Y-77924781D01*
X42063386Y-78017715D01*
X41897786Y-78138028D01*
X41753028Y-78282786D01*
X41632715Y-78448386D01*
X41539781Y-78630776D01*
X41476522Y-78825465D01*
X41444500Y-79027648D01*
X37225709Y-79027648D01*
X37314524Y-78905405D01*
X37403884Y-78730025D01*
X37464709Y-78542826D01*
X37476632Y-78467546D01*
X37495500Y-78348422D01*
X37495500Y-78151577D01*
X37464709Y-77957173D01*
X37403882Y-77769970D01*
X37314523Y-77594594D01*
X37262351Y-77522786D01*
X37198828Y-77435354D01*
X37059646Y-77296172D01*
X36900405Y-77180476D01*
X36869600Y-77164780D01*
X36725029Y-77091117D01*
X36537826Y-77030290D01*
X36343422Y-76999500D01*
X36343417Y-76999500D01*
X36146583Y-76999500D01*
X36146578Y-76999500D01*
X35952173Y-77030290D01*
X35764970Y-77091117D01*
X35589594Y-77180476D01*
X35548291Y-77210485D01*
X35430354Y-77296172D01*
X35430352Y-77296174D01*
X35430351Y-77296174D01*
X35291174Y-77435351D01*
X35291174Y-77435352D01*
X35291172Y-77435354D01*
X35241485Y-77503741D01*
X35175476Y-77594594D01*
X35086117Y-77769970D01*
X35025290Y-77957173D01*
X34994500Y-78151577D01*
X33345500Y-78151577D01*
X33345500Y-74027682D01*
X41445000Y-74027682D01*
X41445000Y-74232317D01*
X41477009Y-74434417D01*
X41540244Y-74629031D01*
X41633141Y-74811350D01*
X41633147Y-74811359D01*
X41665523Y-74855921D01*
X41665524Y-74855922D01*
X42345000Y-74176446D01*
X42345000Y-74182661D01*
X42372259Y-74284394D01*
X42424920Y-74375606D01*
X42499394Y-74450080D01*
X42590606Y-74502741D01*
X42692339Y-74530000D01*
X42698553Y-74530000D01*
X42019076Y-75209474D01*
X42063650Y-75241859D01*
X42245968Y-75334755D01*
X42440582Y-75397990D01*
X42642683Y-75430000D01*
X42847317Y-75430000D01*
X43049417Y-75397990D01*
X43244031Y-75334755D01*
X43426349Y-75241859D01*
X43470921Y-75209474D01*
X42791447Y-74530000D01*
X42797661Y-74530000D01*
X42899394Y-74502741D01*
X42990606Y-74450080D01*
X43065080Y-74375606D01*
X43117741Y-74284394D01*
X43145000Y-74182661D01*
X43145000Y-74176447D01*
X43824474Y-74855921D01*
X43856859Y-74811349D01*
X43949755Y-74629031D01*
X44012990Y-74434417D01*
X44045000Y-74232317D01*
X44045000Y-74027682D01*
X44012990Y-73825582D01*
X43949755Y-73630968D01*
X43856859Y-73448650D01*
X43824474Y-73404077D01*
X43824474Y-73404076D01*
X43145000Y-74083551D01*
X43145000Y-74077339D01*
X43117741Y-73975606D01*
X43065080Y-73884394D01*
X42990606Y-73809920D01*
X42899394Y-73757259D01*
X42797661Y-73730000D01*
X42791446Y-73730000D01*
X43470922Y-73050524D01*
X43470921Y-73050523D01*
X43426359Y-73018147D01*
X43426350Y-73018141D01*
X43244031Y-72925244D01*
X43049417Y-72862009D01*
X42847317Y-72830000D01*
X42642683Y-72830000D01*
X42440582Y-72862009D01*
X42245968Y-72925244D01*
X42063644Y-73018143D01*
X42019077Y-73050523D01*
X42019077Y-73050524D01*
X42698554Y-73730000D01*
X42692339Y-73730000D01*
X42590606Y-73757259D01*
X42499394Y-73809920D01*
X42424920Y-73884394D01*
X42372259Y-73975606D01*
X42345000Y-74077339D01*
X42345000Y-74083553D01*
X41665524Y-73404077D01*
X41665523Y-73404077D01*
X41633143Y-73448644D01*
X41540244Y-73630968D01*
X41477009Y-73825582D01*
X41445000Y-74027682D01*
X33345500Y-74027682D01*
X33345500Y-70527682D01*
X38445000Y-70527682D01*
X38445000Y-70732317D01*
X38477009Y-70934417D01*
X38540244Y-71129031D01*
X38633141Y-71311350D01*
X38633147Y-71311359D01*
X38665523Y-71355921D01*
X38665524Y-71355922D01*
X39345000Y-70676446D01*
X39345000Y-70682661D01*
X39372259Y-70784394D01*
X39424920Y-70875606D01*
X39499394Y-70950080D01*
X39590606Y-71002741D01*
X39692339Y-71030000D01*
X39698553Y-71030000D01*
X39019076Y-71709474D01*
X39063650Y-71741859D01*
X39245968Y-71834755D01*
X39440582Y-71897990D01*
X39642683Y-71930000D01*
X39847317Y-71930000D01*
X40049417Y-71897990D01*
X40244031Y-71834755D01*
X40426349Y-71741859D01*
X40470921Y-71709474D01*
X39791447Y-71030000D01*
X39797661Y-71030000D01*
X39899394Y-71002741D01*
X39990606Y-70950080D01*
X40065080Y-70875606D01*
X40117741Y-70784394D01*
X40145000Y-70682661D01*
X40145000Y-70676447D01*
X40824474Y-71355921D01*
X40856859Y-71311349D01*
X40949755Y-71129031D01*
X41012990Y-70934417D01*
X41045000Y-70732317D01*
X41045000Y-70527682D01*
X41012990Y-70325582D01*
X40949755Y-70130968D01*
X40856859Y-69948650D01*
X40824474Y-69904077D01*
X40824474Y-69904076D01*
X40145000Y-70583551D01*
X40145000Y-70577339D01*
X40117741Y-70475606D01*
X40065080Y-70384394D01*
X39990606Y-70309920D01*
X39899394Y-70257259D01*
X39797661Y-70230000D01*
X39791446Y-70230000D01*
X40470922Y-69550524D01*
X40470921Y-69550523D01*
X40426359Y-69518147D01*
X40426350Y-69518141D01*
X40244031Y-69425244D01*
X40049417Y-69362009D01*
X39847317Y-69330000D01*
X39642683Y-69330000D01*
X39440582Y-69362009D01*
X39245968Y-69425244D01*
X39063644Y-69518143D01*
X39019077Y-69550523D01*
X39019077Y-69550524D01*
X39698554Y-70230000D01*
X39692339Y-70230000D01*
X39590606Y-70257259D01*
X39499394Y-70309920D01*
X39424920Y-70384394D01*
X39372259Y-70475606D01*
X39345000Y-70577339D01*
X39345000Y-70583553D01*
X38665524Y-69904077D01*
X38665523Y-69904077D01*
X38633143Y-69948644D01*
X38540244Y-70130968D01*
X38477009Y-70325582D01*
X38445000Y-70527682D01*
X33345500Y-70527682D01*
X33345500Y-69842972D01*
X33345500Y-69829060D01*
X33345501Y-69829057D01*
X33345501Y-69670943D01*
X33304577Y-69518215D01*
X33304535Y-69518143D01*
X33275291Y-69467491D01*
X33250632Y-69424780D01*
X33225520Y-69381284D01*
X33113716Y-69269480D01*
X33113713Y-69269478D01*
X29078757Y-65234522D01*
X29045272Y-65173199D01*
X29048507Y-65108523D01*
X29062246Y-65066243D01*
X29095500Y-64856287D01*
X29095500Y-64643713D01*
X29062246Y-64433757D01*
X28996557Y-64231588D01*
X28900051Y-64042184D01*
X28900049Y-64042181D01*
X28900048Y-64042179D01*
X28775109Y-63870213D01*
X28624786Y-63719890D01*
X28452820Y-63594951D01*
X28452115Y-63594591D01*
X28444054Y-63590485D01*
X28393259Y-63542512D01*
X28376463Y-63474692D01*
X28398999Y-63408556D01*
X28444054Y-63369515D01*
X28452816Y-63365051D01*
X28490302Y-63337816D01*
X28624786Y-63240109D01*
X28624788Y-63240106D01*
X28624792Y-63240104D01*
X28775104Y-63089792D01*
X28775106Y-63089788D01*
X28775109Y-63089786D01*
X28833661Y-63009193D01*
X28900051Y-62917816D01*
X28909238Y-62899786D01*
X28920235Y-62878205D01*
X28968209Y-62827409D01*
X29030719Y-62810500D01*
X38284903Y-62810500D01*
X38351942Y-62830185D01*
G37*
%TD.AperFunction*%
%TA.AperFunction,Conductor*%
G36*
X61406444Y-85553999D02*
G01*
X61445486Y-85599056D01*
X61449951Y-85607820D01*
X61574890Y-85779786D01*
X61725213Y-85930109D01*
X61897179Y-86055048D01*
X61897181Y-86055049D01*
X61897184Y-86055051D01*
X61906493Y-86059794D01*
X61957290Y-86107766D01*
X61974087Y-86175587D01*
X61951552Y-86241722D01*
X61906505Y-86280760D01*
X61897446Y-86285376D01*
X61897440Y-86285380D01*
X61843282Y-86324727D01*
X61843282Y-86324728D01*
X62475591Y-86957037D01*
X62412007Y-86974075D01*
X62297993Y-87039901D01*
X62204901Y-87132993D01*
X62139075Y-87247007D01*
X62122037Y-87310591D01*
X61489728Y-86678282D01*
X61489727Y-86678282D01*
X61450380Y-86732440D01*
X61450376Y-86732446D01*
X61445760Y-86741505D01*
X61397781Y-86792297D01*
X61329959Y-86809087D01*
X61263826Y-86786543D01*
X61224794Y-86741493D01*
X61220051Y-86732184D01*
X61220049Y-86732181D01*
X61220048Y-86732179D01*
X61095109Y-86560213D01*
X60944786Y-86409890D01*
X60772820Y-86284951D01*
X60764600Y-86280763D01*
X60764054Y-86280485D01*
X60713259Y-86232512D01*
X60696463Y-86164692D01*
X60718999Y-86098556D01*
X60764054Y-86059515D01*
X60772816Y-86055051D01*
X60794789Y-86039086D01*
X60944786Y-85930109D01*
X60944788Y-85930106D01*
X60944792Y-85930104D01*
X61095104Y-85779792D01*
X61095106Y-85779788D01*
X61095109Y-85779786D01*
X61220048Y-85607820D01*
X61220047Y-85607820D01*
X61220051Y-85607816D01*
X61224514Y-85599054D01*
X61272488Y-85548259D01*
X61340308Y-85531463D01*
X61406444Y-85553999D01*
G37*
%TD.AperFunction*%
%TA.AperFunction,Conductor*%
G36*
X55824474Y-74015921D02*
G01*
X55856859Y-73971349D01*
X55885015Y-73916091D01*
X55932989Y-73865295D01*
X56000810Y-73848500D01*
X56066945Y-73871037D01*
X56110397Y-73925752D01*
X56119500Y-73972386D01*
X56119500Y-75146514D01*
X56099815Y-75213553D01*
X56047011Y-75259308D01*
X55977853Y-75269252D01*
X55914297Y-75240227D01*
X55885015Y-75202809D01*
X55882601Y-75198073D01*
X55857287Y-75148390D01*
X55825092Y-75104077D01*
X55736971Y-74982786D01*
X55592213Y-74838028D01*
X55426611Y-74717713D01*
X55333369Y-74670203D01*
X55282574Y-74622229D01*
X55265779Y-74554407D01*
X55288317Y-74488273D01*
X55333371Y-74449234D01*
X55426346Y-74401861D01*
X55426347Y-74401861D01*
X55470921Y-74369474D01*
X54791447Y-73690000D01*
X54797661Y-73690000D01*
X54899394Y-73662741D01*
X54990606Y-73610080D01*
X55065080Y-73535606D01*
X55117741Y-73444394D01*
X55145000Y-73342661D01*
X55145000Y-73336447D01*
X55824474Y-74015921D01*
G37*
%TD.AperFunction*%
%TA.AperFunction,Conductor*%
G36*
X56066945Y-71332136D02*
G01*
X56110397Y-71386851D01*
X56119500Y-71433485D01*
X56119500Y-72607613D01*
X56099815Y-72674652D01*
X56047011Y-72720407D01*
X55977853Y-72730351D01*
X55914297Y-72701326D01*
X55885015Y-72663908D01*
X55856859Y-72608650D01*
X55824474Y-72564077D01*
X55824474Y-72564076D01*
X55145000Y-73243551D01*
X55145000Y-73237339D01*
X55117741Y-73135606D01*
X55065080Y-73044394D01*
X54990606Y-72969920D01*
X54899394Y-72917259D01*
X54797661Y-72890000D01*
X54791446Y-72890000D01*
X55470922Y-72210524D01*
X55470921Y-72210523D01*
X55426359Y-72178147D01*
X55426350Y-72178141D01*
X55333369Y-72130765D01*
X55282573Y-72082790D01*
X55265778Y-72014969D01*
X55288315Y-71948835D01*
X55333370Y-71909795D01*
X55355583Y-71898477D01*
X55426610Y-71862287D01*
X55476144Y-71826298D01*
X55592213Y-71741971D01*
X55592215Y-71741968D01*
X55592219Y-71741966D01*
X55736966Y-71597219D01*
X55736968Y-71597215D01*
X55736971Y-71597213D01*
X55824155Y-71477213D01*
X55857287Y-71431610D01*
X55885015Y-71377191D01*
X55932989Y-71326394D01*
X56000810Y-71309599D01*
X56066945Y-71332136D01*
G37*
%TD.AperFunction*%
%TA.AperFunction,Conductor*%
G36*
X105942539Y-24020185D02*
G01*
X105988294Y-24072989D01*
X105999500Y-24124500D01*
X105999500Y-105375500D01*
X105979815Y-105442539D01*
X105927011Y-105488294D01*
X105875500Y-105499500D01*
X19624500Y-105499500D01*
X19557461Y-105479815D01*
X19511706Y-105427011D01*
X19500500Y-105375500D01*
X19500500Y-99922155D01*
X27295000Y-99922155D01*
X27295000Y-100620000D01*
X28319722Y-100620000D01*
X28275667Y-100696306D01*
X28245000Y-100810756D01*
X28245000Y-100929244D01*
X28275667Y-101043694D01*
X28319722Y-101120000D01*
X27295000Y-101120000D01*
X27295000Y-101817844D01*
X27301401Y-101877372D01*
X27301403Y-101877379D01*
X27351645Y-102012086D01*
X27351649Y-102012093D01*
X27437809Y-102127187D01*
X27437812Y-102127190D01*
X27552906Y-102213350D01*
X27552913Y-102213354D01*
X27687620Y-102263596D01*
X27687627Y-102263598D01*
X27747155Y-102269999D01*
X27747172Y-102270000D01*
X28445000Y-102270000D01*
X28445000Y-101245277D01*
X28521306Y-101289333D01*
X28635756Y-101320000D01*
X28754244Y-101320000D01*
X28868694Y-101289333D01*
X28945000Y-101245277D01*
X28945000Y-102270000D01*
X29642828Y-102270000D01*
X29642844Y-102269999D01*
X29702372Y-102263598D01*
X29702379Y-102263596D01*
X29837086Y-102213354D01*
X29837093Y-102213350D01*
X29952187Y-102127190D01*
X29952190Y-102127187D01*
X30038350Y-102012093D01*
X30038354Y-102012086D01*
X30068213Y-101932031D01*
X30110084Y-101876097D01*
X30175548Y-101851680D01*
X30243821Y-101866531D01*
X30272076Y-101887683D01*
X30322636Y-101938243D01*
X30322641Y-101938247D01*
X30478192Y-102051260D01*
X30500978Y-102067815D01*
X30597875Y-102117187D01*
X30697393Y-102167895D01*
X30697396Y-102167896D01*
X30802221Y-102201955D01*
X30907049Y-102236015D01*
X31124778Y-102270500D01*
X31124779Y-102270500D01*
X31345221Y-102270500D01*
X31345222Y-102270500D01*
X31562951Y-102236015D01*
X31772606Y-102167895D01*
X31969022Y-102067815D01*
X32147365Y-101938242D01*
X32303242Y-101782365D01*
X32432815Y-101604022D01*
X32532895Y-101407606D01*
X32601015Y-101197951D01*
X32635500Y-100980222D01*
X32635500Y-100767648D01*
X33734500Y-100767648D01*
X33734500Y-100972351D01*
X33766522Y-101174534D01*
X33829781Y-101369223D01*
X33893691Y-101494653D01*
X33917619Y-101541613D01*
X33922715Y-101551613D01*
X34043028Y-101717213D01*
X34187786Y-101861971D01*
X34339622Y-101972284D01*
X34353390Y-101982287D01*
X34469607Y-102041503D01*
X34535776Y-102075218D01*
X34535778Y-102075218D01*
X34535781Y-102075220D01*
X34640137Y-102109127D01*
X34730465Y-102138477D01*
X34831557Y-102154488D01*
X34932648Y-102170500D01*
X34932649Y-102170500D01*
X35137351Y-102170500D01*
X35137352Y-102170500D01*
X35339534Y-102138477D01*
X35534219Y-102075220D01*
X35716610Y-101982287D01*
X35842184Y-101891053D01*
X35882213Y-101861971D01*
X35882215Y-101861968D01*
X35882219Y-101861966D01*
X36026966Y-101717219D01*
X36026968Y-101717215D01*
X36026971Y-101717213D01*
X36079732Y-101644590D01*
X36147287Y-101551610D01*
X36240220Y-101369219D01*
X36303477Y-101174534D01*
X36335500Y-100972352D01*
X36335500Y-100767648D01*
X43894500Y-100767648D01*
X43894500Y-100972351D01*
X43926522Y-101174534D01*
X43989781Y-101369223D01*
X44053691Y-101494653D01*
X44077619Y-101541613D01*
X44082715Y-101551613D01*
X44203028Y-101717213D01*
X44347786Y-101861971D01*
X44499622Y-101972284D01*
X44513390Y-101982287D01*
X44629607Y-102041503D01*
X44695776Y-102075218D01*
X44695778Y-102075218D01*
X44695781Y-102075220D01*
X44800137Y-102109127D01*
X44890465Y-102138477D01*
X44991557Y-102154488D01*
X45092648Y-102170500D01*
X45092649Y-102170500D01*
X45297351Y-102170500D01*
X45297352Y-102170500D01*
X45499534Y-102138477D01*
X45694219Y-102075220D01*
X45876610Y-101982287D01*
X46002184Y-101891053D01*
X46042213Y-101861971D01*
X46042215Y-101861968D01*
X46042219Y-101861966D01*
X46186966Y-101717219D01*
X46186968Y-101717215D01*
X46186971Y-101717213D01*
X46239732Y-101644590D01*
X46307287Y-101551610D01*
X46400220Y-101369219D01*
X46463477Y-101174534D01*
X46495500Y-100972352D01*
X46495500Y-100767648D01*
X46493916Y-100757648D01*
X54899500Y-100757648D01*
X54899500Y-100962351D01*
X54931522Y-101164534D01*
X54994781Y-101359223D01*
X55087715Y-101541613D01*
X55208028Y-101707213D01*
X55352786Y-101851971D01*
X55507749Y-101964556D01*
X55518390Y-101972287D01*
X55596500Y-102012086D01*
X55700776Y-102065218D01*
X55700778Y-102065218D01*
X55700781Y-102065220D01*
X55805137Y-102099127D01*
X55895465Y-102128477D01*
X55958602Y-102138477D01*
X56097648Y-102160500D01*
X56097649Y-102160500D01*
X56302351Y-102160500D01*
X56302352Y-102160500D01*
X56504534Y-102128477D01*
X56699219Y-102065220D01*
X56881610Y-101972287D01*
X56993420Y-101891053D01*
X57047213Y-101851971D01*
X57047215Y-101851968D01*
X57047219Y-101851966D01*
X57191966Y-101707219D01*
X57191968Y-101707215D01*
X57191971Y-101707213D01*
X57266942Y-101604022D01*
X57312287Y-101541610D01*
X57405220Y-101359219D01*
X57468477Y-101164534D01*
X57500500Y-100962352D01*
X57500500Y-100757648D01*
X65059500Y-100757648D01*
X65059500Y-100962351D01*
X65091522Y-101164534D01*
X65154781Y-101359223D01*
X65247715Y-101541613D01*
X65368028Y-101707213D01*
X65512786Y-101851971D01*
X65667749Y-101964556D01*
X65678390Y-101972287D01*
X65756500Y-102012086D01*
X65860776Y-102065218D01*
X65860778Y-102065218D01*
X65860781Y-102065220D01*
X65965137Y-102099127D01*
X66055465Y-102128477D01*
X66118602Y-102138477D01*
X66257648Y-102160500D01*
X66257649Y-102160500D01*
X66462351Y-102160500D01*
X66462352Y-102160500D01*
X66664534Y-102128477D01*
X66859219Y-102065220D01*
X67041610Y-101972287D01*
X67153420Y-101891053D01*
X67207213Y-101851971D01*
X67207215Y-101851968D01*
X67207219Y-101851966D01*
X67351966Y-101707219D01*
X67351968Y-101707215D01*
X67351971Y-101707213D01*
X67426942Y-101604022D01*
X67472287Y-101541610D01*
X67565220Y-101359219D01*
X67628477Y-101164534D01*
X67660500Y-100962352D01*
X67660500Y-100757648D01*
X67659253Y-100749778D01*
X68109500Y-100749778D01*
X68109500Y-100970222D01*
X68111084Y-100980221D01*
X68143985Y-101187952D01*
X68212103Y-101397603D01*
X68212104Y-101397606D01*
X68280122Y-101531096D01*
X68285479Y-101541610D01*
X68312187Y-101594025D01*
X68441752Y-101772358D01*
X68441756Y-101772363D01*
X68597636Y-101928243D01*
X68597641Y-101928247D01*
X68753192Y-102041260D01*
X68775978Y-102057815D01*
X68892501Y-102117187D01*
X68972393Y-102157895D01*
X68972396Y-102157896D01*
X69077221Y-102191955D01*
X69182049Y-102226015D01*
X69399778Y-102260500D01*
X69399779Y-102260500D01*
X69620221Y-102260500D01*
X69620222Y-102260500D01*
X69837951Y-102226015D01*
X70047606Y-102157895D01*
X70244022Y-102057815D01*
X70422365Y-101928242D01*
X70472924Y-101877682D01*
X70534245Y-101844198D01*
X70603936Y-101849182D01*
X70659870Y-101891053D01*
X70676786Y-101922030D01*
X70706646Y-102002087D01*
X70706649Y-102002093D01*
X70792809Y-102117187D01*
X70792812Y-102117190D01*
X70907906Y-102203350D01*
X70907913Y-102203354D01*
X71042620Y-102253596D01*
X71042627Y-102253598D01*
X71102155Y-102259999D01*
X71102172Y-102260000D01*
X71800000Y-102260000D01*
X71800000Y-101235277D01*
X71876306Y-101279333D01*
X71990756Y-101310000D01*
X72109244Y-101310000D01*
X72223694Y-101279333D01*
X72300000Y-101235277D01*
X72300000Y-102260000D01*
X72997828Y-102260000D01*
X72997844Y-102259999D01*
X73057372Y-102253598D01*
X73057379Y-102253596D01*
X73192086Y-102203354D01*
X73192093Y-102203350D01*
X73307187Y-102117190D01*
X73307190Y-102117187D01*
X73393350Y-102002093D01*
X73393354Y-102002086D01*
X73443596Y-101867379D01*
X73443598Y-101867372D01*
X73449999Y-101807844D01*
X73450000Y-101807827D01*
X73450000Y-101110000D01*
X72425278Y-101110000D01*
X72469333Y-101033694D01*
X72500000Y-100919244D01*
X72500000Y-100800756D01*
X72469333Y-100686306D01*
X72425278Y-100610000D01*
X73450000Y-100610000D01*
X73450000Y-99912172D01*
X73449999Y-99912155D01*
X73443598Y-99852627D01*
X73443596Y-99852620D01*
X73393354Y-99717913D01*
X73393350Y-99717906D01*
X73307190Y-99602812D01*
X73307187Y-99602809D01*
X73192093Y-99516649D01*
X73192086Y-99516645D01*
X73057379Y-99466403D01*
X73057372Y-99466401D01*
X72997844Y-99460000D01*
X72300000Y-99460000D01*
X72300000Y-100484722D01*
X72223694Y-100440667D01*
X72109244Y-100410000D01*
X71990756Y-100410000D01*
X71876306Y-100440667D01*
X71800000Y-100484722D01*
X71800000Y-99460000D01*
X71102155Y-99460000D01*
X71042627Y-99466401D01*
X71042620Y-99466403D01*
X70907913Y-99516645D01*
X70907906Y-99516649D01*
X70792812Y-99602809D01*
X70792809Y-99602812D01*
X70706649Y-99717906D01*
X70706643Y-99717918D01*
X70676785Y-99797969D01*
X70634914Y-99853903D01*
X70569449Y-99878319D01*
X70501176Y-99863467D01*
X70472923Y-99842316D01*
X70422363Y-99791756D01*
X70422358Y-99791752D01*
X70244025Y-99662187D01*
X70244024Y-99662186D01*
X70244022Y-99662185D01*
X70181096Y-99630122D01*
X70047606Y-99562104D01*
X70047603Y-99562103D01*
X69837952Y-99493985D01*
X69683359Y-99469500D01*
X69620222Y-99459500D01*
X69399778Y-99459500D01*
X69336641Y-99469500D01*
X69182047Y-99493985D01*
X68972396Y-99562103D01*
X68972393Y-99562104D01*
X68775974Y-99662187D01*
X68597641Y-99791752D01*
X68597636Y-99791756D01*
X68441756Y-99947636D01*
X68441752Y-99947641D01*
X68312187Y-100125974D01*
X68212104Y-100322393D01*
X68212103Y-100322396D01*
X68143985Y-100532047D01*
X68143985Y-100532049D01*
X68109500Y-100749778D01*
X67659253Y-100749778D01*
X67628477Y-100555466D01*
X67620868Y-100532049D01*
X67594426Y-100450667D01*
X67565220Y-100360781D01*
X67565218Y-100360778D01*
X67565218Y-100360776D01*
X67531503Y-100294607D01*
X67472287Y-100178390D01*
X67441473Y-100135978D01*
X67351971Y-100012786D01*
X67207213Y-99868028D01*
X67041613Y-99747715D01*
X67041612Y-99747714D01*
X67041610Y-99747713D01*
X66983111Y-99717906D01*
X66859223Y-99654781D01*
X66664534Y-99591522D01*
X66478799Y-99562105D01*
X66462352Y-99559500D01*
X66257648Y-99559500D01*
X66241201Y-99562105D01*
X66055465Y-99591522D01*
X65860776Y-99654781D01*
X65678386Y-99747715D01*
X65512786Y-99868028D01*
X65368028Y-100012786D01*
X65247715Y-100178386D01*
X65154781Y-100360776D01*
X65091522Y-100555465D01*
X65059500Y-100757648D01*
X57500500Y-100757648D01*
X57500499Y-100757644D01*
X57468477Y-100555465D01*
X57434426Y-100450667D01*
X57405220Y-100360781D01*
X57405218Y-100360778D01*
X57405218Y-100360776D01*
X57371503Y-100294607D01*
X57312287Y-100178390D01*
X57281473Y-100135978D01*
X57191971Y-100012786D01*
X57047213Y-99868028D01*
X56881613Y-99747715D01*
X56881612Y-99747714D01*
X56881610Y-99747713D01*
X56823111Y-99717906D01*
X56699223Y-99654781D01*
X56504534Y-99591522D01*
X56318799Y-99562105D01*
X56302352Y-99559500D01*
X56097648Y-99559500D01*
X56081201Y-99562105D01*
X55895465Y-99591522D01*
X55700776Y-99654781D01*
X55518386Y-99747715D01*
X55352786Y-99868028D01*
X55208028Y-100012786D01*
X55087715Y-100178386D01*
X54994781Y-100360776D01*
X54931522Y-100555465D01*
X54899500Y-100757648D01*
X46493916Y-100757648D01*
X46463477Y-100565466D01*
X46460227Y-100555465D01*
X46434127Y-100475137D01*
X46400220Y-100370781D01*
X46400218Y-100370778D01*
X46400218Y-100370776D01*
X46366503Y-100304607D01*
X46307287Y-100188390D01*
X46269205Y-100135974D01*
X46186971Y-100022786D01*
X46042213Y-99878028D01*
X45876613Y-99757715D01*
X45876612Y-99757714D01*
X45876610Y-99757713D01*
X45798508Y-99717918D01*
X45694223Y-99664781D01*
X45499534Y-99601522D01*
X45313799Y-99572105D01*
X45297352Y-99569500D01*
X45092648Y-99569500D01*
X45076201Y-99572105D01*
X44890465Y-99601522D01*
X44695776Y-99664781D01*
X44513386Y-99757715D01*
X44347786Y-99878028D01*
X44203028Y-100022786D01*
X44082715Y-100188386D01*
X43989781Y-100370776D01*
X43926522Y-100565465D01*
X43894500Y-100767648D01*
X36335500Y-100767648D01*
X36335500Y-100767646D01*
X36303477Y-100565465D01*
X36274127Y-100475137D01*
X36240220Y-100370781D01*
X36240218Y-100370778D01*
X36240218Y-100370776D01*
X36206503Y-100304607D01*
X36147287Y-100188390D01*
X36109205Y-100135974D01*
X36026971Y-100022786D01*
X35882213Y-99878028D01*
X35716613Y-99757715D01*
X35716612Y-99757714D01*
X35716610Y-99757713D01*
X35638508Y-99717918D01*
X35534223Y-99664781D01*
X35339534Y-99601522D01*
X35153799Y-99572105D01*
X35137352Y-99569500D01*
X34932648Y-99569500D01*
X34916201Y-99572105D01*
X34730465Y-99601522D01*
X34535776Y-99664781D01*
X34353386Y-99757715D01*
X34187786Y-99878028D01*
X34043028Y-100022786D01*
X33922715Y-100188386D01*
X33829781Y-100370776D01*
X33766522Y-100565465D01*
X33734500Y-100767648D01*
X32635500Y-100767648D01*
X32635500Y-100759778D01*
X32601015Y-100542049D01*
X32566955Y-100437221D01*
X32532896Y-100332396D01*
X32532895Y-100332393D01*
X32498237Y-100264375D01*
X32432815Y-100135978D01*
X32350573Y-100022781D01*
X32303247Y-99957641D01*
X32303243Y-99957636D01*
X32147363Y-99801756D01*
X32147358Y-99801752D01*
X31969025Y-99672187D01*
X31969024Y-99672186D01*
X31969022Y-99672185D01*
X31906096Y-99640122D01*
X31772606Y-99572104D01*
X31772603Y-99572103D01*
X31562952Y-99503985D01*
X31454086Y-99486742D01*
X31345222Y-99469500D01*
X31124778Y-99469500D01*
X31052201Y-99480995D01*
X30907047Y-99503985D01*
X30697396Y-99572103D01*
X30697393Y-99572104D01*
X30500974Y-99672187D01*
X30322641Y-99801752D01*
X30322636Y-99801756D01*
X30272075Y-99852317D01*
X30210752Y-99885801D01*
X30141060Y-99880816D01*
X30085127Y-99838945D01*
X30068213Y-99807968D01*
X30038354Y-99727913D01*
X30038350Y-99727906D01*
X29952190Y-99612812D01*
X29952187Y-99612809D01*
X29837093Y-99526649D01*
X29837086Y-99526645D01*
X29702379Y-99476403D01*
X29702372Y-99476401D01*
X29642844Y-99470000D01*
X28945000Y-99470000D01*
X28945000Y-100494722D01*
X28868694Y-100450667D01*
X28754244Y-100420000D01*
X28635756Y-100420000D01*
X28521306Y-100450667D01*
X28445000Y-100494722D01*
X28445000Y-99470000D01*
X27747155Y-99470000D01*
X27687627Y-99476401D01*
X27687620Y-99476403D01*
X27552913Y-99526645D01*
X27552906Y-99526649D01*
X27437812Y-99612809D01*
X27437809Y-99612812D01*
X27351649Y-99727906D01*
X27351645Y-99727913D01*
X27301403Y-99862620D01*
X27301401Y-99862627D01*
X27295000Y-99922155D01*
X19500500Y-99922155D01*
X19500500Y-51943713D01*
X26394500Y-51943713D01*
X26394500Y-52156286D01*
X26427076Y-52361966D01*
X26427754Y-52366243D01*
X26465458Y-52482284D01*
X26493444Y-52568414D01*
X26589951Y-52757820D01*
X26714890Y-52929786D01*
X26865213Y-53080109D01*
X27037182Y-53205050D01*
X27045946Y-53209516D01*
X27096742Y-53257491D01*
X27113536Y-53325312D01*
X27090998Y-53391447D01*
X27045946Y-53430484D01*
X27037182Y-53434949D01*
X26865213Y-53559890D01*
X26714890Y-53710213D01*
X26589951Y-53882179D01*
X26493444Y-54071585D01*
X26427753Y-54273760D01*
X26394500Y-54483713D01*
X26394500Y-54696286D01*
X26427753Y-54906239D01*
X26493444Y-55108414D01*
X26589951Y-55297820D01*
X26714890Y-55469786D01*
X26865213Y-55620109D01*
X27037182Y-55745050D01*
X27045946Y-55749516D01*
X27096742Y-55797491D01*
X27113536Y-55865312D01*
X27090998Y-55931447D01*
X27045946Y-55970484D01*
X27037182Y-55974949D01*
X26865213Y-56099890D01*
X26714890Y-56250213D01*
X26589951Y-56422179D01*
X26493444Y-56611585D01*
X26493443Y-56611587D01*
X26493443Y-56611588D01*
X26460855Y-56711884D01*
X26427753Y-56813760D01*
X26394500Y-57023713D01*
X26394500Y-57236286D01*
X26415422Y-57368386D01*
X26427754Y-57446243D01*
X26428969Y-57449983D01*
X26493444Y-57648414D01*
X26589951Y-57837820D01*
X26714890Y-58009786D01*
X26865213Y-58160109D01*
X27037182Y-58285050D01*
X27045946Y-58289516D01*
X27096742Y-58337491D01*
X27113536Y-58405312D01*
X27090998Y-58471447D01*
X27045946Y-58510484D01*
X27037182Y-58514949D01*
X26865213Y-58639890D01*
X26714890Y-58790213D01*
X26589951Y-58962179D01*
X26493444Y-59151585D01*
X26493443Y-59151587D01*
X26493443Y-59151588D01*
X26461936Y-59248555D01*
X26427753Y-59353760D01*
X26394500Y-59563713D01*
X26394500Y-59776286D01*
X26415422Y-59908386D01*
X26427754Y-59986243D01*
X26493249Y-60187816D01*
X26493444Y-60188414D01*
X26589951Y-60377820D01*
X26714890Y-60549786D01*
X26865213Y-60700109D01*
X27037182Y-60825050D01*
X27045946Y-60829516D01*
X27096742Y-60877491D01*
X27113536Y-60945312D01*
X27090998Y-61011447D01*
X27045946Y-61050484D01*
X27037182Y-61054949D01*
X26865213Y-61179890D01*
X26714890Y-61330213D01*
X26589951Y-61502179D01*
X26493444Y-61691585D01*
X26493443Y-61691587D01*
X26493443Y-61691588D01*
X26461936Y-61788555D01*
X26427753Y-61893760D01*
X26394500Y-62103713D01*
X26394500Y-62316286D01*
X26415422Y-62448386D01*
X26427754Y-62526243D01*
X26493249Y-62727816D01*
X26493444Y-62728414D01*
X26589951Y-62917820D01*
X26714890Y-63089786D01*
X26865213Y-63240109D01*
X27037182Y-63365050D01*
X27045946Y-63369516D01*
X27096742Y-63417491D01*
X27113536Y-63485312D01*
X27090998Y-63551447D01*
X27045946Y-63590484D01*
X27037182Y-63594949D01*
X26865213Y-63719890D01*
X26714890Y-63870213D01*
X26589951Y-64042179D01*
X26493444Y-64231585D01*
X26493443Y-64231587D01*
X26493443Y-64231588D01*
X26461936Y-64328555D01*
X26427753Y-64433760D01*
X26394500Y-64643713D01*
X26394500Y-64856286D01*
X26427753Y-65066239D01*
X26427753Y-65066241D01*
X26427754Y-65066243D01*
X26493249Y-65267816D01*
X26493444Y-65268414D01*
X26589951Y-65457820D01*
X26714890Y-65629786D01*
X26865213Y-65780109D01*
X27037182Y-65905050D01*
X27045946Y-65909516D01*
X27096742Y-65957491D01*
X27113536Y-66025312D01*
X27090998Y-66091447D01*
X27045946Y-66130484D01*
X27037182Y-66134949D01*
X26865213Y-66259890D01*
X26714890Y-66410213D01*
X26589951Y-66582179D01*
X26493444Y-66771585D01*
X26493443Y-66771587D01*
X26493443Y-66771588D01*
X26461936Y-66868555D01*
X26427753Y-66973760D01*
X26394500Y-67183713D01*
X26394500Y-67396286D01*
X26427753Y-67606239D01*
X26427753Y-67606241D01*
X26427754Y-67606243D01*
X26493249Y-67807816D01*
X26493444Y-67808414D01*
X26589951Y-67997820D01*
X26714890Y-68169786D01*
X26828430Y-68283326D01*
X26861915Y-68344649D01*
X26856931Y-68414341D01*
X26815059Y-68470274D01*
X26784083Y-68487189D01*
X26652669Y-68536203D01*
X26652664Y-68536206D01*
X26537455Y-68622452D01*
X26537452Y-68622455D01*
X26451206Y-68737664D01*
X26451202Y-68737671D01*
X26400908Y-68872517D01*
X26394501Y-68932116D01*
X26394500Y-68932135D01*
X26394500Y-70727870D01*
X26394501Y-70727876D01*
X26400908Y-70787483D01*
X26451202Y-70922328D01*
X26451206Y-70922335D01*
X26537452Y-71037544D01*
X26537455Y-71037547D01*
X26652664Y-71123793D01*
X26652671Y-71123797D01*
X26697618Y-71140561D01*
X26787517Y-71174091D01*
X26847127Y-71180500D01*
X27020500Y-71180499D01*
X27087539Y-71200183D01*
X27133294Y-71252987D01*
X27144500Y-71304499D01*
X27144500Y-87043330D01*
X27144499Y-87043348D01*
X27144499Y-87209054D01*
X27144498Y-87209054D01*
X27185424Y-87361789D01*
X27185425Y-87361790D01*
X27206455Y-87398214D01*
X27206456Y-87398216D01*
X27264475Y-87498709D01*
X27264481Y-87498717D01*
X27383349Y-87617585D01*
X27383355Y-87617590D01*
X30760139Y-90994374D01*
X30760149Y-90994385D01*
X30764479Y-90998715D01*
X30764480Y-90998716D01*
X30876284Y-91110520D01*
X30876286Y-91110521D01*
X30876290Y-91110524D01*
X31013209Y-91189573D01*
X31013212Y-91189575D01*
X31013216Y-91189577D01*
X31104894Y-91214142D01*
X31104893Y-91214142D01*
X31117794Y-91217598D01*
X31165942Y-91230500D01*
X31165943Y-91230500D01*
X44938331Y-91230500D01*
X44938347Y-91230501D01*
X44945943Y-91230501D01*
X45104054Y-91230501D01*
X45104057Y-91230501D01*
X45256785Y-91189577D01*
X45328547Y-91148145D01*
X45393716Y-91110520D01*
X45505520Y-90998716D01*
X45505520Y-90998714D01*
X45515720Y-90988515D01*
X45515724Y-90988510D01*
X45612821Y-90891412D01*
X45674143Y-90857930D01*
X45743834Y-90862914D01*
X45799767Y-90904786D01*
X45824184Y-90970251D01*
X45824500Y-90979096D01*
X45824500Y-91172351D01*
X45856522Y-91374534D01*
X45919781Y-91569223D01*
X45981763Y-91690868D01*
X45984605Y-91696446D01*
X46012715Y-91751613D01*
X46133028Y-91917213D01*
X46277786Y-92061971D01*
X46432749Y-92174556D01*
X46443390Y-92182287D01*
X46559607Y-92241503D01*
X46625776Y-92275218D01*
X46625778Y-92275218D01*
X46625781Y-92275220D01*
X46730137Y-92309127D01*
X46820465Y-92338477D01*
X46921557Y-92354488D01*
X47022648Y-92370500D01*
X47022649Y-92370500D01*
X47227351Y-92370500D01*
X47227352Y-92370500D01*
X47429534Y-92338477D01*
X47624219Y-92275220D01*
X47806610Y-92182287D01*
X47899590Y-92114732D01*
X47972213Y-92061971D01*
X47972215Y-92061968D01*
X47972219Y-92061966D01*
X48116966Y-91917219D01*
X48116968Y-91917215D01*
X48116971Y-91917213D01*
X48169732Y-91844590D01*
X48237287Y-91751610D01*
X48330220Y-91569219D01*
X48393477Y-91374534D01*
X48425500Y-91172352D01*
X48425500Y-90967648D01*
X48422449Y-90948386D01*
X48393477Y-90765465D01*
X48336801Y-90591036D01*
X48330220Y-90570781D01*
X48330218Y-90570778D01*
X48330218Y-90570776D01*
X48255829Y-90424781D01*
X48237287Y-90388390D01*
X48217767Y-90361523D01*
X48116971Y-90222786D01*
X47972213Y-90078028D01*
X47806614Y-89957715D01*
X47789184Y-89948834D01*
X47713917Y-89910483D01*
X47663123Y-89862511D01*
X47646328Y-89794690D01*
X47668865Y-89728555D01*
X47713917Y-89689516D01*
X47806610Y-89642287D01*
X47827770Y-89626913D01*
X47972213Y-89521971D01*
X47972215Y-89521968D01*
X47972219Y-89521966D01*
X48116966Y-89377219D01*
X48116968Y-89377215D01*
X48116971Y-89377213D01*
X48169732Y-89304590D01*
X48237287Y-89211610D01*
X48330220Y-89029219D01*
X48393477Y-88834534D01*
X48425500Y-88632352D01*
X48425500Y-88427648D01*
X48393477Y-88225466D01*
X48385760Y-88201717D01*
X48341501Y-88065500D01*
X48330220Y-88030781D01*
X48330218Y-88030778D01*
X48330218Y-88030776D01*
X48292632Y-87957011D01*
X48237287Y-87848390D01*
X48197447Y-87793554D01*
X48116971Y-87682786D01*
X47972213Y-87538028D01*
X47806614Y-87417715D01*
X47768341Y-87398214D01*
X47713917Y-87370483D01*
X47663123Y-87322511D01*
X47646328Y-87254690D01*
X47668865Y-87188555D01*
X47713917Y-87149516D01*
X47806610Y-87102287D01*
X47828413Y-87086446D01*
X47972213Y-86981971D01*
X47972215Y-86981968D01*
X47972219Y-86981966D01*
X48116966Y-86837219D01*
X48116968Y-86837215D01*
X48116971Y-86837213D01*
X48193087Y-86732446D01*
X48237287Y-86671610D01*
X48330220Y-86489219D01*
X48393477Y-86294534D01*
X48425500Y-86092352D01*
X48425500Y-85887648D01*
X48393477Y-85685466D01*
X48330220Y-85490781D01*
X48330218Y-85490778D01*
X48330218Y-85490776D01*
X48270489Y-85373553D01*
X48237287Y-85308390D01*
X48229556Y-85297749D01*
X48116971Y-85142786D01*
X47972213Y-84998028D01*
X47806614Y-84877715D01*
X47800006Y-84874348D01*
X47713917Y-84830483D01*
X47663123Y-84782511D01*
X47646328Y-84714690D01*
X47668865Y-84648555D01*
X47713917Y-84609516D01*
X47806610Y-84562287D01*
X47875650Y-84512127D01*
X47972213Y-84441971D01*
X47972215Y-84441968D01*
X47972219Y-84441966D01*
X48116966Y-84297219D01*
X48116968Y-84297215D01*
X48116971Y-84297213D01*
X48169732Y-84224590D01*
X48237287Y-84131610D01*
X48330220Y-83949219D01*
X48393477Y-83754534D01*
X48425500Y-83552352D01*
X48425500Y-83347648D01*
X48393477Y-83145466D01*
X48330220Y-82950781D01*
X48330218Y-82950778D01*
X48330218Y-82950776D01*
X48272334Y-82837174D01*
X48237287Y-82768390D01*
X48218320Y-82742284D01*
X48116971Y-82602786D01*
X47972213Y-82458028D01*
X47806614Y-82337715D01*
X47762722Y-82315351D01*
X47713917Y-82290483D01*
X47663123Y-82242511D01*
X47646328Y-82174690D01*
X47668865Y-82108555D01*
X47713917Y-82069516D01*
X47806610Y-82022287D01*
X47877040Y-81971117D01*
X47972213Y-81901971D01*
X47972215Y-81901968D01*
X47972219Y-81901966D01*
X48116966Y-81757219D01*
X48116968Y-81757215D01*
X48116971Y-81757213D01*
X48169732Y-81684590D01*
X48237287Y-81591610D01*
X48330220Y-81409219D01*
X48393477Y-81214534D01*
X48425500Y-81012352D01*
X48425500Y-80807648D01*
X48398635Y-80638034D01*
X48393477Y-80605465D01*
X48340529Y-80442510D01*
X48330220Y-80410781D01*
X48330218Y-80410778D01*
X48330218Y-80410776D01*
X48282686Y-80317490D01*
X48237287Y-80228390D01*
X48229556Y-80217749D01*
X48116971Y-80062786D01*
X47972213Y-79918028D01*
X47806614Y-79797715D01*
X47800006Y-79794348D01*
X47713917Y-79750483D01*
X47663123Y-79702511D01*
X47646328Y-79634690D01*
X47668865Y-79568555D01*
X47713917Y-79529516D01*
X47806610Y-79482287D01*
X47872337Y-79434534D01*
X47972213Y-79361971D01*
X47972215Y-79361968D01*
X47972219Y-79361966D01*
X48116966Y-79217219D01*
X48116968Y-79217215D01*
X48116971Y-79217213D01*
X48227814Y-79064648D01*
X48237287Y-79051610D01*
X48330220Y-78869219D01*
X48393477Y-78674534D01*
X48425500Y-78472352D01*
X48425500Y-78267648D01*
X48393477Y-78065466D01*
X48330220Y-77870781D01*
X48330218Y-77870778D01*
X48330218Y-77870776D01*
X48284080Y-77780227D01*
X48237287Y-77688390D01*
X48229556Y-77677749D01*
X48116971Y-77522786D01*
X47972213Y-77378028D01*
X47806611Y-77257713D01*
X47713369Y-77210203D01*
X47662574Y-77162229D01*
X47645779Y-77094407D01*
X47668317Y-77028273D01*
X47713371Y-76989234D01*
X47806346Y-76941861D01*
X47806347Y-76941861D01*
X47850921Y-76909474D01*
X47171447Y-76230000D01*
X47177661Y-76230000D01*
X47279394Y-76202741D01*
X47370606Y-76150080D01*
X47445080Y-76075606D01*
X47497741Y-75984394D01*
X47525000Y-75882661D01*
X47525000Y-75876447D01*
X48204474Y-76555921D01*
X48236859Y-76511349D01*
X48329755Y-76329031D01*
X48392990Y-76134417D01*
X48425000Y-75932317D01*
X48425000Y-75727682D01*
X48392990Y-75525582D01*
X48329755Y-75330968D01*
X48236859Y-75148650D01*
X48204474Y-75104077D01*
X48204474Y-75104076D01*
X47525000Y-75783551D01*
X47525000Y-75777339D01*
X47497741Y-75675606D01*
X47445080Y-75584394D01*
X47370606Y-75509920D01*
X47279394Y-75457259D01*
X47177661Y-75430000D01*
X47171446Y-75430000D01*
X47850922Y-74750524D01*
X47850921Y-74750523D01*
X47806359Y-74718147D01*
X47806350Y-74718141D01*
X47713369Y-74670765D01*
X47662573Y-74622790D01*
X47645778Y-74554969D01*
X47668315Y-74488835D01*
X47713370Y-74449795D01*
X47761554Y-74425244D01*
X47806610Y-74402287D01*
X47862719Y-74361522D01*
X47972213Y-74281971D01*
X47972215Y-74281968D01*
X47972219Y-74281966D01*
X48116966Y-74137219D01*
X48116968Y-74137215D01*
X48116971Y-74137213D01*
X48169732Y-74064590D01*
X48237287Y-73971610D01*
X48330220Y-73789219D01*
X48393477Y-73594534D01*
X48425500Y-73392352D01*
X48425500Y-73187648D01*
X48403781Y-73050523D01*
X48393477Y-72985465D01*
X48340229Y-72821585D01*
X48330220Y-72790781D01*
X48330218Y-72790778D01*
X48330218Y-72790776D01*
X48284640Y-72701326D01*
X48237287Y-72608390D01*
X48205092Y-72564077D01*
X48116971Y-72442786D01*
X47972213Y-72298028D01*
X47806614Y-72177715D01*
X47800006Y-72174348D01*
X47713917Y-72130483D01*
X47663123Y-72082511D01*
X47646328Y-72014690D01*
X47668865Y-71948555D01*
X47713917Y-71909516D01*
X47806610Y-71862287D01*
X47850900Y-71830109D01*
X47972213Y-71741971D01*
X47972215Y-71741968D01*
X47972219Y-71741966D01*
X48116966Y-71597219D01*
X48116968Y-71597215D01*
X48116971Y-71597213D01*
X48169732Y-71524590D01*
X48237287Y-71431610D01*
X48330220Y-71249219D01*
X48393477Y-71054534D01*
X48425500Y-70852352D01*
X48425500Y-70647648D01*
X48393477Y-70445466D01*
X48385620Y-70421286D01*
X48338559Y-70276446D01*
X48330220Y-70250781D01*
X48330218Y-70250778D01*
X48330218Y-70250776D01*
X48284080Y-70160227D01*
X48237287Y-70068390D01*
X48229556Y-70057749D01*
X48116971Y-69902786D01*
X47972213Y-69758028D01*
X47806614Y-69637715D01*
X47800006Y-69634348D01*
X47713917Y-69590483D01*
X47663123Y-69542511D01*
X47646328Y-69474690D01*
X47668865Y-69408555D01*
X47713917Y-69369516D01*
X47806610Y-69322287D01*
X47850900Y-69290109D01*
X47972213Y-69201971D01*
X47972215Y-69201968D01*
X47972219Y-69201966D01*
X48116966Y-69057219D01*
X48116968Y-69057215D01*
X48116971Y-69057213D01*
X48169732Y-68984590D01*
X48237287Y-68891610D01*
X48330220Y-68709219D01*
X48393477Y-68514534D01*
X48425500Y-68312352D01*
X48425500Y-68107648D01*
X48393477Y-67905466D01*
X48391913Y-67900654D01*
X48333472Y-67720791D01*
X48330220Y-67710781D01*
X48330218Y-67710778D01*
X48330218Y-67710776D01*
X48284080Y-67620227D01*
X48237287Y-67528390D01*
X48229556Y-67517749D01*
X48116971Y-67362786D01*
X47972213Y-67218028D01*
X47806614Y-67097715D01*
X47800006Y-67094348D01*
X47713917Y-67050483D01*
X47663123Y-67002511D01*
X47646328Y-66934690D01*
X47668865Y-66868555D01*
X47713917Y-66829516D01*
X47806610Y-66782287D01*
X47850900Y-66750109D01*
X47972213Y-66661971D01*
X47972215Y-66661968D01*
X47972219Y-66661966D01*
X48116966Y-66517219D01*
X48116968Y-66517215D01*
X48116971Y-66517213D01*
X48176925Y-66434692D01*
X48237287Y-66351610D01*
X48330220Y-66169219D01*
X48393477Y-65974534D01*
X48425500Y-65772352D01*
X48425500Y-65567648D01*
X48393477Y-65365466D01*
X48330220Y-65170781D01*
X48330218Y-65170778D01*
X48330218Y-65170776D01*
X48284080Y-65080227D01*
X48237287Y-64988390D01*
X48229556Y-64977749D01*
X48116971Y-64822786D01*
X47972213Y-64678028D01*
X47806614Y-64557715D01*
X47800006Y-64554348D01*
X47713917Y-64510483D01*
X47663123Y-64462511D01*
X47646328Y-64394690D01*
X47668865Y-64328555D01*
X47713917Y-64289516D01*
X47806610Y-64242287D01*
X47850900Y-64210109D01*
X47972213Y-64121971D01*
X47972215Y-64121968D01*
X47972219Y-64121966D01*
X48116966Y-63977219D01*
X48116968Y-63977215D01*
X48116971Y-63977213D01*
X48176925Y-63894692D01*
X48237287Y-63811610D01*
X48330220Y-63629219D01*
X48393477Y-63434534D01*
X48425500Y-63232352D01*
X48425500Y-63027648D01*
X48396859Y-62846819D01*
X48393477Y-62825465D01*
X48330218Y-62630776D01*
X48284080Y-62540227D01*
X48237287Y-62448390D01*
X48229556Y-62437749D01*
X48116971Y-62282786D01*
X47972213Y-62138028D01*
X47806614Y-62017715D01*
X47800006Y-62014348D01*
X47713917Y-61970483D01*
X47663123Y-61922511D01*
X47646328Y-61854690D01*
X47668865Y-61788555D01*
X47713917Y-61749516D01*
X47806610Y-61702287D01*
X47850900Y-61670109D01*
X47972213Y-61581971D01*
X47972215Y-61581968D01*
X47972219Y-61581966D01*
X48116966Y-61437219D01*
X48116968Y-61437215D01*
X48116971Y-61437213D01*
X48176925Y-61354692D01*
X48237287Y-61271610D01*
X48330220Y-61089219D01*
X48393477Y-60894534D01*
X48425500Y-60692352D01*
X48425500Y-60487648D01*
X48393477Y-60285466D01*
X48330220Y-60090781D01*
X48330218Y-60090778D01*
X48330218Y-60090776D01*
X48284080Y-60000227D01*
X48237287Y-59908390D01*
X48229556Y-59897749D01*
X48116971Y-59742786D01*
X47972219Y-59598034D01*
X47972211Y-59598028D01*
X47878547Y-59529978D01*
X47835882Y-59474649D01*
X47829903Y-59405036D01*
X47862508Y-59343240D01*
X47912426Y-59311955D01*
X47994334Y-59284814D01*
X48143656Y-59192712D01*
X48267712Y-59068656D01*
X48359814Y-58919334D01*
X48414999Y-58752797D01*
X48425500Y-58650009D01*
X48425499Y-57449992D01*
X48414999Y-57347203D01*
X48359814Y-57180666D01*
X48267712Y-57031344D01*
X48143656Y-56907288D01*
X47994334Y-56815186D01*
X47852999Y-56768352D01*
X47835496Y-56762552D01*
X47778051Y-56722779D01*
X47751228Y-56658263D01*
X47750500Y-56644846D01*
X47750500Y-56060452D01*
X47770185Y-55993413D01*
X47786819Y-55972771D01*
X47967772Y-55791819D01*
X48029095Y-55758334D01*
X48055453Y-55755500D01*
X48183394Y-55755500D01*
X55934548Y-55755500D01*
X55963988Y-55764144D01*
X55993975Y-55770668D01*
X55998990Y-55774422D01*
X56001587Y-55775185D01*
X56022229Y-55791819D01*
X56083181Y-55852771D01*
X56116666Y-55914094D01*
X56119500Y-55940452D01*
X56119500Y-57366514D01*
X56099815Y-57433553D01*
X56047011Y-57479308D01*
X55977853Y-57489252D01*
X55914297Y-57460227D01*
X55885015Y-57422809D01*
X55882601Y-57418073D01*
X55857287Y-57368390D01*
X55841892Y-57347200D01*
X55736971Y-57202786D01*
X55592213Y-57058028D01*
X55426613Y-56937715D01*
X55426612Y-56937714D01*
X55426610Y-56937713D01*
X55366898Y-56907288D01*
X55244223Y-56844781D01*
X55049534Y-56781522D01*
X54863799Y-56752105D01*
X54847352Y-56749500D01*
X54642648Y-56749500D01*
X54626201Y-56752105D01*
X54440465Y-56781522D01*
X54245776Y-56844781D01*
X54063386Y-56937715D01*
X53897786Y-57058028D01*
X53753028Y-57202786D01*
X53632715Y-57368386D01*
X53539781Y-57550776D01*
X53476522Y-57745465D01*
X53444500Y-57947648D01*
X53444500Y-58152351D01*
X53476522Y-58354534D01*
X53539781Y-58549223D01*
X53582028Y-58632136D01*
X53619180Y-58705051D01*
X53632715Y-58731613D01*
X53753028Y-58897213D01*
X53897786Y-59041971D01*
X54040228Y-59145459D01*
X54063390Y-59162287D01*
X54154840Y-59208883D01*
X54156080Y-59209515D01*
X54206876Y-59257490D01*
X54223671Y-59325311D01*
X54201134Y-59391446D01*
X54156080Y-59430485D01*
X54063386Y-59477715D01*
X53897786Y-59598028D01*
X53753028Y-59742786D01*
X53632715Y-59908386D01*
X53539781Y-60090776D01*
X53476522Y-60285465D01*
X53444500Y-60487648D01*
X53444500Y-60692351D01*
X53476522Y-60894534D01*
X53539781Y-61089223D01*
X53582028Y-61172136D01*
X53619180Y-61245051D01*
X53632715Y-61271613D01*
X53753028Y-61437213D01*
X53897786Y-61581971D01*
X54019100Y-61670109D01*
X54063390Y-61702287D01*
X54154840Y-61748883D01*
X54156080Y-61749515D01*
X54206876Y-61797490D01*
X54223671Y-61865311D01*
X54201134Y-61931446D01*
X54156080Y-61970485D01*
X54063386Y-62017715D01*
X53897786Y-62138028D01*
X53753028Y-62282786D01*
X53632715Y-62448386D01*
X53539781Y-62630776D01*
X53476522Y-62825465D01*
X53444500Y-63027648D01*
X53444500Y-63232351D01*
X53476522Y-63434534D01*
X53539781Y-63629223D01*
X53582028Y-63712136D01*
X53619180Y-63785051D01*
X53632715Y-63811613D01*
X53753028Y-63977213D01*
X53897786Y-64121971D01*
X54019100Y-64210109D01*
X54063390Y-64242287D01*
X54154840Y-64288883D01*
X54156080Y-64289515D01*
X54206876Y-64337490D01*
X54223671Y-64405311D01*
X54201134Y-64471446D01*
X54156080Y-64510485D01*
X54063386Y-64557715D01*
X53897786Y-64678028D01*
X53753028Y-64822786D01*
X53632715Y-64988386D01*
X53539781Y-65170776D01*
X53476522Y-65365465D01*
X53444500Y-65567648D01*
X53444500Y-65772351D01*
X53476522Y-65974534D01*
X53539781Y-66169223D01*
X53582028Y-66252136D01*
X53619180Y-66325051D01*
X53632715Y-66351613D01*
X53753028Y-66517213D01*
X53897786Y-66661971D01*
X54019100Y-66750109D01*
X54063390Y-66782287D01*
X54154840Y-66828883D01*
X54156080Y-66829515D01*
X54206876Y-66877490D01*
X54223671Y-66945311D01*
X54201134Y-67011446D01*
X54156080Y-67050485D01*
X54063386Y-67097715D01*
X53897786Y-67218028D01*
X53753028Y-67362786D01*
X53632715Y-67528386D01*
X53539781Y-67710776D01*
X53476522Y-67905465D01*
X53444500Y-68107648D01*
X53444500Y-68312351D01*
X53476522Y-68514534D01*
X53539781Y-68709223D01*
X53582028Y-68792136D01*
X53632032Y-68890274D01*
X53632715Y-68891613D01*
X53753028Y-69057213D01*
X53897786Y-69201971D01*
X54052749Y-69314556D01*
X54063390Y-69322287D01*
X54140395Y-69361523D01*
X54156080Y-69369515D01*
X54206876Y-69417490D01*
X54223671Y-69485311D01*
X54201134Y-69551446D01*
X54156080Y-69590485D01*
X54063386Y-69637715D01*
X53897786Y-69758028D01*
X53753028Y-69902786D01*
X53632715Y-70068386D01*
X53539781Y-70250776D01*
X53476522Y-70445465D01*
X53444500Y-70647648D01*
X53444500Y-70852351D01*
X53476522Y-71054534D01*
X53539781Y-71249223D01*
X53582028Y-71332136D01*
X53624570Y-71415629D01*
X53632715Y-71431613D01*
X53753028Y-71597213D01*
X53897786Y-71741971D01*
X54063385Y-71862284D01*
X54063387Y-71862285D01*
X54063390Y-71862287D01*
X54134417Y-71898477D01*
X54156630Y-71909795D01*
X54207426Y-71957770D01*
X54224221Y-72025591D01*
X54201684Y-72091725D01*
X54156630Y-72130765D01*
X54063644Y-72178143D01*
X54019077Y-72210523D01*
X54019077Y-72210524D01*
X54698554Y-72890000D01*
X54692339Y-72890000D01*
X54590606Y-72917259D01*
X54499394Y-72969920D01*
X54424920Y-73044394D01*
X54372259Y-73135606D01*
X54345000Y-73237339D01*
X54345000Y-73243553D01*
X53665524Y-72564077D01*
X53665523Y-72564077D01*
X53633143Y-72608644D01*
X53540244Y-72790968D01*
X53477009Y-72985582D01*
X53445000Y-73187682D01*
X53445000Y-73392317D01*
X53477009Y-73594417D01*
X53540244Y-73789031D01*
X53633141Y-73971350D01*
X53633147Y-73971359D01*
X53665523Y-74015921D01*
X53665524Y-74015922D01*
X54345000Y-73336446D01*
X54345000Y-73342661D01*
X54372259Y-73444394D01*
X54424920Y-73535606D01*
X54499394Y-73610080D01*
X54590606Y-73662741D01*
X54692339Y-73690000D01*
X54698553Y-73690000D01*
X54019076Y-74369474D01*
X54063652Y-74401861D01*
X54156628Y-74449234D01*
X54207425Y-74497208D01*
X54224220Y-74565029D01*
X54201683Y-74631164D01*
X54156630Y-74670203D01*
X54063388Y-74717713D01*
X53897786Y-74838028D01*
X53753028Y-74982786D01*
X53632715Y-75148386D01*
X53539781Y-75330776D01*
X53476522Y-75525465D01*
X53444500Y-75727648D01*
X53444500Y-75932351D01*
X53476522Y-76134534D01*
X53539781Y-76329223D01*
X53582028Y-76412136D01*
X53632585Y-76511359D01*
X53632715Y-76511613D01*
X53753028Y-76677213D01*
X53897786Y-76821971D01*
X54019100Y-76910109D01*
X54063390Y-76942287D01*
X54154840Y-76988883D01*
X54156080Y-76989515D01*
X54206876Y-77037490D01*
X54223671Y-77105311D01*
X54201134Y-77171446D01*
X54156080Y-77210485D01*
X54063386Y-77257715D01*
X53897786Y-77378028D01*
X53753028Y-77522786D01*
X53632715Y-77688386D01*
X53539781Y-77870776D01*
X53476522Y-78065465D01*
X53444500Y-78267648D01*
X53444500Y-78472351D01*
X53476522Y-78674534D01*
X53539781Y-78869223D01*
X53632715Y-79051613D01*
X53753028Y-79217213D01*
X53897786Y-79361971D01*
X54046078Y-79469709D01*
X54063390Y-79482287D01*
X54154840Y-79528883D01*
X54156080Y-79529515D01*
X54206876Y-79577490D01*
X54223671Y-79645311D01*
X54201134Y-79711446D01*
X54156080Y-79750485D01*
X54063386Y-79797715D01*
X53897786Y-79918028D01*
X53753028Y-80062786D01*
X53632715Y-80228386D01*
X53539781Y-80410776D01*
X53476522Y-80605465D01*
X53448438Y-80782786D01*
X53444500Y-80807648D01*
X53444500Y-81012352D01*
X53448878Y-81039995D01*
X53476522Y-81214534D01*
X53539781Y-81409223D01*
X53632715Y-81591613D01*
X53753028Y-81757213D01*
X53897786Y-81901971D01*
X54052749Y-82014556D01*
X54063390Y-82022287D01*
X54138340Y-82060476D01*
X54156080Y-82069515D01*
X54206876Y-82117490D01*
X54223671Y-82185311D01*
X54201134Y-82251446D01*
X54156080Y-82290485D01*
X54063386Y-82337715D01*
X53897786Y-82458028D01*
X53753028Y-82602786D01*
X53632715Y-82768386D01*
X53539781Y-82950776D01*
X53476522Y-83145465D01*
X53444500Y-83347648D01*
X53444500Y-83552351D01*
X53476522Y-83754534D01*
X53539781Y-83949223D01*
X53599236Y-84065908D01*
X53624864Y-84116206D01*
X53632715Y-84131613D01*
X53753028Y-84297213D01*
X53897786Y-84441971D01*
X54042520Y-84547124D01*
X54063390Y-84562287D01*
X54154840Y-84608883D01*
X54156080Y-84609515D01*
X54206876Y-84657490D01*
X54223671Y-84725311D01*
X54201134Y-84791446D01*
X54156080Y-84830485D01*
X54063386Y-84877715D01*
X53897786Y-84998028D01*
X53753028Y-85142786D01*
X53632715Y-85308386D01*
X53539781Y-85490776D01*
X53476522Y-85685465D01*
X53444500Y-85887648D01*
X53444500Y-86092351D01*
X53476522Y-86294534D01*
X53539781Y-86489223D01*
X53584679Y-86577339D01*
X53630610Y-86667483D01*
X53632715Y-86671613D01*
X53753028Y-86837213D01*
X53897786Y-86981971D01*
X54052749Y-87094556D01*
X54063390Y-87102287D01*
X54123654Y-87132993D01*
X54156080Y-87149515D01*
X54206876Y-87197490D01*
X54223671Y-87265311D01*
X54201134Y-87331446D01*
X54156080Y-87370485D01*
X54063386Y-87417715D01*
X53897786Y-87538028D01*
X53753028Y-87682786D01*
X53632715Y-87848386D01*
X53539781Y-88030776D01*
X53476522Y-88225465D01*
X53444500Y-88427648D01*
X53444500Y-88632351D01*
X53476522Y-88834534D01*
X53539781Y-89029223D01*
X53632715Y-89211613D01*
X53753028Y-89377213D01*
X53897786Y-89521971D01*
X54052749Y-89634556D01*
X54063390Y-89642287D01*
X54154840Y-89688883D01*
X54156080Y-89689515D01*
X54206876Y-89737490D01*
X54223671Y-89805311D01*
X54201134Y-89871446D01*
X54156080Y-89910485D01*
X54063386Y-89957715D01*
X53897786Y-90078028D01*
X53753028Y-90222786D01*
X53632715Y-90388386D01*
X53539781Y-90570776D01*
X53476522Y-90765465D01*
X53444500Y-90967648D01*
X53444500Y-91172351D01*
X53476522Y-91374534D01*
X53539781Y-91569223D01*
X53601763Y-91690868D01*
X53604605Y-91696446D01*
X53632715Y-91751613D01*
X53753028Y-91917213D01*
X53897786Y-92061971D01*
X54052749Y-92174556D01*
X54063390Y-92182287D01*
X54179607Y-92241503D01*
X54245776Y-92275218D01*
X54245778Y-92275218D01*
X54245781Y-92275220D01*
X54350137Y-92309127D01*
X54440465Y-92338477D01*
X54541557Y-92354488D01*
X54642648Y-92370500D01*
X54642649Y-92370500D01*
X54847351Y-92370500D01*
X54847352Y-92370500D01*
X55049534Y-92338477D01*
X55244219Y-92275220D01*
X55426610Y-92182287D01*
X55519590Y-92114732D01*
X55592213Y-92061971D01*
X55592215Y-92061968D01*
X55592219Y-92061966D01*
X55736966Y-91917219D01*
X55736968Y-91917215D01*
X55736971Y-91917213D01*
X55789732Y-91844590D01*
X55857287Y-91751610D01*
X55950220Y-91569219D01*
X55963727Y-91527648D01*
X57944500Y-91527648D01*
X57944500Y-91732351D01*
X57976522Y-91934534D01*
X58039781Y-92129223D01*
X58103691Y-92254653D01*
X58121257Y-92289127D01*
X58132715Y-92311613D01*
X58253028Y-92477213D01*
X58397786Y-92621971D01*
X58552749Y-92734556D01*
X58563390Y-92742287D01*
X58679607Y-92801503D01*
X58745776Y-92835218D01*
X58745778Y-92835218D01*
X58745781Y-92835220D01*
X58850137Y-92869127D01*
X58940465Y-92898477D01*
X59041557Y-92914488D01*
X59142648Y-92930500D01*
X59142649Y-92930500D01*
X59347351Y-92930500D01*
X59347352Y-92930500D01*
X59549534Y-92898477D01*
X59744219Y-92835220D01*
X59926610Y-92742287D01*
X60084996Y-92627214D01*
X60092213Y-92621971D01*
X60092215Y-92621968D01*
X60092219Y-92621966D01*
X60236966Y-92477219D01*
X60236968Y-92477215D01*
X60236971Y-92477213D01*
X60312273Y-92373567D01*
X60357287Y-92311610D01*
X60450220Y-92129219D01*
X60513477Y-91934534D01*
X60545500Y-91732352D01*
X60545500Y-91527648D01*
X68104500Y-91527648D01*
X68104500Y-91732351D01*
X68136522Y-91934534D01*
X68199781Y-92129223D01*
X68263691Y-92254653D01*
X68281257Y-92289127D01*
X68292715Y-92311613D01*
X68413028Y-92477213D01*
X68557786Y-92621971D01*
X68712749Y-92734556D01*
X68723390Y-92742287D01*
X68839607Y-92801503D01*
X68905776Y-92835218D01*
X68905778Y-92835218D01*
X68905781Y-92835220D01*
X69010137Y-92869127D01*
X69100465Y-92898477D01*
X69201557Y-92914488D01*
X69302648Y-92930500D01*
X69302649Y-92930500D01*
X69507351Y-92930500D01*
X69507352Y-92930500D01*
X69709534Y-92898477D01*
X69904219Y-92835220D01*
X70086610Y-92742287D01*
X70244996Y-92627214D01*
X70252213Y-92621971D01*
X70252215Y-92621968D01*
X70252219Y-92621966D01*
X70396966Y-92477219D01*
X70396968Y-92477215D01*
X70396971Y-92477213D01*
X70472273Y-92373567D01*
X70517287Y-92311610D01*
X70610220Y-92129219D01*
X70673477Y-91934534D01*
X70680690Y-91888992D01*
X73134500Y-91888992D01*
X73134500Y-92091007D01*
X73173907Y-92289119D01*
X73173909Y-92289127D01*
X73251213Y-92475755D01*
X73304904Y-92556109D01*
X73325782Y-92622787D01*
X73307297Y-92690167D01*
X73304904Y-92693891D01*
X73251213Y-92774244D01*
X73173909Y-92960872D01*
X73173907Y-92960880D01*
X73134500Y-93158992D01*
X73134500Y-93361007D01*
X73173907Y-93559119D01*
X73173909Y-93559127D01*
X73251212Y-93745752D01*
X73251217Y-93745762D01*
X73363441Y-93913718D01*
X73506281Y-94056558D01*
X73674237Y-94168782D01*
X73674241Y-94168784D01*
X73674244Y-94168786D01*
X73860873Y-94246091D01*
X74058992Y-94285499D01*
X74058996Y-94285500D01*
X74058997Y-94285500D01*
X74711004Y-94285500D01*
X74711005Y-94285499D01*
X74909127Y-94246091D01*
X75095756Y-94168786D01*
X75263718Y-94056558D01*
X75406558Y-93913718D01*
X75518786Y-93745756D01*
X75596091Y-93559127D01*
X75635500Y-93361003D01*
X75635500Y-93158997D01*
X75635292Y-93157953D01*
X75616053Y-93061227D01*
X75612209Y-93041902D01*
X84359500Y-93041902D01*
X84359500Y-93278097D01*
X84396446Y-93511368D01*
X84469433Y-93735996D01*
X84559988Y-93913718D01*
X84576657Y-93946433D01*
X84715483Y-94137510D01*
X84882490Y-94304517D01*
X85073567Y-94443343D01*
X85172991Y-94494002D01*
X85284003Y-94550566D01*
X85284005Y-94550566D01*
X85284008Y-94550568D01*
X85404412Y-94589689D01*
X85508631Y-94623553D01*
X85741903Y-94660500D01*
X85741908Y-94660500D01*
X85978097Y-94660500D01*
X86211368Y-94623553D01*
X86435992Y-94550568D01*
X86646433Y-94443343D01*
X86837510Y-94304517D01*
X87004517Y-94137510D01*
X87143343Y-93946433D01*
X87250568Y-93735992D01*
X87323553Y-93511368D01*
X87347368Y-93361007D01*
X87360500Y-93278097D01*
X87360500Y-93041902D01*
X87323553Y-92808631D01*
X87285061Y-92690167D01*
X87250568Y-92584008D01*
X87250566Y-92584005D01*
X87250566Y-92584003D01*
X87143342Y-92373566D01*
X87004517Y-92182490D01*
X86837510Y-92015483D01*
X86646433Y-91876657D01*
X86620625Y-91863507D01*
X86435996Y-91769433D01*
X86211368Y-91696446D01*
X85978097Y-91659500D01*
X85978092Y-91659500D01*
X85741908Y-91659500D01*
X85741903Y-91659500D01*
X85508631Y-91696446D01*
X85284003Y-91769433D01*
X85073566Y-91876657D01*
X85017738Y-91917219D01*
X84882490Y-92015483D01*
X84882488Y-92015485D01*
X84882487Y-92015485D01*
X84715485Y-92182487D01*
X84715485Y-92182488D01*
X84715483Y-92182490D01*
X84655862Y-92264550D01*
X84576657Y-92373566D01*
X84469433Y-92584003D01*
X84396446Y-92808631D01*
X84359500Y-93041902D01*
X75612209Y-93041902D01*
X75596092Y-92960880D01*
X75596091Y-92960873D01*
X75518786Y-92774244D01*
X75465094Y-92693889D01*
X75444217Y-92627214D01*
X75462701Y-92559834D01*
X75465078Y-92556134D01*
X75518786Y-92475756D01*
X75596091Y-92289127D01*
X75635500Y-92091003D01*
X75635500Y-91888997D01*
X75596091Y-91690873D01*
X75562451Y-91609661D01*
X75554983Y-91540194D01*
X75574592Y-91495144D01*
X75574101Y-91494876D01*
X75577102Y-91489379D01*
X75577748Y-91487896D01*
X75578352Y-91487089D01*
X75628597Y-91352376D01*
X75628598Y-91352372D01*
X75634999Y-91292844D01*
X75635000Y-91292827D01*
X75635000Y-90970000D01*
X74750866Y-90970000D01*
X74726674Y-90967617D01*
X74711004Y-90964500D01*
X74711003Y-90964500D01*
X74670830Y-90964500D01*
X74685075Y-90950255D01*
X74734444Y-90864745D01*
X74760000Y-90769370D01*
X74760000Y-90670630D01*
X74734444Y-90575255D01*
X74685075Y-90489745D01*
X74665330Y-90470000D01*
X75635000Y-90470000D01*
X75635000Y-90147172D01*
X75634999Y-90147155D01*
X75628598Y-90087627D01*
X75628596Y-90087620D01*
X75578354Y-89952913D01*
X75578350Y-89952906D01*
X75492190Y-89837812D01*
X75492187Y-89837809D01*
X75377093Y-89751649D01*
X75377086Y-89751645D01*
X75242379Y-89701403D01*
X75242372Y-89701401D01*
X75182844Y-89695000D01*
X74635000Y-89695000D01*
X74635000Y-90439670D01*
X74615255Y-90419925D01*
X74529745Y-90370556D01*
X74434370Y-90345000D01*
X74335630Y-90345000D01*
X74240255Y-90370556D01*
X74154745Y-90419925D01*
X74135000Y-90439670D01*
X74135000Y-89695000D01*
X73587155Y-89695000D01*
X73527627Y-89701401D01*
X73527620Y-89701403D01*
X73392913Y-89751645D01*
X73392906Y-89751649D01*
X73277812Y-89837809D01*
X73277809Y-89837812D01*
X73191649Y-89952906D01*
X73191645Y-89952913D01*
X73141403Y-90087620D01*
X73141401Y-90087627D01*
X73135000Y-90147155D01*
X73135000Y-90470000D01*
X74104670Y-90470000D01*
X74084925Y-90489745D01*
X74035556Y-90575255D01*
X74010000Y-90670630D01*
X74010000Y-90769370D01*
X74035556Y-90864745D01*
X74084925Y-90950255D01*
X74099170Y-90964500D01*
X74058997Y-90964500D01*
X74058996Y-90964500D01*
X74043326Y-90967617D01*
X74019134Y-90970000D01*
X73135000Y-90970000D01*
X73135000Y-91292844D01*
X73141401Y-91352372D01*
X73141403Y-91352378D01*
X73191645Y-91487086D01*
X73192251Y-91487895D01*
X73192604Y-91488841D01*
X73195897Y-91494872D01*
X73195030Y-91495345D01*
X73216670Y-91553359D01*
X73207547Y-91609661D01*
X73173910Y-91690868D01*
X73173907Y-91690880D01*
X73134500Y-91888992D01*
X70680690Y-91888992D01*
X70684727Y-91863507D01*
X70705500Y-91732351D01*
X70705500Y-91527648D01*
X70673477Y-91325465D01*
X70629324Y-91189577D01*
X70610220Y-91130781D01*
X70610218Y-91130778D01*
X70610218Y-91130776D01*
X70542929Y-90998716D01*
X70517287Y-90948390D01*
X70455186Y-90862914D01*
X70396971Y-90782786D01*
X70252213Y-90638028D01*
X70086613Y-90517715D01*
X70086612Y-90517714D01*
X70086610Y-90517713D01*
X70029653Y-90488691D01*
X69904223Y-90424781D01*
X69709534Y-90361522D01*
X69534995Y-90333878D01*
X69507352Y-90329500D01*
X69302648Y-90329500D01*
X69278329Y-90333351D01*
X69100465Y-90361522D01*
X68905776Y-90424781D01*
X68723386Y-90517715D01*
X68557786Y-90638028D01*
X68413028Y-90782786D01*
X68292715Y-90948386D01*
X68199781Y-91130776D01*
X68136522Y-91325465D01*
X68104500Y-91527648D01*
X60545500Y-91527648D01*
X60539439Y-91489379D01*
X60513477Y-91325465D01*
X60469324Y-91189577D01*
X60450220Y-91130781D01*
X60450218Y-91130778D01*
X60450218Y-91130776D01*
X60382929Y-90998716D01*
X60357287Y-90948390D01*
X60295186Y-90862914D01*
X60236971Y-90782786D01*
X60092213Y-90638028D01*
X59926613Y-90517715D01*
X59926612Y-90517714D01*
X59926610Y-90517713D01*
X59869653Y-90488691D01*
X59744223Y-90424781D01*
X59549534Y-90361522D01*
X59374995Y-90333878D01*
X59347352Y-90329500D01*
X59142648Y-90329500D01*
X59118329Y-90333351D01*
X58940465Y-90361522D01*
X58745776Y-90424781D01*
X58563386Y-90517715D01*
X58397786Y-90638028D01*
X58253028Y-90782786D01*
X58132715Y-90948386D01*
X58039781Y-91130776D01*
X57976522Y-91325465D01*
X57944500Y-91527648D01*
X55963727Y-91527648D01*
X55976162Y-91489379D01*
X55977761Y-91484457D01*
X55977761Y-91484456D01*
X56013476Y-91374538D01*
X56013476Y-91374537D01*
X56013477Y-91374534D01*
X56045500Y-91172352D01*
X56045500Y-90967648D01*
X56042449Y-90948386D01*
X56013477Y-90765465D01*
X55956801Y-90591036D01*
X55950220Y-90570781D01*
X55950218Y-90570778D01*
X55950218Y-90570776D01*
X55875829Y-90424781D01*
X55857287Y-90388390D01*
X55736970Y-90222786D01*
X55736969Y-90222784D01*
X55592213Y-90078028D01*
X55426614Y-89957715D01*
X55409184Y-89948834D01*
X55333917Y-89910483D01*
X55283123Y-89862511D01*
X55266328Y-89794690D01*
X55288865Y-89728555D01*
X55333917Y-89689516D01*
X55426610Y-89642287D01*
X55447770Y-89626913D01*
X55592213Y-89521971D01*
X55592215Y-89521968D01*
X55592219Y-89521966D01*
X55736966Y-89377219D01*
X55736968Y-89377215D01*
X55736971Y-89377213D01*
X55789732Y-89304590D01*
X55857287Y-89211610D01*
X55950220Y-89029219D01*
X56013477Y-88834534D01*
X56045500Y-88632352D01*
X56045500Y-88427648D01*
X56013477Y-88225466D01*
X56005760Y-88201717D01*
X55961501Y-88065500D01*
X55950220Y-88030781D01*
X55950218Y-88030778D01*
X55950218Y-88030776D01*
X55912632Y-87957011D01*
X55857287Y-87848390D01*
X55817447Y-87793554D01*
X55736971Y-87682786D01*
X55592213Y-87538028D01*
X55426614Y-87417715D01*
X55388341Y-87398214D01*
X55333917Y-87370483D01*
X55283123Y-87322511D01*
X55266328Y-87254690D01*
X55288865Y-87188555D01*
X55333917Y-87149516D01*
X55426610Y-87102287D01*
X55448413Y-87086446D01*
X55592213Y-86981971D01*
X55592215Y-86981968D01*
X55592219Y-86981966D01*
X55736966Y-86837219D01*
X55736968Y-86837215D01*
X55736971Y-86837213D01*
X55849258Y-86682661D01*
X55857287Y-86671610D01*
X55885015Y-86617191D01*
X55886175Y-86615961D01*
X55886532Y-86614307D01*
X55910071Y-86590659D01*
X55932989Y-86566394D01*
X55934632Y-86565987D01*
X55935825Y-86564789D01*
X55968408Y-86557622D01*
X56000810Y-86549599D01*
X56002410Y-86550144D01*
X56004064Y-86549781D01*
X56035374Y-86561377D01*
X56066945Y-86572136D01*
X56067996Y-86573460D01*
X56069584Y-86574048D01*
X56089655Y-86600732D01*
X56110397Y-86626851D01*
X56110891Y-86628966D01*
X56111583Y-86629886D01*
X56113242Y-86639022D01*
X56119164Y-86664357D01*
X56119500Y-86668908D01*
X56119500Y-86762607D01*
X56129011Y-86810423D01*
X56143102Y-86881265D01*
X56143537Y-86883451D01*
X56143538Y-86883455D01*
X56149652Y-86898216D01*
X56190685Y-86997281D01*
X56190687Y-86997285D01*
X56208189Y-87023477D01*
X56212213Y-87029499D01*
X56259142Y-87099733D01*
X56346267Y-87186858D01*
X56346270Y-87186860D01*
X56354103Y-87194693D01*
X56995016Y-87835606D01*
X56995045Y-87835637D01*
X57085264Y-87925856D01*
X57085267Y-87925858D01*
X57151965Y-87970424D01*
X57187715Y-87994312D01*
X57254397Y-88021932D01*
X57258850Y-88023776D01*
X57258855Y-88023779D01*
X57292914Y-88037886D01*
X57301548Y-88041463D01*
X57326583Y-88046442D01*
X57349167Y-88050935D01*
X57349187Y-88050938D01*
X57349209Y-88050943D01*
X57422391Y-88065499D01*
X57422392Y-88065500D01*
X57422393Y-88065500D01*
X57422394Y-88065500D01*
X58792019Y-88065500D01*
X58859058Y-88085185D01*
X58902503Y-88133203D01*
X58909950Y-88147819D01*
X59034890Y-88319786D01*
X59185213Y-88470109D01*
X59357179Y-88595048D01*
X59357181Y-88595049D01*
X59357184Y-88595051D01*
X59546588Y-88691557D01*
X59748757Y-88757246D01*
X59958713Y-88790500D01*
X59958714Y-88790500D01*
X60171286Y-88790500D01*
X60171287Y-88790500D01*
X60381243Y-88757246D01*
X60583412Y-88691557D01*
X60772816Y-88595051D01*
X60827572Y-88555269D01*
X60944786Y-88470109D01*
X60944788Y-88470106D01*
X60944792Y-88470104D01*
X61095104Y-88319792D01*
X61095106Y-88319788D01*
X61095109Y-88319786D01*
X61180890Y-88201717D01*
X61220051Y-88147816D01*
X61224793Y-88138508D01*
X61272763Y-88087711D01*
X61340583Y-88070911D01*
X61406719Y-88093445D01*
X61445763Y-88138500D01*
X61450373Y-88147547D01*
X61489728Y-88201716D01*
X62122037Y-87569408D01*
X62139075Y-87632993D01*
X62204901Y-87747007D01*
X62297993Y-87840099D01*
X62412007Y-87905925D01*
X62475590Y-87922962D01*
X61843282Y-88555269D01*
X61843282Y-88555270D01*
X61897449Y-88594624D01*
X62086782Y-88691095D01*
X62288870Y-88756757D01*
X62498754Y-88790000D01*
X62711246Y-88790000D01*
X62921127Y-88756757D01*
X62921130Y-88756757D01*
X63123217Y-88691095D01*
X63312554Y-88594622D01*
X63366716Y-88555270D01*
X63366717Y-88555270D01*
X62734408Y-87922962D01*
X62797993Y-87905925D01*
X62912007Y-87840099D01*
X63005099Y-87747007D01*
X63070925Y-87632993D01*
X63087962Y-87569408D01*
X63720270Y-88201717D01*
X63720270Y-88201716D01*
X63759622Y-88147554D01*
X63856095Y-87958217D01*
X63921757Y-87756130D01*
X63921757Y-87756127D01*
X63955000Y-87546246D01*
X63955000Y-87333753D01*
X63921757Y-87123872D01*
X63921757Y-87123869D01*
X63856095Y-86921782D01*
X63759624Y-86732449D01*
X63720270Y-86678282D01*
X63720269Y-86678282D01*
X63087962Y-87310590D01*
X63070925Y-87247007D01*
X63005099Y-87132993D01*
X62912007Y-87039901D01*
X62797993Y-86974075D01*
X62734409Y-86957037D01*
X63366716Y-86324728D01*
X63312547Y-86285373D01*
X63312547Y-86285372D01*
X63303500Y-86280763D01*
X63252706Y-86232788D01*
X63235912Y-86164966D01*
X63258451Y-86098832D01*
X63303508Y-86059793D01*
X63312816Y-86055051D01*
X63392007Y-85997515D01*
X63484786Y-85930109D01*
X63484788Y-85930106D01*
X63484792Y-85930104D01*
X63635104Y-85779792D01*
X63635106Y-85779788D01*
X63635109Y-85779786D01*
X63760048Y-85607820D01*
X63760047Y-85607820D01*
X63760051Y-85607816D01*
X63856557Y-85418412D01*
X63922246Y-85216243D01*
X63955500Y-85006287D01*
X63955500Y-84793713D01*
X63922246Y-84583757D01*
X63898974Y-84512135D01*
X84359500Y-84512135D01*
X84359500Y-86607870D01*
X84359501Y-86607876D01*
X84365908Y-86667483D01*
X84416202Y-86802328D01*
X84416206Y-86802335D01*
X84502452Y-86917544D01*
X84502455Y-86917547D01*
X84617664Y-87003793D01*
X84617671Y-87003797D01*
X84752517Y-87054091D01*
X84752516Y-87054091D01*
X84759444Y-87054835D01*
X84812127Y-87060500D01*
X86907872Y-87060499D01*
X86967483Y-87054091D01*
X87102331Y-87003796D01*
X87217546Y-86917546D01*
X87303796Y-86802331D01*
X87354091Y-86667483D01*
X87360500Y-86607873D01*
X87360499Y-84512128D01*
X87354091Y-84452517D01*
X87327636Y-84381588D01*
X87303797Y-84317671D01*
X87303793Y-84317664D01*
X87217547Y-84202455D01*
X87217544Y-84202452D01*
X87102335Y-84116206D01*
X87102328Y-84116202D01*
X86967482Y-84065908D01*
X86967483Y-84065908D01*
X86907883Y-84059501D01*
X86907881Y-84059500D01*
X86907873Y-84059500D01*
X86907864Y-84059500D01*
X84812129Y-84059500D01*
X84812123Y-84059501D01*
X84752516Y-84065908D01*
X84617671Y-84116202D01*
X84617664Y-84116206D01*
X84502455Y-84202452D01*
X84502452Y-84202455D01*
X84416206Y-84317664D01*
X84416202Y-84317671D01*
X84365908Y-84452517D01*
X84359501Y-84512116D01*
X84359501Y-84512123D01*
X84359500Y-84512135D01*
X63898974Y-84512135D01*
X63856557Y-84381588D01*
X63760051Y-84192184D01*
X63760049Y-84192181D01*
X63760048Y-84192179D01*
X63635109Y-84020213D01*
X63484786Y-83869890D01*
X63312820Y-83744951D01*
X63312115Y-83744591D01*
X63304054Y-83740485D01*
X63253259Y-83692512D01*
X63236463Y-83624692D01*
X63258999Y-83558556D01*
X63304054Y-83519515D01*
X63312816Y-83515051D01*
X63399138Y-83452335D01*
X63484786Y-83390109D01*
X63484788Y-83390106D01*
X63484792Y-83390104D01*
X63635104Y-83239792D01*
X63635106Y-83239788D01*
X63635109Y-83239786D01*
X63760048Y-83067820D01*
X63760047Y-83067820D01*
X63760051Y-83067816D01*
X63856557Y-82878412D01*
X63922246Y-82676243D01*
X63955500Y-82466287D01*
X63955500Y-82253713D01*
X63922246Y-82043757D01*
X63856557Y-81841588D01*
X63760051Y-81652184D01*
X63760049Y-81652181D01*
X63760048Y-81652179D01*
X63635109Y-81480213D01*
X63484786Y-81329890D01*
X63312820Y-81204951D01*
X63123414Y-81108444D01*
X63123413Y-81108443D01*
X63123412Y-81108443D01*
X62921243Y-81042754D01*
X62921241Y-81042753D01*
X62921240Y-81042753D01*
X62759957Y-81017208D01*
X62711287Y-81009500D01*
X62498713Y-81009500D01*
X62450042Y-81017208D01*
X62288760Y-81042753D01*
X62086585Y-81108444D01*
X61897179Y-81204951D01*
X61725215Y-81329889D01*
X61611673Y-81443431D01*
X61550350Y-81476915D01*
X61480658Y-81471931D01*
X61424725Y-81430059D01*
X61407810Y-81399082D01*
X61358797Y-81267671D01*
X61358793Y-81267664D01*
X61272547Y-81152455D01*
X61272544Y-81152452D01*
X61157335Y-81066206D01*
X61157328Y-81066202D01*
X61022482Y-81015908D01*
X61022483Y-81015908D01*
X60962883Y-81009501D01*
X60962881Y-81009500D01*
X60962873Y-81009500D01*
X60962864Y-81009500D01*
X59167129Y-81009500D01*
X59167123Y-81009501D01*
X59107516Y-81015908D01*
X58972671Y-81066202D01*
X58972664Y-81066206D01*
X58857455Y-81152452D01*
X58857452Y-81152455D01*
X58771206Y-81267664D01*
X58771202Y-81267671D01*
X58720908Y-81402517D01*
X58714501Y-81462116D01*
X58714500Y-81462135D01*
X58714500Y-83257870D01*
X58714501Y-83257876D01*
X58720908Y-83317483D01*
X58771202Y-83452328D01*
X58771206Y-83452335D01*
X58857452Y-83567544D01*
X58857455Y-83567547D01*
X58972664Y-83653793D01*
X58972671Y-83653797D01*
X59104082Y-83702810D01*
X59160016Y-83744681D01*
X59184433Y-83810145D01*
X59169582Y-83878418D01*
X59148431Y-83906673D01*
X59034889Y-84020215D01*
X58909951Y-84192179D01*
X58813444Y-84381585D01*
X58747753Y-84583760D01*
X58714500Y-84793713D01*
X58714500Y-85006286D01*
X58736118Y-85142781D01*
X58747754Y-85216243D01*
X58810404Y-85409060D01*
X58813444Y-85418414D01*
X58909951Y-85607820D01*
X59034890Y-85779786D01*
X59185213Y-85930109D01*
X59357182Y-86055050D01*
X59365946Y-86059516D01*
X59416742Y-86107491D01*
X59433536Y-86175312D01*
X59410998Y-86241447D01*
X59365946Y-86280484D01*
X59357182Y-86284949D01*
X59185213Y-86409890D01*
X59034890Y-86560213D01*
X58909950Y-86732180D01*
X58902503Y-86746797D01*
X58854527Y-86797592D01*
X58792019Y-86814500D01*
X57794452Y-86814500D01*
X57727413Y-86794815D01*
X57706771Y-86778181D01*
X57406819Y-86478229D01*
X57373334Y-86416906D01*
X57370500Y-86390548D01*
X57370500Y-75527648D01*
X57944500Y-75527648D01*
X57944500Y-75732351D01*
X57976522Y-75934534D01*
X58039781Y-76129223D01*
X58103691Y-76254653D01*
X58132585Y-76311359D01*
X58132715Y-76311613D01*
X58253028Y-76477213D01*
X58397786Y-76621971D01*
X58518226Y-76709474D01*
X58563390Y-76742287D01*
X58679607Y-76801503D01*
X58745776Y-76835218D01*
X58745778Y-76835218D01*
X58745781Y-76835220D01*
X58850137Y-76869127D01*
X58940465Y-76898477D01*
X59009897Y-76909474D01*
X59142648Y-76930500D01*
X59142649Y-76930500D01*
X59347351Y-76930500D01*
X59347352Y-76930500D01*
X59549534Y-76898477D01*
X59744219Y-76835220D01*
X59926610Y-76742287D01*
X60019590Y-76674732D01*
X60092213Y-76621971D01*
X60092215Y-76621968D01*
X60092219Y-76621966D01*
X60236966Y-76477219D01*
X60236968Y-76477215D01*
X60236971Y-76477213D01*
X60300625Y-76389599D01*
X60357287Y-76311610D01*
X60450220Y-76129219D01*
X60513477Y-75934534D01*
X60545500Y-75732352D01*
X60545500Y-75527682D01*
X62945000Y-75527682D01*
X62945000Y-75732317D01*
X62977009Y-75934417D01*
X63040244Y-76129031D01*
X63133141Y-76311350D01*
X63133147Y-76311359D01*
X63165523Y-76355921D01*
X63165524Y-76355922D01*
X63845000Y-75676446D01*
X63845000Y-75682661D01*
X63872259Y-75784394D01*
X63924920Y-75875606D01*
X63999394Y-75950080D01*
X64090606Y-76002741D01*
X64192339Y-76030000D01*
X64198553Y-76030000D01*
X63519076Y-76709474D01*
X63563650Y-76741859D01*
X63745968Y-76834755D01*
X63940582Y-76897990D01*
X64142683Y-76930000D01*
X64347317Y-76930000D01*
X64549417Y-76897990D01*
X64744031Y-76834755D01*
X64926349Y-76741859D01*
X64970921Y-76709474D01*
X64291447Y-76030000D01*
X64297661Y-76030000D01*
X64399394Y-76002741D01*
X64490606Y-75950080D01*
X64565080Y-75875606D01*
X64617741Y-75784394D01*
X64645000Y-75682661D01*
X64645000Y-75676447D01*
X65324474Y-76355921D01*
X65356859Y-76311349D01*
X65449755Y-76129031D01*
X65512990Y-75934417D01*
X65545000Y-75732317D01*
X65545000Y-75527682D01*
X65512990Y-75325582D01*
X65449755Y-75130968D01*
X65356859Y-74948650D01*
X65324474Y-74904077D01*
X65324474Y-74904076D01*
X64645000Y-75583551D01*
X64645000Y-75577339D01*
X64617741Y-75475606D01*
X64565080Y-75384394D01*
X64490606Y-75309920D01*
X64399394Y-75257259D01*
X64297661Y-75230000D01*
X64291446Y-75230000D01*
X64970922Y-74550524D01*
X64970921Y-74550523D01*
X64926359Y-74518147D01*
X64926350Y-74518141D01*
X64744031Y-74425244D01*
X64549417Y-74362009D01*
X64347317Y-74330000D01*
X64142683Y-74330000D01*
X63940582Y-74362009D01*
X63745968Y-74425244D01*
X63563644Y-74518143D01*
X63519077Y-74550523D01*
X63519077Y-74550524D01*
X64198554Y-75230000D01*
X64192339Y-75230000D01*
X64090606Y-75257259D01*
X63999394Y-75309920D01*
X63924920Y-75384394D01*
X63872259Y-75475606D01*
X63845000Y-75577339D01*
X63845000Y-75583553D01*
X63165524Y-74904077D01*
X63165523Y-74904077D01*
X63133143Y-74948644D01*
X63040244Y-75130968D01*
X62977009Y-75325582D01*
X62945000Y-75527682D01*
X60545500Y-75527682D01*
X60545500Y-75527648D01*
X60524964Y-75397990D01*
X60513477Y-75325465D01*
X60473623Y-75202809D01*
X60450220Y-75130781D01*
X60450218Y-75130778D01*
X60450218Y-75130776D01*
X60383692Y-75000213D01*
X60357287Y-74948390D01*
X60325092Y-74904077D01*
X60236971Y-74782786D01*
X60092213Y-74638028D01*
X59926613Y-74517715D01*
X59926612Y-74517714D01*
X59926610Y-74517713D01*
X59859567Y-74483553D01*
X59744223Y-74424781D01*
X59549534Y-74361522D01*
X59374995Y-74333878D01*
X59347352Y-74329500D01*
X59142648Y-74329500D01*
X59118329Y-74333351D01*
X58940465Y-74361522D01*
X58745776Y-74424781D01*
X58563386Y-74517715D01*
X58397786Y-74638028D01*
X58253028Y-74782786D01*
X58132715Y-74948386D01*
X58039781Y-75130776D01*
X57976522Y-75325465D01*
X57944500Y-75527648D01*
X57370500Y-75527648D01*
X57370500Y-57443713D01*
X61394500Y-57443713D01*
X61394500Y-57656286D01*
X61423251Y-57837816D01*
X61427754Y-57866243D01*
X61474394Y-58009786D01*
X61493444Y-58068414D01*
X61589951Y-58257820D01*
X61714890Y-58429786D01*
X61865213Y-58580109D01*
X62037182Y-58705050D01*
X62045946Y-58709516D01*
X62096742Y-58757491D01*
X62113536Y-58825312D01*
X62090998Y-58891447D01*
X62045946Y-58930484D01*
X62037182Y-58934949D01*
X61865213Y-59059890D01*
X61714890Y-59210213D01*
X61589951Y-59382179D01*
X61493444Y-59571585D01*
X61427753Y-59773760D01*
X61406727Y-59906514D01*
X61394500Y-59983713D01*
X61394500Y-60196287D01*
X61404534Y-60259644D01*
X61423251Y-60377816D01*
X61427754Y-60406243D01*
X61474394Y-60549786D01*
X61493444Y-60608414D01*
X61589951Y-60797820D01*
X61714890Y-60969786D01*
X61865213Y-61120109D01*
X62037182Y-61245050D01*
X62045946Y-61249516D01*
X62096742Y-61297491D01*
X62113536Y-61365312D01*
X62090998Y-61431447D01*
X62045946Y-61470484D01*
X62037182Y-61474949D01*
X61865213Y-61599890D01*
X61714890Y-61750213D01*
X61589951Y-61922179D01*
X61493444Y-62111585D01*
X61427753Y-62313760D01*
X61406727Y-62446514D01*
X61394500Y-62523713D01*
X61394500Y-62736287D01*
X61404534Y-62799644D01*
X61423251Y-62917816D01*
X61427754Y-62946243D01*
X61474394Y-63089786D01*
X61493444Y-63148414D01*
X61589951Y-63337820D01*
X61714890Y-63509786D01*
X61865213Y-63660109D01*
X62037182Y-63785050D01*
X62045946Y-63789516D01*
X62096742Y-63837491D01*
X62113536Y-63905312D01*
X62090998Y-63971447D01*
X62045946Y-64010484D01*
X62037182Y-64014949D01*
X61865213Y-64139890D01*
X61714890Y-64290213D01*
X61589951Y-64462179D01*
X61493444Y-64651585D01*
X61427753Y-64853760D01*
X61406727Y-64986514D01*
X61394500Y-65063713D01*
X61394500Y-65276287D01*
X61404534Y-65339644D01*
X61423251Y-65457816D01*
X61427754Y-65486243D01*
X61474394Y-65629786D01*
X61493444Y-65688414D01*
X61589951Y-65877820D01*
X61714890Y-66049786D01*
X61865213Y-66200109D01*
X62037182Y-66325050D01*
X62045946Y-66329516D01*
X62096742Y-66377491D01*
X62113536Y-66445312D01*
X62090998Y-66511447D01*
X62045946Y-66550484D01*
X62037182Y-66554949D01*
X61865213Y-66679890D01*
X61714890Y-66830213D01*
X61589951Y-67002179D01*
X61493444Y-67191585D01*
X61427753Y-67393760D01*
X61406727Y-67526514D01*
X61394500Y-67603713D01*
X61394500Y-67816287D01*
X61400425Y-67853694D01*
X61423251Y-67997816D01*
X61427754Y-68026243D01*
X61474394Y-68169786D01*
X61493444Y-68228414D01*
X61589951Y-68417820D01*
X61714890Y-68589786D01*
X61828430Y-68703326D01*
X61861915Y-68764649D01*
X61856931Y-68834341D01*
X61815059Y-68890274D01*
X61784083Y-68907189D01*
X61652669Y-68956203D01*
X61652664Y-68956206D01*
X61537455Y-69042452D01*
X61537452Y-69042455D01*
X61451206Y-69157664D01*
X61451202Y-69157671D01*
X61400908Y-69292517D01*
X61395965Y-69338499D01*
X61394501Y-69352123D01*
X61394500Y-69352135D01*
X61394500Y-71147870D01*
X61394501Y-71147876D01*
X61400908Y-71207483D01*
X61451202Y-71342328D01*
X61451206Y-71342335D01*
X61537452Y-71457544D01*
X61537455Y-71457547D01*
X61652664Y-71543793D01*
X61652671Y-71543797D01*
X61787517Y-71594091D01*
X61787516Y-71594091D01*
X61794444Y-71594835D01*
X61847127Y-71600500D01*
X63642872Y-71600499D01*
X63702483Y-71594091D01*
X63837331Y-71543796D01*
X63952546Y-71457546D01*
X64038796Y-71342331D01*
X64089091Y-71207483D01*
X64095500Y-71147873D01*
X64095499Y-69352128D01*
X64089091Y-69292517D01*
X64077730Y-69262057D01*
X64038797Y-69157671D01*
X64038793Y-69157664D01*
X63952547Y-69042455D01*
X63952544Y-69042452D01*
X63837335Y-68956206D01*
X63837328Y-68956202D01*
X63705917Y-68907189D01*
X63649983Y-68865318D01*
X63625566Y-68799853D01*
X63640418Y-68731580D01*
X63661563Y-68703332D01*
X63775104Y-68589792D01*
X63814039Y-68536203D01*
X63900048Y-68417820D01*
X63900047Y-68417820D01*
X63900051Y-68417816D01*
X63996557Y-68228412D01*
X64062246Y-68026243D01*
X64095500Y-67816287D01*
X64095500Y-67603713D01*
X64062246Y-67393757D01*
X63996557Y-67191588D01*
X63900051Y-67002184D01*
X63900049Y-67002181D01*
X63900048Y-67002179D01*
X63775109Y-66830213D01*
X63624786Y-66679890D01*
X63452820Y-66554951D01*
X63452115Y-66554591D01*
X63444054Y-66550485D01*
X63393259Y-66502512D01*
X63376463Y-66434692D01*
X63398999Y-66368556D01*
X63444054Y-66329515D01*
X63452816Y-66325051D01*
X63561079Y-66246394D01*
X63624786Y-66200109D01*
X63624788Y-66200106D01*
X63624792Y-66200104D01*
X63775104Y-66049792D01*
X63775106Y-66049788D01*
X63775109Y-66049786D01*
X63900048Y-65877820D01*
X63900047Y-65877820D01*
X63900051Y-65877816D01*
X63996557Y-65688412D01*
X64062246Y-65486243D01*
X64095500Y-65276287D01*
X64095500Y-65063713D01*
X64062246Y-64853757D01*
X63996557Y-64651588D01*
X63900051Y-64462184D01*
X63900049Y-64462181D01*
X63900048Y-64462179D01*
X63775109Y-64290213D01*
X63624786Y-64139890D01*
X63452820Y-64014951D01*
X63452115Y-64014591D01*
X63444054Y-64010485D01*
X63393259Y-63962512D01*
X63376463Y-63894692D01*
X63398999Y-63828556D01*
X63444054Y-63789515D01*
X63452816Y-63785051D01*
X63561079Y-63706394D01*
X63624786Y-63660109D01*
X63624788Y-63660106D01*
X63624792Y-63660104D01*
X63775104Y-63509792D01*
X63775106Y-63509788D01*
X63775109Y-63509786D01*
X63900048Y-63337820D01*
X63900047Y-63337820D01*
X63900051Y-63337816D01*
X63996557Y-63148412D01*
X64062246Y-62946243D01*
X64095500Y-62736287D01*
X64095500Y-62523713D01*
X64062246Y-62313757D01*
X63996557Y-62111588D01*
X63900051Y-61922184D01*
X63900049Y-61922181D01*
X63900048Y-61922179D01*
X63775109Y-61750213D01*
X63624786Y-61599890D01*
X63452820Y-61474951D01*
X63452115Y-61474591D01*
X63444054Y-61470485D01*
X63393259Y-61422512D01*
X63376463Y-61354692D01*
X63398999Y-61288556D01*
X63444054Y-61249515D01*
X63452816Y-61245051D01*
X63561079Y-61166394D01*
X63624786Y-61120109D01*
X63624788Y-61120106D01*
X63624792Y-61120104D01*
X63775104Y-60969792D01*
X63775106Y-60969788D01*
X63775109Y-60969786D01*
X63900048Y-60797820D01*
X63900047Y-60797820D01*
X63900051Y-60797816D01*
X63996557Y-60608412D01*
X64062246Y-60406243D01*
X64095500Y-60196287D01*
X64095500Y-59983713D01*
X64062246Y-59773757D01*
X63996557Y-59571588D01*
X63900051Y-59382184D01*
X63900049Y-59382181D01*
X63900048Y-59382179D01*
X63893897Y-59373713D01*
X74244500Y-59373713D01*
X74244500Y-59586286D01*
X74274192Y-59773757D01*
X74277754Y-59796243D01*
X74321922Y-59932179D01*
X74343444Y-59998414D01*
X74439951Y-60187820D01*
X74564890Y-60359786D01*
X74715213Y-60510109D01*
X74887182Y-60635050D01*
X74895946Y-60639516D01*
X74946742Y-60687491D01*
X74963536Y-60755312D01*
X74940998Y-60821447D01*
X74895946Y-60860484D01*
X74887182Y-60864949D01*
X74715213Y-60989890D01*
X74564890Y-61140213D01*
X74439951Y-61312179D01*
X74343444Y-61501585D01*
X74277753Y-61703760D01*
X74244500Y-61913713D01*
X74244500Y-62126286D01*
X74274192Y-62313757D01*
X74277754Y-62336243D01*
X74321922Y-62472179D01*
X74343444Y-62538414D01*
X74439951Y-62727820D01*
X74564890Y-62899786D01*
X74715213Y-63050109D01*
X74887182Y-63175050D01*
X74895946Y-63179516D01*
X74946742Y-63227491D01*
X74963536Y-63295312D01*
X74940998Y-63361447D01*
X74895946Y-63400484D01*
X74887182Y-63404949D01*
X74715213Y-63529890D01*
X74564890Y-63680213D01*
X74439951Y-63852179D01*
X74343444Y-64041585D01*
X74277753Y-64243760D01*
X74244500Y-64453713D01*
X74244500Y-64666286D01*
X74274192Y-64853757D01*
X74277754Y-64876243D01*
X74321922Y-65012179D01*
X74343444Y-65078414D01*
X74439951Y-65267820D01*
X74564890Y-65439786D01*
X74715213Y-65590109D01*
X74887182Y-65715050D01*
X74895946Y-65719516D01*
X74946742Y-65767491D01*
X74963536Y-65835312D01*
X74940998Y-65901447D01*
X74895946Y-65940484D01*
X74887182Y-65944949D01*
X74715213Y-66069890D01*
X74564890Y-66220213D01*
X74439951Y-66392179D01*
X74343444Y-66581585D01*
X74277753Y-66783760D01*
X74253007Y-66940000D01*
X74244500Y-66993713D01*
X74244500Y-67206287D01*
X74254534Y-67269644D01*
X74274192Y-67393757D01*
X74277754Y-67416243D01*
X74321922Y-67552179D01*
X74343444Y-67618414D01*
X74439951Y-67807820D01*
X74564890Y-67979786D01*
X74715213Y-68130109D01*
X74887182Y-68255050D01*
X74895946Y-68259516D01*
X74946742Y-68307491D01*
X74963536Y-68375312D01*
X74940998Y-68441447D01*
X74895946Y-68480484D01*
X74887182Y-68484949D01*
X74715213Y-68609890D01*
X74564890Y-68760213D01*
X74439951Y-68932179D01*
X74343444Y-69121585D01*
X74277753Y-69323760D01*
X74244500Y-69533713D01*
X74244500Y-69746286D01*
X74276509Y-69948386D01*
X74277754Y-69956243D01*
X74334463Y-70130776D01*
X74343444Y-70158414D01*
X74439951Y-70347820D01*
X74564890Y-70519786D01*
X74715213Y-70670109D01*
X74887182Y-70795050D01*
X74895946Y-70799516D01*
X74946742Y-70847491D01*
X74963536Y-70915312D01*
X74940998Y-70981447D01*
X74895946Y-71020484D01*
X74887182Y-71024949D01*
X74715213Y-71149890D01*
X74564890Y-71300213D01*
X74439951Y-71472179D01*
X74343444Y-71661585D01*
X74277753Y-71863760D01*
X74244500Y-72073713D01*
X74244500Y-72286286D01*
X74272046Y-72460208D01*
X74277754Y-72496243D01*
X74321922Y-72632179D01*
X74343444Y-72698414D01*
X74439951Y-72887820D01*
X74564890Y-73059786D01*
X74715213Y-73210109D01*
X74887182Y-73335050D01*
X74895946Y-73339516D01*
X74946742Y-73387491D01*
X74963536Y-73455312D01*
X74940998Y-73521447D01*
X74895946Y-73560484D01*
X74887182Y-73564949D01*
X74715213Y-73689890D01*
X74564890Y-73840213D01*
X74439951Y-74012179D01*
X74343444Y-74201585D01*
X74343443Y-74201587D01*
X74343443Y-74201588D01*
X74317326Y-74281966D01*
X74277753Y-74403760D01*
X74244500Y-74613713D01*
X74244500Y-74826286D01*
X74272046Y-75000208D01*
X74277754Y-75036243D01*
X74334040Y-75209474D01*
X74343444Y-75238414D01*
X74439951Y-75427820D01*
X74564890Y-75599786D01*
X74678430Y-75713326D01*
X74711915Y-75774649D01*
X74706931Y-75844341D01*
X74665059Y-75900274D01*
X74634083Y-75917189D01*
X74502669Y-75966203D01*
X74502664Y-75966206D01*
X74387455Y-76052452D01*
X74387452Y-76052455D01*
X74301206Y-76167664D01*
X74301202Y-76167671D01*
X74250908Y-76302517D01*
X74245167Y-76355921D01*
X74244501Y-76362123D01*
X74244500Y-76362135D01*
X74244500Y-78157870D01*
X74244501Y-78157876D01*
X74250908Y-78217483D01*
X74301202Y-78352328D01*
X74301206Y-78352335D01*
X74387452Y-78467544D01*
X74387455Y-78467547D01*
X74502664Y-78553793D01*
X74502671Y-78553797D01*
X74637517Y-78604091D01*
X74637516Y-78604091D01*
X74644444Y-78604835D01*
X74697127Y-78610500D01*
X76492872Y-78610499D01*
X76552483Y-78604091D01*
X76687331Y-78553796D01*
X76802546Y-78467546D01*
X76888796Y-78352331D01*
X76939091Y-78217483D01*
X76945500Y-78157873D01*
X76945499Y-76362128D01*
X76940068Y-76311610D01*
X76939091Y-76302516D01*
X76888797Y-76167671D01*
X76888793Y-76167664D01*
X76802547Y-76052455D01*
X76802544Y-76052452D01*
X76687335Y-75966206D01*
X76687328Y-75966202D01*
X76555917Y-75917189D01*
X76499983Y-75875318D01*
X76475566Y-75809853D01*
X76490418Y-75741580D01*
X76511563Y-75713332D01*
X76625104Y-75599792D01*
X76750051Y-75427816D01*
X76846557Y-75238412D01*
X76912246Y-75036243D01*
X76945500Y-74826287D01*
X76945500Y-74613713D01*
X76912246Y-74403757D01*
X76846557Y-74201588D01*
X76750051Y-74012184D01*
X76750049Y-74012181D01*
X76750048Y-74012179D01*
X76625109Y-73840213D01*
X76474786Y-73689890D01*
X76302820Y-73564951D01*
X76302115Y-73564591D01*
X76294054Y-73560485D01*
X76243259Y-73512512D01*
X76226463Y-73444692D01*
X76248999Y-73378556D01*
X76294054Y-73339515D01*
X76302816Y-73335051D01*
X76364825Y-73289999D01*
X76474786Y-73210109D01*
X76474788Y-73210106D01*
X76474792Y-73210104D01*
X76625104Y-73059792D01*
X76625106Y-73059788D01*
X76625109Y-73059786D01*
X76750048Y-72887820D01*
X76750047Y-72887820D01*
X76750051Y-72887816D01*
X76846557Y-72698412D01*
X76912246Y-72496243D01*
X76945500Y-72286287D01*
X76945500Y-72073713D01*
X76912246Y-71863757D01*
X76846557Y-71661588D01*
X76750051Y-71472184D01*
X76750049Y-71472181D01*
X76750048Y-71472179D01*
X76625109Y-71300213D01*
X76474786Y-71149890D01*
X76302820Y-71024951D01*
X76302115Y-71024591D01*
X76294054Y-71020485D01*
X76243259Y-70972512D01*
X76226463Y-70904692D01*
X76248999Y-70838556D01*
X76294054Y-70799515D01*
X76302816Y-70795051D01*
X76324789Y-70779086D01*
X76474786Y-70670109D01*
X76474788Y-70670106D01*
X76474792Y-70670104D01*
X76625104Y-70519792D01*
X76625106Y-70519788D01*
X76625109Y-70519786D01*
X76750048Y-70347820D01*
X76750047Y-70347820D01*
X76750051Y-70347816D01*
X76846557Y-70158412D01*
X76912246Y-69956243D01*
X76945500Y-69746287D01*
X76945500Y-69533713D01*
X76912246Y-69323757D01*
X76846557Y-69121588D01*
X76750051Y-68932184D01*
X76750049Y-68932181D01*
X76750048Y-68932179D01*
X76625109Y-68760213D01*
X76474786Y-68609890D01*
X76302820Y-68484951D01*
X76302115Y-68484591D01*
X76294054Y-68480485D01*
X76243259Y-68432512D01*
X76226463Y-68364692D01*
X76248999Y-68298556D01*
X76294054Y-68259515D01*
X76302816Y-68255051D01*
X76420166Y-68169792D01*
X76474786Y-68130109D01*
X76474788Y-68130106D01*
X76474792Y-68130104D01*
X76625104Y-67979792D01*
X76625106Y-67979788D01*
X76625109Y-67979786D01*
X76734086Y-67829789D01*
X76750051Y-67807816D01*
X76846557Y-67618412D01*
X76912246Y-67416243D01*
X76945500Y-67206287D01*
X76945500Y-66993713D01*
X76912246Y-66783757D01*
X76846557Y-66581588D01*
X76750051Y-66392184D01*
X76750049Y-66392181D01*
X76750048Y-66392179D01*
X76625109Y-66220213D01*
X76474786Y-66069890D01*
X76302820Y-65944951D01*
X76302115Y-65944591D01*
X76294054Y-65940485D01*
X76243259Y-65892512D01*
X76226463Y-65824692D01*
X76248999Y-65758556D01*
X76294054Y-65719515D01*
X76302816Y-65715051D01*
X76420166Y-65629792D01*
X76474786Y-65590109D01*
X76474788Y-65590106D01*
X76474792Y-65590104D01*
X76625104Y-65439792D01*
X76625106Y-65439788D01*
X76625109Y-65439786D01*
X76742007Y-65278888D01*
X76750051Y-65267816D01*
X76846557Y-65078412D01*
X76912246Y-64876243D01*
X76945500Y-64666287D01*
X76945500Y-64453713D01*
X76912246Y-64243757D01*
X76846557Y-64041588D01*
X76750051Y-63852184D01*
X76750049Y-63852181D01*
X76750048Y-63852179D01*
X76625109Y-63680213D01*
X76474786Y-63529890D01*
X76302820Y-63404951D01*
X76302115Y-63404591D01*
X76294054Y-63400485D01*
X76243259Y-63352512D01*
X76226463Y-63284692D01*
X76248999Y-63218556D01*
X76294054Y-63179515D01*
X76302816Y-63175051D01*
X76420166Y-63089792D01*
X76474786Y-63050109D01*
X76474788Y-63050106D01*
X76474792Y-63050104D01*
X76625104Y-62899792D01*
X76625106Y-62899788D01*
X76625109Y-62899786D01*
X76742007Y-62738888D01*
X76750051Y-62727816D01*
X76846557Y-62538412D01*
X76912246Y-62336243D01*
X76945500Y-62126287D01*
X76945500Y-61913713D01*
X76912246Y-61703757D01*
X76846557Y-61501588D01*
X76750051Y-61312184D01*
X76750049Y-61312181D01*
X76750048Y-61312179D01*
X76625109Y-61140213D01*
X76474786Y-60989890D01*
X76302820Y-60864951D01*
X76302115Y-60864591D01*
X76294054Y-60860485D01*
X76243259Y-60812512D01*
X76226463Y-60744692D01*
X76248999Y-60678556D01*
X76294054Y-60639515D01*
X76302816Y-60635051D01*
X76420166Y-60549792D01*
X76474786Y-60510109D01*
X76474788Y-60510106D01*
X76474792Y-60510104D01*
X76625104Y-60359792D01*
X76625106Y-60359788D01*
X76625109Y-60359786D01*
X76742007Y-60198888D01*
X76750051Y-60187816D01*
X76846557Y-59998412D01*
X76912246Y-59796243D01*
X76945500Y-59586287D01*
X76945500Y-59373713D01*
X76912246Y-59163757D01*
X76846557Y-58961588D01*
X76750051Y-58772184D01*
X76750049Y-58772181D01*
X76750048Y-58772179D01*
X76625109Y-58600213D01*
X76474786Y-58449890D01*
X76302820Y-58324951D01*
X76113414Y-58228444D01*
X76113413Y-58228443D01*
X76113412Y-58228443D01*
X75911243Y-58162754D01*
X75911241Y-58162753D01*
X75911240Y-58162753D01*
X75749957Y-58137208D01*
X75701287Y-58129500D01*
X75488713Y-58129500D01*
X75440042Y-58137208D01*
X75278760Y-58162753D01*
X75076585Y-58228444D01*
X74887179Y-58324951D01*
X74715213Y-58449890D01*
X74564890Y-58600213D01*
X74439951Y-58772179D01*
X74343444Y-58961585D01*
X74277753Y-59163760D01*
X74244500Y-59373713D01*
X63893897Y-59373713D01*
X63775109Y-59210213D01*
X63624786Y-59059890D01*
X63452820Y-58934951D01*
X63452115Y-58934591D01*
X63444054Y-58930485D01*
X63393259Y-58882512D01*
X63376463Y-58814692D01*
X63398999Y-58748556D01*
X63444054Y-58709515D01*
X63452816Y-58705051D01*
X63528566Y-58650016D01*
X63624786Y-58580109D01*
X63624788Y-58580106D01*
X63624792Y-58580104D01*
X63775104Y-58429792D01*
X63775106Y-58429788D01*
X63775109Y-58429786D01*
X63900048Y-58257820D01*
X63900047Y-58257820D01*
X63900051Y-58257816D01*
X63996557Y-58068412D01*
X64062246Y-57866243D01*
X64095500Y-57656287D01*
X64095500Y-57443713D01*
X64062246Y-57233757D01*
X64051971Y-57202135D01*
X100244500Y-57202135D01*
X100244500Y-58997870D01*
X100244501Y-58997876D01*
X100250908Y-59057483D01*
X100301202Y-59192328D01*
X100301206Y-59192335D01*
X100387452Y-59307544D01*
X100387455Y-59307547D01*
X100502664Y-59393793D01*
X100502671Y-59393797D01*
X100634082Y-59442810D01*
X100690016Y-59484681D01*
X100714433Y-59550145D01*
X100699582Y-59618418D01*
X100678431Y-59646673D01*
X100564889Y-59760215D01*
X100439951Y-59932179D01*
X100343444Y-60121585D01*
X100277753Y-60323760D01*
X100244500Y-60533713D01*
X100244500Y-60746287D01*
X100248009Y-60768443D01*
X100276022Y-60945312D01*
X100277754Y-60956243D01*
X100340579Y-61149599D01*
X100343444Y-61158414D01*
X100439951Y-61347820D01*
X100564890Y-61519786D01*
X100715213Y-61670109D01*
X100887182Y-61795050D01*
X100895946Y-61799516D01*
X100946742Y-61847491D01*
X100963536Y-61915312D01*
X100940998Y-61981447D01*
X100895946Y-62020484D01*
X100887182Y-62024949D01*
X100715213Y-62149890D01*
X100564890Y-62300213D01*
X100439951Y-62472179D01*
X100343444Y-62661585D01*
X100277753Y-62863760D01*
X100244500Y-63073713D01*
X100244500Y-63286287D01*
X100248009Y-63308443D01*
X100276022Y-63485312D01*
X100277754Y-63496243D01*
X100340579Y-63689599D01*
X100343444Y-63698414D01*
X100439951Y-63887820D01*
X100564890Y-64059786D01*
X100715213Y-64210109D01*
X100887182Y-64335050D01*
X100895946Y-64339516D01*
X100946742Y-64387491D01*
X100963536Y-64455312D01*
X100940998Y-64521447D01*
X100895946Y-64560484D01*
X100887182Y-64564949D01*
X100715213Y-64689890D01*
X100564890Y-64840213D01*
X100439951Y-65012179D01*
X100343444Y-65201585D01*
X100277753Y-65403760D01*
X100244500Y-65613713D01*
X100244500Y-65826287D01*
X100246409Y-65838342D01*
X100276022Y-66025312D01*
X100277754Y-66036243D01*
X100340579Y-66229599D01*
X100343444Y-66238414D01*
X100439951Y-66427820D01*
X100564890Y-66599786D01*
X100715213Y-66750109D01*
X100887182Y-66875050D01*
X100895946Y-66879516D01*
X100946742Y-66927491D01*
X100963536Y-66995312D01*
X100940998Y-67061447D01*
X100895946Y-67100484D01*
X100887182Y-67104949D01*
X100715213Y-67229890D01*
X100564890Y-67380213D01*
X100439951Y-67552179D01*
X100343444Y-67741585D01*
X100277753Y-67943760D01*
X100244500Y-68153713D01*
X100244500Y-68366287D01*
X100248009Y-68388443D01*
X100271412Y-68536206D01*
X100277754Y-68576243D01*
X100340579Y-68769599D01*
X100343444Y-68778414D01*
X100439951Y-68967820D01*
X100564890Y-69139786D01*
X100715213Y-69290109D01*
X100887182Y-69415050D01*
X100895946Y-69419516D01*
X100946742Y-69467491D01*
X100963536Y-69535312D01*
X100940998Y-69601447D01*
X100895946Y-69640484D01*
X100887182Y-69644949D01*
X100715213Y-69769890D01*
X100564890Y-69920213D01*
X100439951Y-70092179D01*
X100343444Y-70281585D01*
X100277753Y-70483760D01*
X100246250Y-70682661D01*
X100244500Y-70693713D01*
X100244500Y-70906287D01*
X100247041Y-70922328D01*
X100265289Y-71037546D01*
X100277754Y-71116243D01*
X100341151Y-71311359D01*
X100343444Y-71318414D01*
X100439951Y-71507820D01*
X100564890Y-71679786D01*
X100715213Y-71830109D01*
X100887182Y-71955050D01*
X100895946Y-71959516D01*
X100946742Y-72007491D01*
X100963536Y-72075312D01*
X100940998Y-72141447D01*
X100895946Y-72180484D01*
X100887182Y-72184949D01*
X100715213Y-72309890D01*
X100564890Y-72460213D01*
X100439951Y-72632179D01*
X100343444Y-72821585D01*
X100277753Y-73023760D01*
X100244500Y-73233713D01*
X100244500Y-73446287D01*
X100248009Y-73468443D01*
X100267961Y-73594417D01*
X100277754Y-73656243D01*
X100340222Y-73848500D01*
X100343444Y-73858414D01*
X100439951Y-74047820D01*
X100564890Y-74219786D01*
X100715213Y-74370109D01*
X100887182Y-74495050D01*
X100895946Y-74499516D01*
X100946742Y-74547491D01*
X100963536Y-74615312D01*
X100940998Y-74681447D01*
X100895946Y-74720484D01*
X100887182Y-74724949D01*
X100715213Y-74849890D01*
X100564890Y-75000213D01*
X100439951Y-75172179D01*
X100343444Y-75361585D01*
X100277753Y-75563760D01*
X100244500Y-75773713D01*
X100244500Y-75986286D01*
X100273228Y-76167671D01*
X100277754Y-76196243D01*
X100340579Y-76389599D01*
X100343444Y-76398414D01*
X100439951Y-76587820D01*
X100564890Y-76759786D01*
X100715213Y-76910109D01*
X100887179Y-77035048D01*
X100887181Y-77035049D01*
X100887184Y-77035051D01*
X101076588Y-77131557D01*
X101278757Y-77197246D01*
X101488713Y-77230500D01*
X101488714Y-77230500D01*
X101701286Y-77230500D01*
X101701287Y-77230500D01*
X101911243Y-77197246D01*
X102113412Y-77131557D01*
X102302816Y-77035051D01*
X102351748Y-76999500D01*
X102474786Y-76910109D01*
X102474788Y-76910106D01*
X102474792Y-76910104D01*
X102625104Y-76759792D01*
X102625106Y-76759788D01*
X102625109Y-76759786D01*
X102750048Y-76587820D01*
X102750047Y-76587820D01*
X102750051Y-76587816D01*
X102846557Y-76398412D01*
X102912246Y-76196243D01*
X102945500Y-75986287D01*
X102945500Y-75773713D01*
X102912246Y-75563757D01*
X102846557Y-75361588D01*
X102750051Y-75172184D01*
X102750049Y-75172181D01*
X102750048Y-75172179D01*
X102625109Y-75000213D01*
X102474786Y-74849890D01*
X102302820Y-74724951D01*
X102302115Y-74724591D01*
X102294054Y-74720485D01*
X102243259Y-74672512D01*
X102226463Y-74604692D01*
X102248999Y-74538556D01*
X102294054Y-74499515D01*
X102302816Y-74495051D01*
X102399535Y-74424781D01*
X102474786Y-74370109D01*
X102474788Y-74370106D01*
X102474792Y-74370104D01*
X102625104Y-74219792D01*
X102625106Y-74219788D01*
X102625109Y-74219786D01*
X102750048Y-74047820D01*
X102750047Y-74047820D01*
X102750051Y-74047816D01*
X102846557Y-73858412D01*
X102912246Y-73656243D01*
X102945500Y-73446287D01*
X102945500Y-73233713D01*
X102912246Y-73023757D01*
X102846557Y-72821588D01*
X102750051Y-72632184D01*
X102750049Y-72632181D01*
X102750048Y-72632179D01*
X102625109Y-72460213D01*
X102474786Y-72309890D01*
X102302820Y-72184951D01*
X102302115Y-72184591D01*
X102294054Y-72180485D01*
X102243259Y-72132512D01*
X102226463Y-72064692D01*
X102248999Y-71998556D01*
X102294054Y-71959515D01*
X102302816Y-71955051D01*
X102365106Y-71909795D01*
X102474786Y-71830109D01*
X102474788Y-71830106D01*
X102474792Y-71830104D01*
X102625104Y-71679792D01*
X102625106Y-71679788D01*
X102625109Y-71679786D01*
X102750048Y-71507820D01*
X102750047Y-71507820D01*
X102750051Y-71507816D01*
X102846557Y-71318412D01*
X102912246Y-71116243D01*
X102945500Y-70906287D01*
X102945500Y-70693713D01*
X102912246Y-70483757D01*
X102846557Y-70281588D01*
X102750051Y-70092184D01*
X102750049Y-70092181D01*
X102750048Y-70092179D01*
X102625109Y-69920213D01*
X102474786Y-69769890D01*
X102302820Y-69644951D01*
X102302115Y-69644591D01*
X102294054Y-69640485D01*
X102243259Y-69592512D01*
X102226463Y-69524692D01*
X102248999Y-69458556D01*
X102294054Y-69419515D01*
X102302816Y-69415051D01*
X102349293Y-69381284D01*
X102474786Y-69290109D01*
X102474788Y-69290106D01*
X102474792Y-69290104D01*
X102625104Y-69139792D01*
X102625106Y-69139788D01*
X102625109Y-69139786D01*
X102750048Y-68967820D01*
X102750047Y-68967820D01*
X102750051Y-68967816D01*
X102846557Y-68778412D01*
X102912246Y-68576243D01*
X102945500Y-68366287D01*
X102945500Y-68153713D01*
X102912246Y-67943757D01*
X102846557Y-67741588D01*
X102750051Y-67552184D01*
X102750049Y-67552181D01*
X102750048Y-67552179D01*
X102625109Y-67380213D01*
X102474786Y-67229890D01*
X102302820Y-67104951D01*
X102302115Y-67104591D01*
X102294054Y-67100485D01*
X102243259Y-67052512D01*
X102226463Y-66984692D01*
X102248999Y-66918556D01*
X102294054Y-66879515D01*
X102302816Y-66875051D01*
X102364538Y-66830208D01*
X102474786Y-66750109D01*
X102474788Y-66750106D01*
X102474792Y-66750104D01*
X102625104Y-66599792D01*
X102625106Y-66599788D01*
X102625109Y-66599786D01*
X102734086Y-66449789D01*
X102750051Y-66427816D01*
X102846557Y-66238412D01*
X102912246Y-66036243D01*
X102945500Y-65826287D01*
X102945500Y-65613713D01*
X102912246Y-65403757D01*
X102846557Y-65201588D01*
X102750051Y-65012184D01*
X102750049Y-65012181D01*
X102750048Y-65012179D01*
X102625109Y-64840213D01*
X102474786Y-64689890D01*
X102302820Y-64564951D01*
X102302115Y-64564591D01*
X102294054Y-64560485D01*
X102243259Y-64512512D01*
X102226463Y-64444692D01*
X102248999Y-64378556D01*
X102294054Y-64339515D01*
X102302816Y-64335051D01*
X102364538Y-64290208D01*
X102474786Y-64210109D01*
X102474788Y-64210106D01*
X102474792Y-64210104D01*
X102625104Y-64059792D01*
X102625106Y-64059788D01*
X102625109Y-64059786D01*
X102734086Y-63909789D01*
X102750051Y-63887816D01*
X102846557Y-63698412D01*
X102912246Y-63496243D01*
X102945500Y-63286287D01*
X102945500Y-63073713D01*
X102912246Y-62863757D01*
X102846557Y-62661588D01*
X102750051Y-62472184D01*
X102750049Y-62472181D01*
X102750048Y-62472179D01*
X102625109Y-62300213D01*
X102474786Y-62149890D01*
X102302820Y-62024951D01*
X102302115Y-62024591D01*
X102294054Y-62020485D01*
X102243259Y-61972512D01*
X102226463Y-61904692D01*
X102248999Y-61838556D01*
X102294054Y-61799515D01*
X102302816Y-61795051D01*
X102364538Y-61750208D01*
X102474786Y-61670109D01*
X102474792Y-61670104D01*
X102545006Y-61599890D01*
X102625104Y-61519792D01*
X102625106Y-61519788D01*
X102625109Y-61519786D01*
X102734086Y-61369789D01*
X102750051Y-61347816D01*
X102846557Y-61158412D01*
X102912246Y-60956243D01*
X102945500Y-60746287D01*
X102945500Y-60533713D01*
X102912246Y-60323757D01*
X102846557Y-60121588D01*
X102750051Y-59932184D01*
X102750049Y-59932181D01*
X102750048Y-59932179D01*
X102625109Y-59760213D01*
X102511569Y-59646673D01*
X102478084Y-59585350D01*
X102483068Y-59515658D01*
X102524940Y-59459725D01*
X102555915Y-59442810D01*
X102687331Y-59393796D01*
X102802546Y-59307546D01*
X102888796Y-59192331D01*
X102939091Y-59057483D01*
X102945500Y-58997873D01*
X102945499Y-57202128D01*
X102939091Y-57142517D01*
X102897625Y-57031342D01*
X102888797Y-57007671D01*
X102888793Y-57007664D01*
X102802547Y-56892455D01*
X102802544Y-56892452D01*
X102687335Y-56806206D01*
X102687328Y-56806202D01*
X102552482Y-56755908D01*
X102552483Y-56755908D01*
X102492883Y-56749501D01*
X102492881Y-56749500D01*
X102492873Y-56749500D01*
X102492864Y-56749500D01*
X100697129Y-56749500D01*
X100697123Y-56749501D01*
X100637516Y-56755908D01*
X100502671Y-56806202D01*
X100502664Y-56806206D01*
X100387455Y-56892452D01*
X100387452Y-56892455D01*
X100301206Y-57007664D01*
X100301202Y-57007671D01*
X100250908Y-57142517D01*
X100246807Y-57180666D01*
X100244501Y-57202123D01*
X100244500Y-57202135D01*
X64051971Y-57202135D01*
X63996557Y-57031588D01*
X63900051Y-56842184D01*
X63900049Y-56842181D01*
X63900048Y-56842179D01*
X63775109Y-56670213D01*
X63624786Y-56519890D01*
X63452820Y-56394951D01*
X63263414Y-56298444D01*
X63263413Y-56298443D01*
X63263412Y-56298443D01*
X63061243Y-56232754D01*
X63061241Y-56232753D01*
X63061240Y-56232753D01*
X62899957Y-56207208D01*
X62851287Y-56199500D01*
X62638713Y-56199500D01*
X62590042Y-56207208D01*
X62428760Y-56232753D01*
X62226585Y-56298444D01*
X62037179Y-56394951D01*
X61865213Y-56519890D01*
X61714890Y-56670213D01*
X61589951Y-56842179D01*
X61493444Y-57031585D01*
X61427753Y-57233760D01*
X61394500Y-57443713D01*
X57370500Y-57443713D01*
X57370500Y-55940452D01*
X57390185Y-55873413D01*
X57406819Y-55852771D01*
X57607772Y-55651819D01*
X57669095Y-55618334D01*
X57695453Y-55615500D01*
X59662649Y-55615500D01*
X59729688Y-55635185D01*
X59731455Y-55636341D01*
X59759505Y-55655084D01*
X59896087Y-55711658D01*
X59896091Y-55711658D01*
X59896092Y-55711659D01*
X60041079Y-55740500D01*
X60041082Y-55740500D01*
X83568920Y-55740500D01*
X83666462Y-55721096D01*
X83713913Y-55711658D01*
X83804967Y-55673942D01*
X83850493Y-55655085D01*
X83850493Y-55655084D01*
X83850495Y-55655084D01*
X83909737Y-55615500D01*
X83909737Y-55615499D01*
X83909739Y-55615499D01*
X83941576Y-55594226D01*
X83973416Y-55572952D01*
X91197952Y-48348415D01*
X91225205Y-48307627D01*
X91280084Y-48225495D01*
X91303518Y-48168920D01*
X91336659Y-48088912D01*
X91365500Y-47943917D01*
X91365500Y-47796082D01*
X91365500Y-37732229D01*
X91385185Y-37665190D01*
X91401814Y-37644553D01*
X91794420Y-37251947D01*
X93615000Y-37251947D01*
X93615000Y-37488052D01*
X93651934Y-37721247D01*
X93724897Y-37945802D01*
X93832087Y-38156174D01*
X93892338Y-38239104D01*
X93892340Y-38239105D01*
X94591212Y-37540233D01*
X94602482Y-37582292D01*
X94674890Y-37707708D01*
X94777292Y-37810110D01*
X94902708Y-37882518D01*
X94944765Y-37893787D01*
X94245893Y-38592658D01*
X94328828Y-38652914D01*
X94539197Y-38760102D01*
X94763752Y-38833065D01*
X94763751Y-38833065D01*
X94996948Y-38870000D01*
X95233052Y-38870000D01*
X95466247Y-38833065D01*
X95690802Y-38760102D01*
X95901163Y-38652918D01*
X95901169Y-38652914D01*
X95984104Y-38592658D01*
X95984105Y-38592658D01*
X95285233Y-37893787D01*
X95327292Y-37882518D01*
X95452708Y-37810110D01*
X95555110Y-37707708D01*
X95627518Y-37582292D01*
X95638787Y-37540234D01*
X96337658Y-38239105D01*
X96337658Y-38239104D01*
X96397914Y-38156169D01*
X96397918Y-38156163D01*
X96505102Y-37945802D01*
X96578065Y-37721247D01*
X96615000Y-37488052D01*
X96615000Y-37251947D01*
X100115000Y-37251947D01*
X100115000Y-37488052D01*
X100151934Y-37721247D01*
X100224897Y-37945802D01*
X100332087Y-38156174D01*
X100392338Y-38239104D01*
X100392340Y-38239105D01*
X101091212Y-37540233D01*
X101102482Y-37582292D01*
X101174890Y-37707708D01*
X101277292Y-37810110D01*
X101402708Y-37882518D01*
X101444765Y-37893787D01*
X100745893Y-38592658D01*
X100828828Y-38652914D01*
X101039197Y-38760102D01*
X101263752Y-38833065D01*
X101263751Y-38833065D01*
X101496948Y-38870000D01*
X101733052Y-38870000D01*
X101966247Y-38833065D01*
X102190802Y-38760102D01*
X102401163Y-38652918D01*
X102401169Y-38652914D01*
X102484104Y-38592658D01*
X102484105Y-38592658D01*
X101785233Y-37893787D01*
X101827292Y-37882518D01*
X101952708Y-37810110D01*
X102055110Y-37707708D01*
X102127518Y-37582292D01*
X102138787Y-37540234D01*
X102837658Y-38239105D01*
X102837658Y-38239104D01*
X102897914Y-38156169D01*
X102897918Y-38156163D01*
X103005102Y-37945802D01*
X103078065Y-37721247D01*
X103115000Y-37488052D01*
X103115000Y-37251947D01*
X103078065Y-37018752D01*
X103005102Y-36794197D01*
X102897914Y-36583828D01*
X102837658Y-36500894D01*
X102837658Y-36500893D01*
X102138787Y-37199765D01*
X102127518Y-37157708D01*
X102055110Y-37032292D01*
X101952708Y-36929890D01*
X101827292Y-36857482D01*
X101785234Y-36846212D01*
X102484105Y-36147340D01*
X102484104Y-36147338D01*
X102401174Y-36087087D01*
X102190802Y-35979897D01*
X101966247Y-35906934D01*
X101966248Y-35906934D01*
X101733052Y-35870000D01*
X101496948Y-35870000D01*
X101263752Y-35906934D01*
X101039197Y-35979897D01*
X100828830Y-36087084D01*
X100745894Y-36147340D01*
X101444766Y-36846212D01*
X101402708Y-36857482D01*
X101277292Y-36929890D01*
X101174890Y-37032292D01*
X101102482Y-37157708D01*
X101091212Y-37199766D01*
X100392340Y-36500894D01*
X100332084Y-36583830D01*
X100224897Y-36794197D01*
X100151934Y-37018752D01*
X100115000Y-37251947D01*
X96615000Y-37251947D01*
X96578065Y-37018752D01*
X96505102Y-36794197D01*
X96397914Y-36583828D01*
X96337658Y-36500894D01*
X96337658Y-36500893D01*
X95638787Y-37199765D01*
X95627518Y-37157708D01*
X95555110Y-37032292D01*
X95452708Y-36929890D01*
X95327292Y-36857482D01*
X95285234Y-36846212D01*
X95984105Y-36147340D01*
X95984104Y-36147339D01*
X95901174Y-36087087D01*
X95690802Y-35979897D01*
X95466247Y-35906934D01*
X95466248Y-35906934D01*
X95233052Y-35870000D01*
X94996948Y-35870000D01*
X94763752Y-35906934D01*
X94539197Y-35979897D01*
X94328830Y-36087084D01*
X94245894Y-36147340D01*
X94944766Y-36846212D01*
X94902708Y-36857482D01*
X94777292Y-36929890D01*
X94674890Y-37032292D01*
X94602482Y-37157708D01*
X94591212Y-37199766D01*
X93892340Y-36500894D01*
X93832084Y-36583830D01*
X93724897Y-36794197D01*
X93651934Y-37018752D01*
X93615000Y-37251947D01*
X91794420Y-37251947D01*
X94675088Y-34371278D01*
X94736409Y-34337795D01*
X94782163Y-34336488D01*
X94843398Y-34346186D01*
X94996903Y-34370500D01*
X94996908Y-34370500D01*
X95233097Y-34370500D01*
X95466368Y-34333553D01*
X95504725Y-34321090D01*
X95690992Y-34260568D01*
X95901433Y-34153343D01*
X96092510Y-34014517D01*
X96259517Y-33847510D01*
X96387313Y-33671613D01*
X96442643Y-33628949D01*
X96487631Y-33620500D01*
X100242369Y-33620500D01*
X100309408Y-33640185D01*
X100342685Y-33671613D01*
X100470483Y-33847510D01*
X100637490Y-34014517D01*
X100828567Y-34153343D01*
X100927991Y-34204002D01*
X101039003Y-34260566D01*
X101039005Y-34260566D01*
X101039008Y-34260568D01*
X101092252Y-34277868D01*
X101263631Y-34333553D01*
X101496903Y-34370500D01*
X101496908Y-34370500D01*
X101733097Y-34370500D01*
X101966368Y-34333553D01*
X102004725Y-34321090D01*
X102190992Y-34260568D01*
X102401433Y-34153343D01*
X102592510Y-34014517D01*
X102759517Y-33847510D01*
X102898343Y-33656433D01*
X103005568Y-33445992D01*
X103078553Y-33221368D01*
X103081489Y-33202832D01*
X103115500Y-32988097D01*
X103115500Y-32751902D01*
X103078553Y-32518631D01*
X103012128Y-32314197D01*
X103005568Y-32294008D01*
X103005566Y-32294005D01*
X103005566Y-32294003D01*
X102926073Y-32137990D01*
X102898343Y-32083567D01*
X102759517Y-31892490D01*
X102592510Y-31725483D01*
X102401433Y-31586657D01*
X102332157Y-31551359D01*
X102190996Y-31479433D01*
X101966368Y-31406446D01*
X101733097Y-31369500D01*
X101733092Y-31369500D01*
X101496908Y-31369500D01*
X101496903Y-31369500D01*
X101263631Y-31406446D01*
X101039003Y-31479433D01*
X100828566Y-31586657D01*
X100719550Y-31665862D01*
X100637490Y-31725483D01*
X100637488Y-31725485D01*
X100637487Y-31725485D01*
X100517053Y-31845920D01*
X100470483Y-31892490D01*
X100342687Y-32068386D01*
X100287357Y-32111051D01*
X100242369Y-32119500D01*
X96487631Y-32119500D01*
X96420592Y-32099815D01*
X96387313Y-32068386D01*
X96259517Y-31892490D01*
X96092510Y-31725483D01*
X95901433Y-31586657D01*
X95832157Y-31551359D01*
X95690996Y-31479433D01*
X95466368Y-31406446D01*
X95233097Y-31369500D01*
X95233092Y-31369500D01*
X94996908Y-31369500D01*
X94996903Y-31369500D01*
X94763631Y-31406446D01*
X94539003Y-31479433D01*
X94328566Y-31586657D01*
X94219550Y-31665862D01*
X94137490Y-31725483D01*
X94137488Y-31725485D01*
X94137487Y-31725485D01*
X94017053Y-31845920D01*
X93970483Y-31892490D01*
X93887066Y-32007302D01*
X93831657Y-32083566D01*
X93724433Y-32294003D01*
X93651446Y-32518631D01*
X93614500Y-32751902D01*
X93614500Y-32988097D01*
X93648511Y-33202832D01*
X93639557Y-33272125D01*
X93613719Y-33309911D01*
X90032050Y-36891580D01*
X90032044Y-36891588D01*
X89982812Y-36965268D01*
X89982813Y-36965269D01*
X89949921Y-37014496D01*
X89949914Y-37014508D01*
X89893342Y-37151086D01*
X89893340Y-37151092D01*
X89864500Y-37296079D01*
X89864500Y-47507770D01*
X89844815Y-47574809D01*
X89828181Y-47595451D01*
X83220451Y-54203181D01*
X83159128Y-54236666D01*
X83132770Y-54239500D01*
X60041075Y-54239500D01*
X60029352Y-54241832D01*
X59959761Y-54235602D01*
X59917485Y-54207895D01*
X57497218Y-51787628D01*
X57463733Y-51726305D01*
X57464241Y-51679588D01*
X57462715Y-51679347D01*
X57486118Y-51531585D01*
X57495500Y-51472352D01*
X57495500Y-51267648D01*
X57463477Y-51065466D01*
X57448670Y-51019896D01*
X57408073Y-50894951D01*
X57400220Y-50870781D01*
X57400218Y-50870778D01*
X57400218Y-50870776D01*
X57363362Y-50798443D01*
X57307287Y-50688390D01*
X57299556Y-50677749D01*
X57186971Y-50522786D01*
X57042213Y-50378028D01*
X56876613Y-50257715D01*
X56876612Y-50257714D01*
X56876610Y-50257713D01*
X56819653Y-50228691D01*
X56694223Y-50164781D01*
X56499534Y-50101522D01*
X56324995Y-50073878D01*
X56297352Y-50069500D01*
X56092648Y-50069500D01*
X56068329Y-50073351D01*
X55890465Y-50101522D01*
X55695776Y-50164781D01*
X55513386Y-50257715D01*
X55347786Y-50378028D01*
X55203028Y-50522786D01*
X55082715Y-50688386D01*
X54989781Y-50870776D01*
X54926522Y-51065465D01*
X54894500Y-51267648D01*
X54894500Y-51472351D01*
X54926522Y-51674534D01*
X54989781Y-51869223D01*
X55082715Y-52051613D01*
X55203028Y-52217213D01*
X55347786Y-52361971D01*
X55502749Y-52474556D01*
X55513390Y-52482287D01*
X55629607Y-52541503D01*
X55695776Y-52575218D01*
X55695778Y-52575218D01*
X55695781Y-52575220D01*
X55800137Y-52609127D01*
X55890465Y-52638477D01*
X55966375Y-52650500D01*
X56092648Y-52670500D01*
X56092649Y-52670500D01*
X56297351Y-52670500D01*
X56297352Y-52670500D01*
X56366371Y-52659568D01*
X56504347Y-52637715D01*
X56504672Y-52639767D01*
X56565743Y-52642802D01*
X56612628Y-52672218D01*
X58093229Y-54152819D01*
X58126714Y-54214142D01*
X58121730Y-54283834D01*
X58079858Y-54339767D01*
X58014394Y-54364184D01*
X58005548Y-54364500D01*
X57452741Y-54364500D01*
X57452721Y-54364499D01*
X57446607Y-54364499D01*
X57323394Y-54364499D01*
X57222597Y-54384548D01*
X57222592Y-54384548D01*
X57202549Y-54388536D01*
X57202547Y-54388536D01*
X57155397Y-54408067D01*
X57088719Y-54435685D01*
X57088717Y-54435686D01*
X56986266Y-54504141D01*
X56986263Y-54504144D01*
X56832681Y-54657727D01*
X56832399Y-54657880D01*
X56832244Y-54658162D01*
X56801681Y-54674653D01*
X56771358Y-54691212D01*
X56771039Y-54691189D01*
X56770756Y-54691342D01*
X56736190Y-54688697D01*
X56701666Y-54686228D01*
X56701300Y-54686027D01*
X56701089Y-54686011D01*
X56700058Y-54685344D01*
X56670197Y-54668943D01*
X56663371Y-54663780D01*
X56643733Y-54644142D01*
X56592509Y-54609915D01*
X56541286Y-54575688D01*
X56541283Y-54575686D01*
X56541280Y-54575685D01*
X56468374Y-54545487D01*
X56468370Y-54545486D01*
X56460792Y-54542347D01*
X56427452Y-54528537D01*
X56342221Y-54511584D01*
X56338326Y-54510809D01*
X56338314Y-54510806D01*
X56312581Y-54505688D01*
X56306607Y-54504500D01*
X56306606Y-54504500D01*
X48306606Y-54504500D01*
X47806606Y-54504500D01*
X47683393Y-54504500D01*
X47683388Y-54504500D01*
X47562555Y-54528535D01*
X47562547Y-54528537D01*
X47448716Y-54575687D01*
X47360691Y-54634503D01*
X47360692Y-54634504D01*
X47346262Y-54644145D01*
X47346260Y-54644147D01*
X46727884Y-55262524D01*
X46727870Y-55262538D01*
X46726269Y-55264140D01*
X46726267Y-55264142D01*
X46639142Y-55351267D01*
X46628537Y-55367139D01*
X46623029Y-55375381D01*
X46623027Y-55375384D01*
X46570690Y-55453710D01*
X46570685Y-55453719D01*
X46523540Y-55567538D01*
X46523535Y-55567554D01*
X46506125Y-55655085D01*
X46506125Y-55655086D01*
X46499500Y-55688391D01*
X46499500Y-56644845D01*
X46479815Y-56711884D01*
X46427011Y-56757639D01*
X46414505Y-56762551D01*
X46255666Y-56815186D01*
X46255663Y-56815187D01*
X46106342Y-56907289D01*
X45982289Y-57031342D01*
X45890187Y-57180663D01*
X45890185Y-57180668D01*
X45883074Y-57202128D01*
X45835001Y-57347203D01*
X45835001Y-57347204D01*
X45835000Y-57347204D01*
X45824500Y-57449983D01*
X45824500Y-58140903D01*
X45804815Y-58207942D01*
X45752011Y-58253697D01*
X45682853Y-58263641D01*
X45619297Y-58234616D01*
X45612819Y-58228584D01*
X39072590Y-51688355D01*
X39072588Y-51688352D01*
X38953717Y-51569481D01*
X38953716Y-51569480D01*
X38866904Y-51519360D01*
X38866904Y-51519359D01*
X38866900Y-51519358D01*
X38816785Y-51490423D01*
X38664057Y-51449499D01*
X38505943Y-51449499D01*
X38498347Y-51449499D01*
X38498331Y-51449500D01*
X29030719Y-51449500D01*
X29018400Y-51445882D01*
X29005602Y-51446930D01*
X28985513Y-51436226D01*
X28963680Y-51429815D01*
X28953830Y-51419344D01*
X28943940Y-51414074D01*
X28926377Y-51390158D01*
X28922501Y-51386038D01*
X28921319Y-51383925D01*
X28900051Y-51342184D01*
X28891000Y-51329726D01*
X28890996Y-51329719D01*
X28845899Y-51267648D01*
X44734500Y-51267648D01*
X44734500Y-51472351D01*
X44766522Y-51674534D01*
X44829781Y-51869223D01*
X44922715Y-52051613D01*
X45043028Y-52217213D01*
X45187786Y-52361971D01*
X45342749Y-52474556D01*
X45353390Y-52482287D01*
X45469607Y-52541503D01*
X45535776Y-52575218D01*
X45535778Y-52575218D01*
X45535781Y-52575220D01*
X45640137Y-52609127D01*
X45730465Y-52638477D01*
X45806375Y-52650500D01*
X45932648Y-52670500D01*
X45932649Y-52670500D01*
X46137351Y-52670500D01*
X46137352Y-52670500D01*
X46339534Y-52638477D01*
X46534219Y-52575220D01*
X46716610Y-52482287D01*
X46809590Y-52414732D01*
X46882213Y-52361971D01*
X46882215Y-52361968D01*
X46882219Y-52361966D01*
X47026966Y-52217219D01*
X47026968Y-52217215D01*
X47026971Y-52217213D01*
X47079732Y-52144590D01*
X47147287Y-52051610D01*
X47240220Y-51869219D01*
X47303477Y-51674534D01*
X47335500Y-51472352D01*
X47335500Y-51267648D01*
X47303477Y-51065466D01*
X47288670Y-51019896D01*
X47248073Y-50894951D01*
X47240220Y-50870781D01*
X47240218Y-50870778D01*
X47240218Y-50870776D01*
X47203362Y-50798443D01*
X47147287Y-50688390D01*
X47139556Y-50677749D01*
X47026971Y-50522786D01*
X46882213Y-50378028D01*
X46716613Y-50257715D01*
X46716612Y-50257714D01*
X46716610Y-50257713D01*
X46659653Y-50228691D01*
X46534223Y-50164781D01*
X46339534Y-50101522D01*
X46164995Y-50073878D01*
X46137352Y-50069500D01*
X45932648Y-50069500D01*
X45908329Y-50073351D01*
X45730465Y-50101522D01*
X45535776Y-50164781D01*
X45353386Y-50257715D01*
X45187786Y-50378028D01*
X45043028Y-50522786D01*
X44922715Y-50688386D01*
X44829781Y-50870776D01*
X44766522Y-51065465D01*
X44734500Y-51267648D01*
X28845899Y-51267648D01*
X28775109Y-51170214D01*
X28775105Y-51170209D01*
X28624786Y-51019890D01*
X28452820Y-50894951D01*
X28263414Y-50798444D01*
X28263413Y-50798443D01*
X28263412Y-50798443D01*
X28061243Y-50732754D01*
X28061241Y-50732753D01*
X28061240Y-50732753D01*
X27899957Y-50707208D01*
X27851287Y-50699500D01*
X27638713Y-50699500D01*
X27590042Y-50707208D01*
X27428760Y-50732753D01*
X27226585Y-50798444D01*
X27037179Y-50894951D01*
X26865213Y-51019890D01*
X26714890Y-51170213D01*
X26589951Y-51342179D01*
X26493444Y-51531585D01*
X26427753Y-51733760D01*
X26394500Y-51943713D01*
X19500500Y-51943713D01*
X19500500Y-34981386D01*
X30249500Y-34981386D01*
X30249500Y-36918613D01*
X30249501Y-36918652D01*
X30252295Y-36971243D01*
X30252295Y-36971244D01*
X30287514Y-37153343D01*
X30296755Y-37201126D01*
X30332589Y-37296079D01*
X30379425Y-37420189D01*
X30497929Y-37622131D01*
X30497934Y-37622138D01*
X30648856Y-37801141D01*
X30648858Y-37801143D01*
X30827861Y-37952065D01*
X30827868Y-37952070D01*
X31029810Y-38070574D01*
X31248874Y-38153245D01*
X31478759Y-38197705D01*
X31531378Y-38200500D01*
X31531386Y-38200500D01*
X33468614Y-38200500D01*
X33468622Y-38200500D01*
X33521241Y-38197705D01*
X33751126Y-38153245D01*
X33970190Y-38070574D01*
X34172132Y-37952070D01*
X34254625Y-37882518D01*
X34351141Y-37801143D01*
X34351143Y-37801141D01*
X34502065Y-37622138D01*
X34502065Y-37622137D01*
X34502070Y-37622132D01*
X34620574Y-37420190D01*
X34703245Y-37201126D01*
X34747705Y-36971241D01*
X34750500Y-36918622D01*
X34750500Y-35501902D01*
X40249500Y-35501902D01*
X40249500Y-35738097D01*
X40286446Y-35971368D01*
X40359433Y-36195996D01*
X40454472Y-36382518D01*
X40466657Y-36406433D01*
X40605483Y-36597510D01*
X40772490Y-36764517D01*
X40963567Y-36903343D01*
X41062991Y-36954002D01*
X41174003Y-37010566D01*
X41174005Y-37010566D01*
X41174008Y-37010568D01*
X41294412Y-37049689D01*
X41398631Y-37083553D01*
X41631903Y-37120500D01*
X41631908Y-37120500D01*
X41868097Y-37120500D01*
X42101368Y-37083553D01*
X42127020Y-37075218D01*
X42325992Y-37010568D01*
X42536433Y-36903343D01*
X42727510Y-36764517D01*
X42894517Y-36597510D01*
X43033343Y-36406433D01*
X43140568Y-36195992D01*
X43213553Y-35971368D01*
X43229608Y-35870000D01*
X43250500Y-35738097D01*
X43250500Y-35501902D01*
X46749500Y-35501902D01*
X46749500Y-35738097D01*
X46786446Y-35971368D01*
X46859433Y-36195996D01*
X46954472Y-36382518D01*
X46966657Y-36406433D01*
X47105483Y-36597510D01*
X47272490Y-36764517D01*
X47463567Y-36903343D01*
X47562991Y-36954002D01*
X47674003Y-37010566D01*
X47674005Y-37010566D01*
X47674008Y-37010568D01*
X47794412Y-37049689D01*
X47898631Y-37083553D01*
X48131903Y-37120500D01*
X48131908Y-37120500D01*
X48368097Y-37120500D01*
X48601368Y-37083553D01*
X48627020Y-37075218D01*
X48825992Y-37010568D01*
X49036433Y-36903343D01*
X49227510Y-36764517D01*
X49394517Y-36597510D01*
X49533343Y-36406433D01*
X49640568Y-36195992D01*
X49713553Y-35971368D01*
X49718140Y-35942409D01*
X49745820Y-35767648D01*
X51814500Y-35767648D01*
X51814500Y-35972351D01*
X51846522Y-36174534D01*
X51909781Y-36369223D01*
X52002715Y-36551613D01*
X52123028Y-36717213D01*
X52267786Y-36861971D01*
X52409968Y-36965270D01*
X52433390Y-36982287D01*
X52531530Y-37032292D01*
X52615776Y-37075218D01*
X52615778Y-37075218D01*
X52615781Y-37075220D01*
X52720137Y-37109127D01*
X52810465Y-37138477D01*
X52904318Y-37153342D01*
X53012648Y-37170500D01*
X53012649Y-37170500D01*
X53217351Y-37170500D01*
X53217352Y-37170500D01*
X53419534Y-37138477D01*
X53614219Y-37075220D01*
X53796610Y-36982287D01*
X53905268Y-36903343D01*
X53962213Y-36861971D01*
X53962215Y-36861968D01*
X53962219Y-36861966D01*
X54106966Y-36717219D01*
X54106968Y-36717215D01*
X54106971Y-36717213D01*
X54159732Y-36644590D01*
X54227287Y-36551610D01*
X54320220Y-36369219D01*
X54383477Y-36174534D01*
X54415500Y-35972352D01*
X54415500Y-35767648D01*
X54413006Y-35751902D01*
X56574500Y-35751902D01*
X56574500Y-35988097D01*
X56611446Y-36221368D01*
X56684433Y-36445996D01*
X56761635Y-36597512D01*
X56791657Y-36656433D01*
X56930483Y-36847510D01*
X57097490Y-37014517D01*
X57288567Y-37153343D01*
X57387991Y-37204002D01*
X57499003Y-37260566D01*
X57499005Y-37260566D01*
X57499008Y-37260568D01*
X57612953Y-37297591D01*
X57723631Y-37333553D01*
X57956903Y-37370500D01*
X57956908Y-37370500D01*
X58193097Y-37370500D01*
X58426368Y-37333553D01*
X58650992Y-37260568D01*
X58861433Y-37153343D01*
X59052510Y-37014517D01*
X59219517Y-36847510D01*
X59358343Y-36656433D01*
X59465568Y-36445992D01*
X59538553Y-36221368D01*
X59540717Y-36207708D01*
X59575500Y-35988097D01*
X59575500Y-35751902D01*
X61654500Y-35751902D01*
X61654500Y-35988097D01*
X61691446Y-36221368D01*
X61764433Y-36445996D01*
X61841635Y-36597512D01*
X61871657Y-36656433D01*
X62010483Y-36847510D01*
X62177490Y-37014517D01*
X62368567Y-37153343D01*
X62467991Y-37204002D01*
X62579003Y-37260566D01*
X62579005Y-37260566D01*
X62579008Y-37260568D01*
X62692953Y-37297591D01*
X62803631Y-37333553D01*
X63036903Y-37370500D01*
X63036908Y-37370500D01*
X63273097Y-37370500D01*
X63506368Y-37333553D01*
X63730992Y-37260568D01*
X63941433Y-37153343D01*
X64132510Y-37014517D01*
X64299517Y-36847510D01*
X64438343Y-36656433D01*
X64545568Y-36445992D01*
X64618553Y-36221368D01*
X64620717Y-36207708D01*
X64655500Y-35988097D01*
X64655500Y-35767648D01*
X67814500Y-35767648D01*
X67814500Y-35972351D01*
X67846522Y-36174534D01*
X67909781Y-36369223D01*
X68002715Y-36551613D01*
X68123028Y-36717213D01*
X68267786Y-36861971D01*
X68409968Y-36965270D01*
X68433390Y-36982287D01*
X68531530Y-37032292D01*
X68615776Y-37075218D01*
X68615778Y-37075218D01*
X68615781Y-37075220D01*
X68720137Y-37109127D01*
X68810465Y-37138477D01*
X68904318Y-37153342D01*
X69012648Y-37170500D01*
X69012649Y-37170500D01*
X69217351Y-37170500D01*
X69217352Y-37170500D01*
X69419534Y-37138477D01*
X69614219Y-37075220D01*
X69796610Y-36982287D01*
X69905268Y-36903343D01*
X69962213Y-36861971D01*
X69962215Y-36861968D01*
X69962219Y-36861966D01*
X70106966Y-36717219D01*
X70106968Y-36717215D01*
X70106971Y-36717213D01*
X70159732Y-36644590D01*
X70227287Y-36551610D01*
X70320220Y-36369219D01*
X70383477Y-36174534D01*
X70415500Y-35972352D01*
X70415500Y-35767648D01*
X70383477Y-35565466D01*
X70368259Y-35518631D01*
X70320218Y-35370776D01*
X70266190Y-35264742D01*
X70227287Y-35188390D01*
X70219556Y-35177749D01*
X70106971Y-35022786D01*
X69962213Y-34878028D01*
X69885281Y-34822135D01*
X75582000Y-34822135D01*
X75582000Y-36917870D01*
X75582001Y-36917876D01*
X75588408Y-36977483D01*
X75638702Y-37112328D01*
X75638706Y-37112335D01*
X75724952Y-37227544D01*
X75724955Y-37227547D01*
X75840164Y-37313793D01*
X75840171Y-37313797D01*
X75975017Y-37364091D01*
X75975016Y-37364091D01*
X75981944Y-37364835D01*
X76034627Y-37370500D01*
X78035372Y-37370499D01*
X78094983Y-37364091D01*
X78229831Y-37313796D01*
X78345046Y-37227546D01*
X78431296Y-37112331D01*
X78441872Y-37083974D01*
X78483740Y-37028041D01*
X78549204Y-37003622D01*
X78617477Y-37018472D01*
X78630940Y-37026988D01*
X78813723Y-37159788D01*
X79017429Y-37263582D01*
X79234871Y-37334234D01*
X79325000Y-37348509D01*
X79325000Y-36360747D01*
X79362708Y-36382518D01*
X79502591Y-36420000D01*
X79647409Y-36420000D01*
X79787292Y-36382518D01*
X79825000Y-36360747D01*
X79825000Y-37348508D01*
X79915128Y-37334234D01*
X80132570Y-37263582D01*
X80336276Y-37159788D01*
X80521242Y-37025402D01*
X80682905Y-36863739D01*
X80744371Y-36779137D01*
X80799701Y-36736470D01*
X80869314Y-36730491D01*
X80931109Y-36763096D01*
X80945007Y-36779134D01*
X81006714Y-36864066D01*
X81168434Y-37025786D01*
X81353462Y-37160217D01*
X81550408Y-37260566D01*
X81557244Y-37264049D01*
X81774751Y-37334721D01*
X81774752Y-37334721D01*
X81774755Y-37334722D01*
X82000646Y-37370500D01*
X82000647Y-37370500D01*
X82229353Y-37370500D01*
X82229354Y-37370500D01*
X82455245Y-37334722D01*
X82455248Y-37334721D01*
X82455249Y-37334721D01*
X82672755Y-37264049D01*
X82672755Y-37264048D01*
X82672758Y-37264048D01*
X82876538Y-37160217D01*
X83061566Y-37025786D01*
X83223286Y-36864066D01*
X83357717Y-36679038D01*
X83461548Y-36475258D01*
X83532222Y-36257745D01*
X83568000Y-36031854D01*
X83568000Y-35708146D01*
X83532222Y-35482255D01*
X83532221Y-35482251D01*
X83532221Y-35482250D01*
X83461549Y-35264744D01*
X83422643Y-35188386D01*
X83357717Y-35060962D01*
X83223286Y-34875934D01*
X83061566Y-34714214D01*
X82876538Y-34579783D01*
X82672755Y-34475950D01*
X82455248Y-34405278D01*
X82240592Y-34371280D01*
X82229354Y-34369500D01*
X82000646Y-34369500D01*
X81989408Y-34371280D01*
X81774753Y-34405278D01*
X81774750Y-34405278D01*
X81557244Y-34475950D01*
X81353461Y-34579783D01*
X81267156Y-34642488D01*
X81168434Y-34714214D01*
X81168432Y-34714216D01*
X81168431Y-34714216D01*
X81006716Y-34875931D01*
X81006709Y-34875940D01*
X80945007Y-34960864D01*
X80889677Y-35003530D01*
X80820063Y-35009508D01*
X80758269Y-34976901D01*
X80744372Y-34960863D01*
X80682907Y-34876263D01*
X80682902Y-34876257D01*
X80521242Y-34714597D01*
X80336276Y-34580211D01*
X80132568Y-34476417D01*
X79915124Y-34405765D01*
X79825000Y-34391490D01*
X79825000Y-35379252D01*
X79787292Y-35357482D01*
X79647409Y-35320000D01*
X79502591Y-35320000D01*
X79362708Y-35357482D01*
X79325000Y-35379252D01*
X79325000Y-34391490D01*
X79324999Y-34391490D01*
X79234875Y-34405765D01*
X79017431Y-34476417D01*
X78813719Y-34580213D01*
X78630939Y-34713010D01*
X78565132Y-34736490D01*
X78497079Y-34720664D01*
X78448384Y-34670558D01*
X78441875Y-34656033D01*
X78431296Y-34627669D01*
X78431295Y-34627667D01*
X78431293Y-34627664D01*
X78345047Y-34512455D01*
X78345044Y-34512452D01*
X78229835Y-34426206D01*
X78229828Y-34426202D01*
X78094982Y-34375908D01*
X78094983Y-34375908D01*
X78035383Y-34369501D01*
X78035381Y-34369500D01*
X78035373Y-34369500D01*
X78035364Y-34369500D01*
X76034629Y-34369500D01*
X76034623Y-34369501D01*
X75975016Y-34375908D01*
X75840171Y-34426202D01*
X75840164Y-34426206D01*
X75724955Y-34512452D01*
X75724952Y-34512455D01*
X75638706Y-34627664D01*
X75638702Y-34627671D01*
X75588408Y-34762517D01*
X75582001Y-34822116D01*
X75582000Y-34822135D01*
X69885281Y-34822135D01*
X69796613Y-34757715D01*
X69796612Y-34757714D01*
X69796610Y-34757713D01*
X69733355Y-34725483D01*
X69614223Y-34664781D01*
X69419534Y-34601522D01*
X69244995Y-34573878D01*
X69217352Y-34569500D01*
X69012648Y-34569500D01*
X68988329Y-34573351D01*
X68810465Y-34601522D01*
X68615776Y-34664781D01*
X68433386Y-34757715D01*
X68267786Y-34878028D01*
X68123028Y-35022786D01*
X68002715Y-35188386D01*
X67909781Y-35370776D01*
X67846522Y-35565465D01*
X67814500Y-35767648D01*
X64655500Y-35767648D01*
X64655500Y-35751902D01*
X64618553Y-35518631D01*
X64570513Y-35370781D01*
X64545568Y-35294008D01*
X64545566Y-35294005D01*
X64545566Y-35294003D01*
X64438342Y-35083566D01*
X64421919Y-35060962D01*
X64299517Y-34892490D01*
X64132510Y-34725483D01*
X63941433Y-34586657D01*
X63927942Y-34579783D01*
X63730996Y-34479433D01*
X63506368Y-34406446D01*
X63273097Y-34369500D01*
X63273092Y-34369500D01*
X63036908Y-34369500D01*
X63036903Y-34369500D01*
X62803631Y-34406446D01*
X62579003Y-34479433D01*
X62368566Y-34586657D01*
X62273092Y-34656024D01*
X62177490Y-34725483D01*
X62177488Y-34725485D01*
X62177487Y-34725485D01*
X62010485Y-34892487D01*
X62010485Y-34892488D01*
X62010483Y-34892490D01*
X61984135Y-34928755D01*
X61871657Y-35083566D01*
X61764433Y-35294003D01*
X61691446Y-35518631D01*
X61654500Y-35751902D01*
X59575500Y-35751902D01*
X59538553Y-35518631D01*
X59490513Y-35370781D01*
X59465568Y-35294008D01*
X59465566Y-35294005D01*
X59465566Y-35294003D01*
X59358342Y-35083566D01*
X59341919Y-35060962D01*
X59219517Y-34892490D01*
X59052510Y-34725483D01*
X58861433Y-34586657D01*
X58847942Y-34579783D01*
X58650996Y-34479433D01*
X58426368Y-34406446D01*
X58193097Y-34369500D01*
X58193092Y-34369500D01*
X57956908Y-34369500D01*
X57956903Y-34369500D01*
X57723631Y-34406446D01*
X57499003Y-34479433D01*
X57288566Y-34586657D01*
X57193092Y-34656024D01*
X57097490Y-34725483D01*
X57097488Y-34725485D01*
X57097487Y-34725485D01*
X56930485Y-34892487D01*
X56930485Y-34892488D01*
X56930483Y-34892490D01*
X56904135Y-34928755D01*
X56791657Y-35083566D01*
X56684433Y-35294003D01*
X56611446Y-35518631D01*
X56574500Y-35751902D01*
X54413006Y-35751902D01*
X54383477Y-35565466D01*
X54368259Y-35518631D01*
X54320218Y-35370776D01*
X54266190Y-35264742D01*
X54227287Y-35188390D01*
X54219556Y-35177749D01*
X54106971Y-35022786D01*
X53962213Y-34878028D01*
X53796613Y-34757715D01*
X53796612Y-34757714D01*
X53796610Y-34757713D01*
X53733355Y-34725483D01*
X53614223Y-34664781D01*
X53419534Y-34601522D01*
X53244995Y-34573878D01*
X53217352Y-34569500D01*
X53012648Y-34569500D01*
X52988329Y-34573351D01*
X52810465Y-34601522D01*
X52615776Y-34664781D01*
X52433386Y-34757715D01*
X52267786Y-34878028D01*
X52123028Y-35022786D01*
X52002715Y-35188386D01*
X51909781Y-35370776D01*
X51846522Y-35565465D01*
X51814500Y-35767648D01*
X49745820Y-35767648D01*
X49749664Y-35743378D01*
X49750500Y-35738096D01*
X49750500Y-35501902D01*
X49713553Y-35268631D01*
X49679689Y-35164412D01*
X49640568Y-35044008D01*
X49640566Y-35044005D01*
X49640566Y-35044003D01*
X49555997Y-34878028D01*
X49533343Y-34833567D01*
X49394517Y-34642490D01*
X49227510Y-34475483D01*
X49036433Y-34336657D01*
X49005881Y-34321090D01*
X48825996Y-34229433D01*
X48601368Y-34156446D01*
X48368097Y-34119500D01*
X48368092Y-34119500D01*
X48131908Y-34119500D01*
X48131903Y-34119500D01*
X47898631Y-34156446D01*
X47674003Y-34229433D01*
X47463566Y-34336657D01*
X47354550Y-34415862D01*
X47272490Y-34475483D01*
X47272488Y-34475485D01*
X47272487Y-34475485D01*
X47105485Y-34642487D01*
X47105485Y-34642488D01*
X47105483Y-34642490D01*
X47064515Y-34698878D01*
X46966657Y-34833566D01*
X46859433Y-35044003D01*
X46786446Y-35268631D01*
X46749500Y-35501902D01*
X43250500Y-35501902D01*
X43213553Y-35268631D01*
X43179689Y-35164412D01*
X43140568Y-35044008D01*
X43140566Y-35044005D01*
X43140566Y-35044003D01*
X43055997Y-34878028D01*
X43033343Y-34833567D01*
X42894517Y-34642490D01*
X42727510Y-34475483D01*
X42536433Y-34336657D01*
X42505881Y-34321090D01*
X42325996Y-34229433D01*
X42101368Y-34156446D01*
X41868097Y-34119500D01*
X41868092Y-34119500D01*
X41631908Y-34119500D01*
X41631903Y-34119500D01*
X41398631Y-34156446D01*
X41174003Y-34229433D01*
X40963566Y-34336657D01*
X40854550Y-34415862D01*
X40772490Y-34475483D01*
X40772488Y-34475485D01*
X40772487Y-34475485D01*
X40605485Y-34642487D01*
X40605485Y-34642488D01*
X40605483Y-34642490D01*
X40564515Y-34698878D01*
X40466657Y-34833566D01*
X40359433Y-35044003D01*
X40286446Y-35268631D01*
X40249500Y-35501902D01*
X34750500Y-35501902D01*
X34750500Y-34981378D01*
X34747705Y-34928759D01*
X34703245Y-34698874D01*
X34620574Y-34479810D01*
X34502070Y-34277868D01*
X34502065Y-34277861D01*
X34351143Y-34098858D01*
X34351141Y-34098856D01*
X34172138Y-33947934D01*
X34172131Y-33947929D01*
X33970189Y-33829425D01*
X33872513Y-33792564D01*
X33751126Y-33746755D01*
X33751121Y-33746754D01*
X33751116Y-33746752D01*
X33748470Y-33746240D01*
X33747451Y-33745713D01*
X33746050Y-33745317D01*
X33746130Y-33745031D01*
X33686392Y-33714177D01*
X33651503Y-33653641D01*
X33654881Y-33583853D01*
X33695452Y-33526970D01*
X33760337Y-33501052D01*
X33772009Y-33500499D01*
X37297872Y-33500499D01*
X37357483Y-33494091D01*
X37492331Y-33443796D01*
X37607546Y-33357546D01*
X37693796Y-33242331D01*
X37744091Y-33107483D01*
X37750500Y-33047873D01*
X37750499Y-31001902D01*
X40249500Y-31001902D01*
X40249500Y-31238097D01*
X40286446Y-31471368D01*
X40359433Y-31695996D01*
X40374458Y-31725483D01*
X40466657Y-31906433D01*
X40605483Y-32097510D01*
X40772490Y-32264517D01*
X40963567Y-32403343D01*
X41041385Y-32442993D01*
X41174003Y-32510566D01*
X41174005Y-32510566D01*
X41174008Y-32510568D01*
X41294412Y-32549689D01*
X41398631Y-32583553D01*
X41631903Y-32620500D01*
X41631908Y-32620500D01*
X41868097Y-32620500D01*
X42101368Y-32583553D01*
X42325992Y-32510568D01*
X42536433Y-32403343D01*
X42727510Y-32264517D01*
X42894517Y-32097510D01*
X43033343Y-31906433D01*
X43140568Y-31695992D01*
X43213553Y-31471368D01*
X43250500Y-31238097D01*
X43250500Y-31001902D01*
X46749500Y-31001902D01*
X46749500Y-31238097D01*
X46786446Y-31471368D01*
X46859433Y-31695996D01*
X46874458Y-31725483D01*
X46966657Y-31906433D01*
X47105483Y-32097510D01*
X47272490Y-32264517D01*
X47463567Y-32403343D01*
X47541385Y-32442993D01*
X47674003Y-32510566D01*
X47674005Y-32510566D01*
X47674008Y-32510568D01*
X47794412Y-32549689D01*
X47898631Y-32583553D01*
X48131903Y-32620500D01*
X48131908Y-32620500D01*
X48368097Y-32620500D01*
X48601368Y-32583553D01*
X48825992Y-32510568D01*
X49036433Y-32403343D01*
X49227510Y-32264517D01*
X49394517Y-32097510D01*
X49533343Y-31906433D01*
X49640568Y-31695992D01*
X49713553Y-31471368D01*
X49750500Y-31238097D01*
X49750500Y-31001902D01*
X49715704Y-30782214D01*
X49713553Y-30768632D01*
X49713244Y-30767682D01*
X51815000Y-30767682D01*
X51815000Y-30972317D01*
X51847009Y-31174417D01*
X51910244Y-31369031D01*
X52003141Y-31551350D01*
X52003147Y-31551359D01*
X52035523Y-31595921D01*
X52035524Y-31595922D01*
X52715000Y-30916446D01*
X52715000Y-30922661D01*
X52742259Y-31024394D01*
X52794920Y-31115606D01*
X52869394Y-31190080D01*
X52960606Y-31242741D01*
X53062339Y-31270000D01*
X53068553Y-31270000D01*
X52389076Y-31949474D01*
X52433650Y-31981859D01*
X52615968Y-32074755D01*
X52810582Y-32137990D01*
X53012683Y-32170000D01*
X53217317Y-32170000D01*
X53419417Y-32137990D01*
X53614031Y-32074755D01*
X53796349Y-31981859D01*
X53840921Y-31949474D01*
X53161447Y-31270000D01*
X53167661Y-31270000D01*
X53269394Y-31242741D01*
X53360606Y-31190080D01*
X53435080Y-31115606D01*
X53487741Y-31024394D01*
X53515000Y-30922661D01*
X53515000Y-30916447D01*
X54194474Y-31595921D01*
X54226859Y-31551349D01*
X54319755Y-31369031D01*
X54382990Y-31174417D01*
X54415000Y-30972317D01*
X54415000Y-30767682D01*
X67815000Y-30767682D01*
X67815000Y-30972317D01*
X67847009Y-31174417D01*
X67910244Y-31369031D01*
X68003141Y-31551350D01*
X68003147Y-31551359D01*
X68035523Y-31595921D01*
X68035524Y-31595922D01*
X68715000Y-30916446D01*
X68715000Y-30922661D01*
X68742259Y-31024394D01*
X68794920Y-31115606D01*
X68869394Y-31190080D01*
X68960606Y-31242741D01*
X69062339Y-31270000D01*
X69068553Y-31270000D01*
X68389076Y-31949474D01*
X68433650Y-31981859D01*
X68615968Y-32074755D01*
X68810582Y-32137990D01*
X69012683Y-32170000D01*
X69217317Y-32170000D01*
X69419417Y-32137990D01*
X69614031Y-32074755D01*
X69796349Y-31981859D01*
X69840921Y-31949474D01*
X69161447Y-31270000D01*
X69167661Y-31270000D01*
X69269394Y-31242741D01*
X69360606Y-31190080D01*
X69435080Y-31115606D01*
X69487741Y-31024394D01*
X69515000Y-30922661D01*
X69515000Y-30916447D01*
X70194474Y-31595921D01*
X70226859Y-31551349D01*
X70319755Y-31369031D01*
X70382990Y-31174417D01*
X70415000Y-30972317D01*
X70415000Y-30767682D01*
X70382990Y-30565582D01*
X70319755Y-30370968D01*
X70226859Y-30188650D01*
X70194474Y-30144077D01*
X70194474Y-30144076D01*
X69515000Y-30823551D01*
X69515000Y-30817339D01*
X69487741Y-30715606D01*
X69435080Y-30624394D01*
X69360606Y-30549920D01*
X69269394Y-30497259D01*
X69167661Y-30470000D01*
X69161446Y-30470000D01*
X69840922Y-29790524D01*
X69840921Y-29790523D01*
X69796359Y-29758147D01*
X69796350Y-29758141D01*
X69614031Y-29665244D01*
X69419417Y-29602009D01*
X69217317Y-29570000D01*
X69012683Y-29570000D01*
X68810582Y-29602009D01*
X68615968Y-29665244D01*
X68433644Y-29758143D01*
X68389077Y-29790523D01*
X68389077Y-29790524D01*
X69068554Y-30470000D01*
X69062339Y-30470000D01*
X68960606Y-30497259D01*
X68869394Y-30549920D01*
X68794920Y-30624394D01*
X68742259Y-30715606D01*
X68715000Y-30817339D01*
X68715000Y-30823553D01*
X68035524Y-30144077D01*
X68035523Y-30144077D01*
X68003143Y-30188644D01*
X67910244Y-30370968D01*
X67847009Y-30565582D01*
X67815000Y-30767682D01*
X54415000Y-30767682D01*
X54382990Y-30565582D01*
X54319755Y-30370968D01*
X54226859Y-30188650D01*
X54194474Y-30144077D01*
X54194474Y-30144076D01*
X53515000Y-30823551D01*
X53515000Y-30817339D01*
X53487741Y-30715606D01*
X53435080Y-30624394D01*
X53360606Y-30549920D01*
X53269394Y-30497259D01*
X53167661Y-30470000D01*
X53161446Y-30470000D01*
X53840922Y-29790524D01*
X53840921Y-29790523D01*
X53796359Y-29758147D01*
X53796350Y-29758141D01*
X53614031Y-29665244D01*
X53419417Y-29602009D01*
X53217317Y-29570000D01*
X53012683Y-29570000D01*
X52810582Y-29602009D01*
X52615968Y-29665244D01*
X52433644Y-29758143D01*
X52389077Y-29790523D01*
X52389077Y-29790524D01*
X53068554Y-30470000D01*
X53062339Y-30470000D01*
X52960606Y-30497259D01*
X52869394Y-30549920D01*
X52794920Y-30624394D01*
X52742259Y-30715606D01*
X52715000Y-30817339D01*
X52715000Y-30823553D01*
X52035524Y-30144077D01*
X52035523Y-30144077D01*
X52003143Y-30188644D01*
X51910244Y-30370968D01*
X51847009Y-30565582D01*
X51815000Y-30767682D01*
X49713244Y-30767682D01*
X49640568Y-30544008D01*
X49640566Y-30544005D01*
X49640566Y-30544003D01*
X49584002Y-30432991D01*
X49533343Y-30333567D01*
X49394517Y-30142490D01*
X49227510Y-29975483D01*
X49036433Y-29836657D01*
X49034123Y-29835480D01*
X48825996Y-29729433D01*
X48601368Y-29656446D01*
X48368097Y-29619500D01*
X48368092Y-29619500D01*
X48131908Y-29619500D01*
X48131903Y-29619500D01*
X47898631Y-29656446D01*
X47674003Y-29729433D01*
X47463566Y-29836657D01*
X47354550Y-29915862D01*
X47272490Y-29975483D01*
X47272488Y-29975485D01*
X47272487Y-29975485D01*
X47105485Y-30142487D01*
X47105485Y-30142488D01*
X47105483Y-30142490D01*
X47075198Y-30184174D01*
X46966657Y-30333566D01*
X46859433Y-30544003D01*
X46786446Y-30768631D01*
X46749500Y-31001902D01*
X43250500Y-31001902D01*
X43213553Y-30768631D01*
X43140566Y-30544003D01*
X43084002Y-30432991D01*
X43033343Y-30333567D01*
X42894517Y-30142490D01*
X42727510Y-29975483D01*
X42536433Y-29836657D01*
X42534123Y-29835480D01*
X42325996Y-29729433D01*
X42101368Y-29656446D01*
X41868097Y-29619500D01*
X41868092Y-29619500D01*
X41631908Y-29619500D01*
X41631903Y-29619500D01*
X41398631Y-29656446D01*
X41174003Y-29729433D01*
X40963566Y-29836657D01*
X40854550Y-29915862D01*
X40772490Y-29975483D01*
X40772488Y-29975485D01*
X40772487Y-29975485D01*
X40605485Y-30142487D01*
X40605485Y-30142488D01*
X40605483Y-30142490D01*
X40575198Y-30184174D01*
X40466657Y-30333566D01*
X40359433Y-30544003D01*
X40286446Y-30768631D01*
X40249500Y-31001902D01*
X37750499Y-31001902D01*
X37750499Y-29452128D01*
X37744091Y-29392517D01*
X37704571Y-29286559D01*
X37693797Y-29257671D01*
X37693793Y-29257664D01*
X37607547Y-29142455D01*
X37607544Y-29142452D01*
X37492335Y-29056206D01*
X37492328Y-29056202D01*
X37357482Y-29005908D01*
X37357483Y-29005908D01*
X37297883Y-28999501D01*
X37297881Y-28999500D01*
X37297873Y-28999500D01*
X37297864Y-28999500D01*
X33702129Y-28999500D01*
X33702123Y-28999501D01*
X33642516Y-29005908D01*
X33507671Y-29056202D01*
X33507664Y-29056206D01*
X33392455Y-29142452D01*
X33392452Y-29142455D01*
X33306206Y-29257664D01*
X33306202Y-29257671D01*
X33255908Y-29392517D01*
X33249501Y-29452116D01*
X33249501Y-29452123D01*
X33249500Y-29452135D01*
X33249500Y-33047870D01*
X33249501Y-33047876D01*
X33255908Y-33107483D01*
X33306202Y-33242328D01*
X33306206Y-33242335D01*
X33392452Y-33357544D01*
X33392455Y-33357547D01*
X33507664Y-33443793D01*
X33507673Y-33443798D01*
X33554937Y-33461426D01*
X33610871Y-33503296D01*
X33635289Y-33568760D01*
X33620438Y-33637033D01*
X33571033Y-33686439D01*
X33505028Y-33701433D01*
X33468657Y-33699501D01*
X33468628Y-33699500D01*
X33468622Y-33699500D01*
X31531378Y-33699500D01*
X31531370Y-33699500D01*
X31531347Y-33699501D01*
X31478756Y-33702295D01*
X31478755Y-33702295D01*
X31248878Y-33746754D01*
X31248876Y-33746754D01*
X31248874Y-33746755D01*
X31174933Y-33774659D01*
X31029810Y-33829425D01*
X30827868Y-33947929D01*
X30827861Y-33947934D01*
X30648858Y-34098856D01*
X30648856Y-34098858D01*
X30497934Y-34277861D01*
X30497929Y-34277868D01*
X30379425Y-34479810D01*
X30324659Y-34624933D01*
X30296755Y-34698874D01*
X30296754Y-34698876D01*
X30296754Y-34698878D01*
X30252295Y-34928755D01*
X30252295Y-34928756D01*
X30249501Y-34981347D01*
X30249500Y-34981386D01*
X19500500Y-34981386D01*
X19500500Y-30185803D01*
X27500000Y-30185803D01*
X27500000Y-31000000D01*
X29000000Y-31000000D01*
X29000000Y-31500000D01*
X27500001Y-31500000D01*
X27500001Y-32314197D01*
X27510400Y-32446332D01*
X27565377Y-32664519D01*
X27658428Y-32869374D01*
X27658431Y-32869380D01*
X27786559Y-33054323D01*
X27786569Y-33054335D01*
X27945664Y-33213430D01*
X27945676Y-33213440D01*
X28130619Y-33341568D01*
X28130625Y-33341571D01*
X28335480Y-33434622D01*
X28553667Y-33489599D01*
X28685810Y-33499999D01*
X29249999Y-33499999D01*
X29250000Y-33499998D01*
X29250000Y-32683012D01*
X29307007Y-32715925D01*
X29434174Y-32750000D01*
X29565826Y-32750000D01*
X29692993Y-32715925D01*
X29750000Y-32683012D01*
X29750000Y-33499999D01*
X30314182Y-33499999D01*
X30314197Y-33499998D01*
X30446332Y-33489599D01*
X30664519Y-33434622D01*
X30869374Y-33341571D01*
X30869380Y-33341568D01*
X31054323Y-33213440D01*
X31054335Y-33213430D01*
X31213430Y-33054335D01*
X31213440Y-33054323D01*
X31341568Y-32869380D01*
X31341571Y-32869374D01*
X31434622Y-32664519D01*
X31489599Y-32446332D01*
X31499999Y-32314196D01*
X31500000Y-32314184D01*
X31500000Y-31500000D01*
X30000000Y-31500000D01*
X30000000Y-31000000D01*
X31499999Y-31000000D01*
X31499999Y-30185817D01*
X31499998Y-30185802D01*
X31489599Y-30053667D01*
X31434622Y-29835480D01*
X31341571Y-29630625D01*
X31341568Y-29630619D01*
X31213440Y-29445676D01*
X31213430Y-29445664D01*
X31054335Y-29286569D01*
X31054323Y-29286559D01*
X30869380Y-29158431D01*
X30869374Y-29158428D01*
X30664519Y-29065377D01*
X30446332Y-29010400D01*
X30314196Y-29000000D01*
X29750000Y-29000000D01*
X29750000Y-29816988D01*
X29692993Y-29784075D01*
X29565826Y-29750000D01*
X29434174Y-29750000D01*
X29307007Y-29784075D01*
X29250000Y-29816988D01*
X29250000Y-29000000D01*
X28685817Y-29000000D01*
X28685802Y-29000001D01*
X28553667Y-29010400D01*
X28335480Y-29065377D01*
X28130625Y-29158428D01*
X28130619Y-29158431D01*
X27945676Y-29286559D01*
X27945664Y-29286569D01*
X27786569Y-29445664D01*
X27786559Y-29445676D01*
X27658431Y-29630619D01*
X27658428Y-29630625D01*
X27565377Y-29835480D01*
X27510400Y-30053667D01*
X27500000Y-30185803D01*
X19500500Y-30185803D01*
X19500500Y-24124500D01*
X19520185Y-24057461D01*
X19572989Y-24011706D01*
X19624500Y-24000500D01*
X105875500Y-24000500D01*
X105942539Y-24020185D01*
G37*
%TD.AperFunction*%
%TD*%
M02*
