%TF.GenerationSoftware,KiCad,Pcbnew,9.0.5*%
%TF.CreationDate,2026-03-01T23:00:25+05:30*%
%TF.ProjectId,AVR_Controller_E177_Sneha,4156525f-436f-46e7-9472-6f6c6c65725f,rev?*%
%TF.SameCoordinates,Original*%
%TF.FileFunction,Legend,Top*%
%TF.FilePolarity,Positive*%
%FSLAX46Y46*%
G04 Gerber Fmt 4.6, Leading zero omitted, Abs format (unit mm)*
G04 Created by KiCad (PCBNEW 9.0.5) date 2026-03-01 23:00:25*
%MOMM*%
%LPD*%
G01*
G04 APERTURE LIST*
%ADD10C,0.150000*%
%ADD11C,0.120000*%
G04 APERTURE END LIST*
D10*
X39948333Y-103694819D02*
X39615000Y-103218628D01*
X39376905Y-103694819D02*
X39376905Y-102694819D01*
X39376905Y-102694819D02*
X39757857Y-102694819D01*
X39757857Y-102694819D02*
X39853095Y-102742438D01*
X39853095Y-102742438D02*
X39900714Y-102790057D01*
X39900714Y-102790057D02*
X39948333Y-102885295D01*
X39948333Y-102885295D02*
X39948333Y-103028152D01*
X39948333Y-103028152D02*
X39900714Y-103123390D01*
X39900714Y-103123390D02*
X39853095Y-103171009D01*
X39853095Y-103171009D02*
X39757857Y-103218628D01*
X39757857Y-103218628D02*
X39376905Y-103218628D01*
X40329286Y-102790057D02*
X40376905Y-102742438D01*
X40376905Y-102742438D02*
X40472143Y-102694819D01*
X40472143Y-102694819D02*
X40710238Y-102694819D01*
X40710238Y-102694819D02*
X40805476Y-102742438D01*
X40805476Y-102742438D02*
X40853095Y-102790057D01*
X40853095Y-102790057D02*
X40900714Y-102885295D01*
X40900714Y-102885295D02*
X40900714Y-102980533D01*
X40900714Y-102980533D02*
X40853095Y-103123390D01*
X40853095Y-103123390D02*
X40281667Y-103694819D01*
X40281667Y-103694819D02*
X40900714Y-103694819D01*
X45604580Y-85296666D02*
X45652200Y-85344285D01*
X45652200Y-85344285D02*
X45699819Y-85487142D01*
X45699819Y-85487142D02*
X45699819Y-85582380D01*
X45699819Y-85582380D02*
X45652200Y-85725237D01*
X45652200Y-85725237D02*
X45556961Y-85820475D01*
X45556961Y-85820475D02*
X45461723Y-85868094D01*
X45461723Y-85868094D02*
X45271247Y-85915713D01*
X45271247Y-85915713D02*
X45128390Y-85915713D01*
X45128390Y-85915713D02*
X44937914Y-85868094D01*
X44937914Y-85868094D02*
X44842676Y-85820475D01*
X44842676Y-85820475D02*
X44747438Y-85725237D01*
X44747438Y-85725237D02*
X44699819Y-85582380D01*
X44699819Y-85582380D02*
X44699819Y-85487142D01*
X44699819Y-85487142D02*
X44747438Y-85344285D01*
X44747438Y-85344285D02*
X44795057Y-85296666D01*
X45033152Y-84439523D02*
X45699819Y-84439523D01*
X44652200Y-84677618D02*
X45366485Y-84915713D01*
X45366485Y-84915713D02*
X45366485Y-84296666D01*
X40604580Y-76796666D02*
X40652200Y-76844285D01*
X40652200Y-76844285D02*
X40699819Y-76987142D01*
X40699819Y-76987142D02*
X40699819Y-77082380D01*
X40699819Y-77082380D02*
X40652200Y-77225237D01*
X40652200Y-77225237D02*
X40556961Y-77320475D01*
X40556961Y-77320475D02*
X40461723Y-77368094D01*
X40461723Y-77368094D02*
X40271247Y-77415713D01*
X40271247Y-77415713D02*
X40128390Y-77415713D01*
X40128390Y-77415713D02*
X39937914Y-77368094D01*
X39937914Y-77368094D02*
X39842676Y-77320475D01*
X39842676Y-77320475D02*
X39747438Y-77225237D01*
X39747438Y-77225237D02*
X39699819Y-77082380D01*
X39699819Y-77082380D02*
X39699819Y-76987142D01*
X39699819Y-76987142D02*
X39747438Y-76844285D01*
X39747438Y-76844285D02*
X39795057Y-76796666D01*
X39699819Y-76463332D02*
X39699819Y-75844285D01*
X39699819Y-75844285D02*
X40080771Y-76177618D01*
X40080771Y-76177618D02*
X40080771Y-76034761D01*
X40080771Y-76034761D02*
X40128390Y-75939523D01*
X40128390Y-75939523D02*
X40176009Y-75891904D01*
X40176009Y-75891904D02*
X40271247Y-75844285D01*
X40271247Y-75844285D02*
X40509342Y-75844285D01*
X40509342Y-75844285D02*
X40604580Y-75891904D01*
X40604580Y-75891904D02*
X40652200Y-75939523D01*
X40652200Y-75939523D02*
X40699819Y-76034761D01*
X40699819Y-76034761D02*
X40699819Y-76320475D01*
X40699819Y-76320475D02*
X40652200Y-76415713D01*
X40652200Y-76415713D02*
X40604580Y-76463332D01*
X78813095Y-31224819D02*
X78813095Y-32034342D01*
X78813095Y-32034342D02*
X78860714Y-32129580D01*
X78860714Y-32129580D02*
X78908333Y-32177200D01*
X78908333Y-32177200D02*
X79003571Y-32224819D01*
X79003571Y-32224819D02*
X79194047Y-32224819D01*
X79194047Y-32224819D02*
X79289285Y-32177200D01*
X79289285Y-32177200D02*
X79336904Y-32129580D01*
X79336904Y-32129580D02*
X79384523Y-32034342D01*
X79384523Y-32034342D02*
X79384523Y-31224819D01*
X79765476Y-31224819D02*
X80384523Y-31224819D01*
X80384523Y-31224819D02*
X80051190Y-31605771D01*
X80051190Y-31605771D02*
X80194047Y-31605771D01*
X80194047Y-31605771D02*
X80289285Y-31653390D01*
X80289285Y-31653390D02*
X80336904Y-31701009D01*
X80336904Y-31701009D02*
X80384523Y-31796247D01*
X80384523Y-31796247D02*
X80384523Y-32034342D01*
X80384523Y-32034342D02*
X80336904Y-32129580D01*
X80336904Y-32129580D02*
X80289285Y-32177200D01*
X80289285Y-32177200D02*
X80194047Y-32224819D01*
X80194047Y-32224819D02*
X79908333Y-32224819D01*
X79908333Y-32224819D02*
X79813095Y-32177200D01*
X79813095Y-32177200D02*
X79765476Y-32129580D01*
X39743628Y-81166190D02*
X40219819Y-81166190D01*
X39219819Y-81499523D02*
X39743628Y-81166190D01*
X39743628Y-81166190D02*
X39219819Y-80832857D01*
X40219819Y-79975714D02*
X40219819Y-80547142D01*
X40219819Y-80261428D02*
X39219819Y-80261428D01*
X39219819Y-80261428D02*
X39362676Y-80356666D01*
X39362676Y-80356666D02*
X39457914Y-80451904D01*
X39457914Y-80451904D02*
X39505533Y-80547142D01*
X29226905Y-98364819D02*
X29226905Y-97364819D01*
X29226905Y-97364819D02*
X29465000Y-97364819D01*
X29465000Y-97364819D02*
X29607857Y-97412438D01*
X29607857Y-97412438D02*
X29703095Y-97507676D01*
X29703095Y-97507676D02*
X29750714Y-97602914D01*
X29750714Y-97602914D02*
X29798333Y-97793390D01*
X29798333Y-97793390D02*
X29798333Y-97936247D01*
X29798333Y-97936247D02*
X29750714Y-98126723D01*
X29750714Y-98126723D02*
X29703095Y-98221961D01*
X29703095Y-98221961D02*
X29607857Y-98317200D01*
X29607857Y-98317200D02*
X29465000Y-98364819D01*
X29465000Y-98364819D02*
X29226905Y-98364819D01*
X30750714Y-98364819D02*
X30179286Y-98364819D01*
X30465000Y-98364819D02*
X30465000Y-97364819D01*
X30465000Y-97364819D02*
X30369762Y-97507676D01*
X30369762Y-97507676D02*
X30274524Y-97602914D01*
X30274524Y-97602914D02*
X30179286Y-97650533D01*
X50974580Y-33536666D02*
X51022200Y-33584285D01*
X51022200Y-33584285D02*
X51069819Y-33727142D01*
X51069819Y-33727142D02*
X51069819Y-33822380D01*
X51069819Y-33822380D02*
X51022200Y-33965237D01*
X51022200Y-33965237D02*
X50926961Y-34060475D01*
X50926961Y-34060475D02*
X50831723Y-34108094D01*
X50831723Y-34108094D02*
X50641247Y-34155713D01*
X50641247Y-34155713D02*
X50498390Y-34155713D01*
X50498390Y-34155713D02*
X50307914Y-34108094D01*
X50307914Y-34108094D02*
X50212676Y-34060475D01*
X50212676Y-34060475D02*
X50117438Y-33965237D01*
X50117438Y-33965237D02*
X50069819Y-33822380D01*
X50069819Y-33822380D02*
X50069819Y-33727142D01*
X50069819Y-33727142D02*
X50117438Y-33584285D01*
X50117438Y-33584285D02*
X50165057Y-33536666D01*
X50069819Y-33203332D02*
X50069819Y-32536666D01*
X50069819Y-32536666D02*
X51069819Y-32965237D01*
X26716666Y-36454819D02*
X26716666Y-37169104D01*
X26716666Y-37169104D02*
X26669047Y-37311961D01*
X26669047Y-37311961D02*
X26573809Y-37407200D01*
X26573809Y-37407200D02*
X26430952Y-37454819D01*
X26430952Y-37454819D02*
X26335714Y-37454819D01*
X27669047Y-36454819D02*
X27192857Y-36454819D01*
X27192857Y-36454819D02*
X27145238Y-36931009D01*
X27145238Y-36931009D02*
X27192857Y-36883390D01*
X27192857Y-36883390D02*
X27288095Y-36835771D01*
X27288095Y-36835771D02*
X27526190Y-36835771D01*
X27526190Y-36835771D02*
X27621428Y-36883390D01*
X27621428Y-36883390D02*
X27669047Y-36931009D01*
X27669047Y-36931009D02*
X27716666Y-37026247D01*
X27716666Y-37026247D02*
X27716666Y-37264342D01*
X27716666Y-37264342D02*
X27669047Y-37359580D01*
X27669047Y-37359580D02*
X27621428Y-37407200D01*
X27621428Y-37407200D02*
X27526190Y-37454819D01*
X27526190Y-37454819D02*
X27288095Y-37454819D01*
X27288095Y-37454819D02*
X27192857Y-37407200D01*
X27192857Y-37407200D02*
X27145238Y-37359580D01*
X61113333Y-101314819D02*
X60780000Y-100838628D01*
X60541905Y-101314819D02*
X60541905Y-100314819D01*
X60541905Y-100314819D02*
X60922857Y-100314819D01*
X60922857Y-100314819D02*
X61018095Y-100362438D01*
X61018095Y-100362438D02*
X61065714Y-100410057D01*
X61065714Y-100410057D02*
X61113333Y-100505295D01*
X61113333Y-100505295D02*
X61113333Y-100648152D01*
X61113333Y-100648152D02*
X61065714Y-100743390D01*
X61065714Y-100743390D02*
X61018095Y-100791009D01*
X61018095Y-100791009D02*
X60922857Y-100838628D01*
X60922857Y-100838628D02*
X60541905Y-100838628D01*
X61446667Y-100314819D02*
X62065714Y-100314819D01*
X62065714Y-100314819D02*
X61732381Y-100695771D01*
X61732381Y-100695771D02*
X61875238Y-100695771D01*
X61875238Y-100695771D02*
X61970476Y-100743390D01*
X61970476Y-100743390D02*
X62018095Y-100791009D01*
X62018095Y-100791009D02*
X62065714Y-100886247D01*
X62065714Y-100886247D02*
X62065714Y-101124342D01*
X62065714Y-101124342D02*
X62018095Y-101219580D01*
X62018095Y-101219580D02*
X61970476Y-101267200D01*
X61970476Y-101267200D02*
X61875238Y-101314819D01*
X61875238Y-101314819D02*
X61589524Y-101314819D01*
X61589524Y-101314819D02*
X61494286Y-101267200D01*
X61494286Y-101267200D02*
X61446667Y-101219580D01*
X64078333Y-92084819D02*
X63745000Y-91608628D01*
X63506905Y-92084819D02*
X63506905Y-91084819D01*
X63506905Y-91084819D02*
X63887857Y-91084819D01*
X63887857Y-91084819D02*
X63983095Y-91132438D01*
X63983095Y-91132438D02*
X64030714Y-91180057D01*
X64030714Y-91180057D02*
X64078333Y-91275295D01*
X64078333Y-91275295D02*
X64078333Y-91418152D01*
X64078333Y-91418152D02*
X64030714Y-91513390D01*
X64030714Y-91513390D02*
X63983095Y-91561009D01*
X63983095Y-91561009D02*
X63887857Y-91608628D01*
X63887857Y-91608628D02*
X63506905Y-91608628D01*
X64935476Y-91418152D02*
X64935476Y-92084819D01*
X64697381Y-91037200D02*
X64459286Y-91751485D01*
X64459286Y-91751485D02*
X65078333Y-91751485D01*
X97281667Y-30277200D02*
X97424524Y-30324819D01*
X97424524Y-30324819D02*
X97662619Y-30324819D01*
X97662619Y-30324819D02*
X97757857Y-30277200D01*
X97757857Y-30277200D02*
X97805476Y-30229580D01*
X97805476Y-30229580D02*
X97853095Y-30134342D01*
X97853095Y-30134342D02*
X97853095Y-30039104D01*
X97853095Y-30039104D02*
X97805476Y-29943866D01*
X97805476Y-29943866D02*
X97757857Y-29896247D01*
X97757857Y-29896247D02*
X97662619Y-29848628D01*
X97662619Y-29848628D02*
X97472143Y-29801009D01*
X97472143Y-29801009D02*
X97376905Y-29753390D01*
X97376905Y-29753390D02*
X97329286Y-29705771D01*
X97329286Y-29705771D02*
X97281667Y-29610533D01*
X97281667Y-29610533D02*
X97281667Y-29515295D01*
X97281667Y-29515295D02*
X97329286Y-29420057D01*
X97329286Y-29420057D02*
X97376905Y-29372438D01*
X97376905Y-29372438D02*
X97472143Y-29324819D01*
X97472143Y-29324819D02*
X97710238Y-29324819D01*
X97710238Y-29324819D02*
X97853095Y-29372438D01*
X98186429Y-29324819D02*
X98424524Y-30324819D01*
X98424524Y-30324819D02*
X98615000Y-29610533D01*
X98615000Y-29610533D02*
X98805476Y-30324819D01*
X98805476Y-30324819D02*
X99043572Y-29324819D01*
X99948333Y-30324819D02*
X99376905Y-30324819D01*
X99662619Y-30324819D02*
X99662619Y-29324819D01*
X99662619Y-29324819D02*
X99567381Y-29467676D01*
X99567381Y-29467676D02*
X99472143Y-29562914D01*
X99472143Y-29562914D02*
X99376905Y-29610533D01*
X90681009Y-90250952D02*
X90728628Y-90108095D01*
X90728628Y-90108095D02*
X90776247Y-90060476D01*
X90776247Y-90060476D02*
X90871485Y-90012857D01*
X90871485Y-90012857D02*
X91014342Y-90012857D01*
X91014342Y-90012857D02*
X91109580Y-90060476D01*
X91109580Y-90060476D02*
X91157200Y-90108095D01*
X91157200Y-90108095D02*
X91204819Y-90203333D01*
X91204819Y-90203333D02*
X91204819Y-90584285D01*
X91204819Y-90584285D02*
X90204819Y-90584285D01*
X90204819Y-90584285D02*
X90204819Y-90250952D01*
X90204819Y-90250952D02*
X90252438Y-90155714D01*
X90252438Y-90155714D02*
X90300057Y-90108095D01*
X90300057Y-90108095D02*
X90395295Y-90060476D01*
X90395295Y-90060476D02*
X90490533Y-90060476D01*
X90490533Y-90060476D02*
X90585771Y-90108095D01*
X90585771Y-90108095D02*
X90633390Y-90155714D01*
X90633390Y-90155714D02*
X90681009Y-90250952D01*
X90681009Y-90250952D02*
X90681009Y-90584285D01*
X90204819Y-89679523D02*
X90204819Y-89012857D01*
X90204819Y-89012857D02*
X91204819Y-89679523D01*
X91204819Y-89679523D02*
X91204819Y-89012857D01*
X91204819Y-88108095D02*
X91204819Y-88679523D01*
X91204819Y-88393809D02*
X90204819Y-88393809D01*
X90204819Y-88393809D02*
X90347676Y-88489047D01*
X90347676Y-88489047D02*
X90442914Y-88584285D01*
X90442914Y-88584285D02*
X90490533Y-88679523D01*
X75261666Y-79094819D02*
X75261666Y-79809104D01*
X75261666Y-79809104D02*
X75214047Y-79951961D01*
X75214047Y-79951961D02*
X75118809Y-80047200D01*
X75118809Y-80047200D02*
X74975952Y-80094819D01*
X74975952Y-80094819D02*
X74880714Y-80094819D01*
X76166428Y-79094819D02*
X75975952Y-79094819D01*
X75975952Y-79094819D02*
X75880714Y-79142438D01*
X75880714Y-79142438D02*
X75833095Y-79190057D01*
X75833095Y-79190057D02*
X75737857Y-79332914D01*
X75737857Y-79332914D02*
X75690238Y-79523390D01*
X75690238Y-79523390D02*
X75690238Y-79904342D01*
X75690238Y-79904342D02*
X75737857Y-79999580D01*
X75737857Y-79999580D02*
X75785476Y-80047200D01*
X75785476Y-80047200D02*
X75880714Y-80094819D01*
X75880714Y-80094819D02*
X76071190Y-80094819D01*
X76071190Y-80094819D02*
X76166428Y-80047200D01*
X76166428Y-80047200D02*
X76214047Y-79999580D01*
X76214047Y-79999580D02*
X76261666Y-79904342D01*
X76261666Y-79904342D02*
X76261666Y-79666247D01*
X76261666Y-79666247D02*
X76214047Y-79571009D01*
X76214047Y-79571009D02*
X76166428Y-79523390D01*
X76166428Y-79523390D02*
X76071190Y-79475771D01*
X76071190Y-79475771D02*
X75880714Y-79475771D01*
X75880714Y-79475771D02*
X75785476Y-79523390D01*
X75785476Y-79523390D02*
X75737857Y-79571009D01*
X75737857Y-79571009D02*
X75690238Y-79666247D01*
X101261666Y-55174819D02*
X101261666Y-55889104D01*
X101261666Y-55889104D02*
X101214047Y-56031961D01*
X101214047Y-56031961D02*
X101118809Y-56127200D01*
X101118809Y-56127200D02*
X100975952Y-56174819D01*
X100975952Y-56174819D02*
X100880714Y-56174819D01*
X101690238Y-55270057D02*
X101737857Y-55222438D01*
X101737857Y-55222438D02*
X101833095Y-55174819D01*
X101833095Y-55174819D02*
X102071190Y-55174819D01*
X102071190Y-55174819D02*
X102166428Y-55222438D01*
X102166428Y-55222438D02*
X102214047Y-55270057D01*
X102214047Y-55270057D02*
X102261666Y-55365295D01*
X102261666Y-55365295D02*
X102261666Y-55460533D01*
X102261666Y-55460533D02*
X102214047Y-55603390D01*
X102214047Y-55603390D02*
X101642619Y-56174819D01*
X101642619Y-56174819D02*
X102261666Y-56174819D01*
X62411666Y-72084819D02*
X62411666Y-72799104D01*
X62411666Y-72799104D02*
X62364047Y-72941961D01*
X62364047Y-72941961D02*
X62268809Y-73037200D01*
X62268809Y-73037200D02*
X62125952Y-73084819D01*
X62125952Y-73084819D02*
X62030714Y-73084819D01*
X63316428Y-72418152D02*
X63316428Y-73084819D01*
X63078333Y-72037200D02*
X62840238Y-72751485D01*
X62840238Y-72751485D02*
X63459285Y-72751485D01*
X78495057Y-92085238D02*
X78447438Y-92180476D01*
X78447438Y-92180476D02*
X78352200Y-92275714D01*
X78352200Y-92275714D02*
X78209342Y-92418571D01*
X78209342Y-92418571D02*
X78161723Y-92513809D01*
X78161723Y-92513809D02*
X78161723Y-92609047D01*
X78399819Y-92561428D02*
X78352200Y-92656666D01*
X78352200Y-92656666D02*
X78256961Y-92751904D01*
X78256961Y-92751904D02*
X78066485Y-92799523D01*
X78066485Y-92799523D02*
X77733152Y-92799523D01*
X77733152Y-92799523D02*
X77542676Y-92751904D01*
X77542676Y-92751904D02*
X77447438Y-92656666D01*
X77447438Y-92656666D02*
X77399819Y-92561428D01*
X77399819Y-92561428D02*
X77399819Y-92370952D01*
X77399819Y-92370952D02*
X77447438Y-92275714D01*
X77447438Y-92275714D02*
X77542676Y-92180476D01*
X77542676Y-92180476D02*
X77733152Y-92132857D01*
X77733152Y-92132857D02*
X78066485Y-92132857D01*
X78066485Y-92132857D02*
X78256961Y-92180476D01*
X78256961Y-92180476D02*
X78352200Y-92275714D01*
X78352200Y-92275714D02*
X78399819Y-92370952D01*
X78399819Y-92370952D02*
X78399819Y-92561428D01*
X78399819Y-91180476D02*
X78399819Y-91751904D01*
X78399819Y-91466190D02*
X77399819Y-91466190D01*
X77399819Y-91466190D02*
X77542676Y-91561428D01*
X77542676Y-91561428D02*
X77637914Y-91656666D01*
X77637914Y-91656666D02*
X77685533Y-91751904D01*
X50173095Y-55174819D02*
X50173095Y-55984342D01*
X50173095Y-55984342D02*
X50220714Y-56079580D01*
X50220714Y-56079580D02*
X50268333Y-56127200D01*
X50268333Y-56127200D02*
X50363571Y-56174819D01*
X50363571Y-56174819D02*
X50554047Y-56174819D01*
X50554047Y-56174819D02*
X50649285Y-56127200D01*
X50649285Y-56127200D02*
X50696904Y-56079580D01*
X50696904Y-56079580D02*
X50744523Y-55984342D01*
X50744523Y-55984342D02*
X50744523Y-55174819D01*
X51744523Y-56174819D02*
X51173095Y-56174819D01*
X51458809Y-56174819D02*
X51458809Y-55174819D01*
X51458809Y-55174819D02*
X51363571Y-55317676D01*
X51363571Y-55317676D02*
X51268333Y-55412914D01*
X51268333Y-55412914D02*
X51173095Y-55460533D01*
X87483095Y-60714819D02*
X87483095Y-61524342D01*
X87483095Y-61524342D02*
X87530714Y-61619580D01*
X87530714Y-61619580D02*
X87578333Y-61667200D01*
X87578333Y-61667200D02*
X87673571Y-61714819D01*
X87673571Y-61714819D02*
X87864047Y-61714819D01*
X87864047Y-61714819D02*
X87959285Y-61667200D01*
X87959285Y-61667200D02*
X88006904Y-61619580D01*
X88006904Y-61619580D02*
X88054523Y-61524342D01*
X88054523Y-61524342D02*
X88054523Y-60714819D01*
X88483095Y-60810057D02*
X88530714Y-60762438D01*
X88530714Y-60762438D02*
X88625952Y-60714819D01*
X88625952Y-60714819D02*
X88864047Y-60714819D01*
X88864047Y-60714819D02*
X88959285Y-60762438D01*
X88959285Y-60762438D02*
X89006904Y-60810057D01*
X89006904Y-60810057D02*
X89054523Y-60905295D01*
X89054523Y-60905295D02*
X89054523Y-61000533D01*
X89054523Y-61000533D02*
X89006904Y-61143390D01*
X89006904Y-61143390D02*
X88435476Y-61714819D01*
X88435476Y-61714819D02*
X89054523Y-61714819D01*
X72474580Y-30036666D02*
X72522200Y-30084285D01*
X72522200Y-30084285D02*
X72569819Y-30227142D01*
X72569819Y-30227142D02*
X72569819Y-30322380D01*
X72569819Y-30322380D02*
X72522200Y-30465237D01*
X72522200Y-30465237D02*
X72426961Y-30560475D01*
X72426961Y-30560475D02*
X72331723Y-30608094D01*
X72331723Y-30608094D02*
X72141247Y-30655713D01*
X72141247Y-30655713D02*
X71998390Y-30655713D01*
X71998390Y-30655713D02*
X71807914Y-30608094D01*
X71807914Y-30608094D02*
X71712676Y-30560475D01*
X71712676Y-30560475D02*
X71617438Y-30465237D01*
X71617438Y-30465237D02*
X71569819Y-30322380D01*
X71569819Y-30322380D02*
X71569819Y-30227142D01*
X71569819Y-30227142D02*
X71617438Y-30084285D01*
X71617438Y-30084285D02*
X71665057Y-30036666D01*
X71998390Y-29465237D02*
X71950771Y-29560475D01*
X71950771Y-29560475D02*
X71903152Y-29608094D01*
X71903152Y-29608094D02*
X71807914Y-29655713D01*
X71807914Y-29655713D02*
X71760295Y-29655713D01*
X71760295Y-29655713D02*
X71665057Y-29608094D01*
X71665057Y-29608094D02*
X71617438Y-29560475D01*
X71617438Y-29560475D02*
X71569819Y-29465237D01*
X71569819Y-29465237D02*
X71569819Y-29274761D01*
X71569819Y-29274761D02*
X71617438Y-29179523D01*
X71617438Y-29179523D02*
X71665057Y-29131904D01*
X71665057Y-29131904D02*
X71760295Y-29084285D01*
X71760295Y-29084285D02*
X71807914Y-29084285D01*
X71807914Y-29084285D02*
X71903152Y-29131904D01*
X71903152Y-29131904D02*
X71950771Y-29179523D01*
X71950771Y-29179523D02*
X71998390Y-29274761D01*
X71998390Y-29274761D02*
X71998390Y-29465237D01*
X71998390Y-29465237D02*
X72046009Y-29560475D01*
X72046009Y-29560475D02*
X72093628Y-29608094D01*
X72093628Y-29608094D02*
X72188866Y-29655713D01*
X72188866Y-29655713D02*
X72379342Y-29655713D01*
X72379342Y-29655713D02*
X72474580Y-29608094D01*
X72474580Y-29608094D02*
X72522200Y-29560475D01*
X72522200Y-29560475D02*
X72569819Y-29465237D01*
X72569819Y-29465237D02*
X72569819Y-29274761D01*
X72569819Y-29274761D02*
X72522200Y-29179523D01*
X72522200Y-29179523D02*
X72474580Y-29131904D01*
X72474580Y-29131904D02*
X72379342Y-29084285D01*
X72379342Y-29084285D02*
X72188866Y-29084285D01*
X72188866Y-29084285D02*
X72093628Y-29131904D01*
X72093628Y-29131904D02*
X72046009Y-29179523D01*
X72046009Y-29179523D02*
X71998390Y-29274761D01*
X42078333Y-68489580D02*
X42030714Y-68537200D01*
X42030714Y-68537200D02*
X41887857Y-68584819D01*
X41887857Y-68584819D02*
X41792619Y-68584819D01*
X41792619Y-68584819D02*
X41649762Y-68537200D01*
X41649762Y-68537200D02*
X41554524Y-68441961D01*
X41554524Y-68441961D02*
X41506905Y-68346723D01*
X41506905Y-68346723D02*
X41459286Y-68156247D01*
X41459286Y-68156247D02*
X41459286Y-68013390D01*
X41459286Y-68013390D02*
X41506905Y-67822914D01*
X41506905Y-67822914D02*
X41554524Y-67727676D01*
X41554524Y-67727676D02*
X41649762Y-67632438D01*
X41649762Y-67632438D02*
X41792619Y-67584819D01*
X41792619Y-67584819D02*
X41887857Y-67584819D01*
X41887857Y-67584819D02*
X42030714Y-67632438D01*
X42030714Y-67632438D02*
X42078333Y-67680057D01*
X42935476Y-67584819D02*
X42745000Y-67584819D01*
X42745000Y-67584819D02*
X42649762Y-67632438D01*
X42649762Y-67632438D02*
X42602143Y-67680057D01*
X42602143Y-67680057D02*
X42506905Y-67822914D01*
X42506905Y-67822914D02*
X42459286Y-68013390D01*
X42459286Y-68013390D02*
X42459286Y-68394342D01*
X42459286Y-68394342D02*
X42506905Y-68489580D01*
X42506905Y-68489580D02*
X42554524Y-68537200D01*
X42554524Y-68537200D02*
X42649762Y-68584819D01*
X42649762Y-68584819D02*
X42840238Y-68584819D01*
X42840238Y-68584819D02*
X42935476Y-68537200D01*
X42935476Y-68537200D02*
X42983095Y-68489580D01*
X42983095Y-68489580D02*
X43030714Y-68394342D01*
X43030714Y-68394342D02*
X43030714Y-68156247D01*
X43030714Y-68156247D02*
X42983095Y-68061009D01*
X42983095Y-68061009D02*
X42935476Y-68013390D01*
X42935476Y-68013390D02*
X42840238Y-67965771D01*
X42840238Y-67965771D02*
X42649762Y-67965771D01*
X42649762Y-67965771D02*
X42554524Y-68013390D01*
X42554524Y-68013390D02*
X42506905Y-68061009D01*
X42506905Y-68061009D02*
X42459286Y-68156247D01*
X50948333Y-54194819D02*
X50615000Y-53718628D01*
X50376905Y-54194819D02*
X50376905Y-53194819D01*
X50376905Y-53194819D02*
X50757857Y-53194819D01*
X50757857Y-53194819D02*
X50853095Y-53242438D01*
X50853095Y-53242438D02*
X50900714Y-53290057D01*
X50900714Y-53290057D02*
X50948333Y-53385295D01*
X50948333Y-53385295D02*
X50948333Y-53528152D01*
X50948333Y-53528152D02*
X50900714Y-53623390D01*
X50900714Y-53623390D02*
X50853095Y-53671009D01*
X50853095Y-53671009D02*
X50757857Y-53718628D01*
X50757857Y-53718628D02*
X50376905Y-53718628D01*
X51900714Y-54194819D02*
X51329286Y-54194819D01*
X51615000Y-54194819D02*
X51615000Y-53194819D01*
X51615000Y-53194819D02*
X51519762Y-53337676D01*
X51519762Y-53337676D02*
X51424524Y-53432914D01*
X51424524Y-53432914D02*
X51329286Y-53480533D01*
X70041905Y-104274819D02*
X70041905Y-103274819D01*
X70041905Y-103274819D02*
X70280000Y-103274819D01*
X70280000Y-103274819D02*
X70422857Y-103322438D01*
X70422857Y-103322438D02*
X70518095Y-103417676D01*
X70518095Y-103417676D02*
X70565714Y-103512914D01*
X70565714Y-103512914D02*
X70613333Y-103703390D01*
X70613333Y-103703390D02*
X70613333Y-103846247D01*
X70613333Y-103846247D02*
X70565714Y-104036723D01*
X70565714Y-104036723D02*
X70518095Y-104131961D01*
X70518095Y-104131961D02*
X70422857Y-104227200D01*
X70422857Y-104227200D02*
X70280000Y-104274819D01*
X70280000Y-104274819D02*
X70041905Y-104274819D01*
X70994286Y-103370057D02*
X71041905Y-103322438D01*
X71041905Y-103322438D02*
X71137143Y-103274819D01*
X71137143Y-103274819D02*
X71375238Y-103274819D01*
X71375238Y-103274819D02*
X71470476Y-103322438D01*
X71470476Y-103322438D02*
X71518095Y-103370057D01*
X71518095Y-103370057D02*
X71565714Y-103465295D01*
X71565714Y-103465295D02*
X71565714Y-103560533D01*
X71565714Y-103560533D02*
X71518095Y-103703390D01*
X71518095Y-103703390D02*
X70946667Y-104274819D01*
X70946667Y-104274819D02*
X71565714Y-104274819D01*
X43666667Y-29527200D02*
X43809524Y-29574819D01*
X43809524Y-29574819D02*
X44047619Y-29574819D01*
X44047619Y-29574819D02*
X44142857Y-29527200D01*
X44142857Y-29527200D02*
X44190476Y-29479580D01*
X44190476Y-29479580D02*
X44238095Y-29384342D01*
X44238095Y-29384342D02*
X44238095Y-29289104D01*
X44238095Y-29289104D02*
X44190476Y-29193866D01*
X44190476Y-29193866D02*
X44142857Y-29146247D01*
X44142857Y-29146247D02*
X44047619Y-29098628D01*
X44047619Y-29098628D02*
X43857143Y-29051009D01*
X43857143Y-29051009D02*
X43761905Y-29003390D01*
X43761905Y-29003390D02*
X43714286Y-28955771D01*
X43714286Y-28955771D02*
X43666667Y-28860533D01*
X43666667Y-28860533D02*
X43666667Y-28765295D01*
X43666667Y-28765295D02*
X43714286Y-28670057D01*
X43714286Y-28670057D02*
X43761905Y-28622438D01*
X43761905Y-28622438D02*
X43857143Y-28574819D01*
X43857143Y-28574819D02*
X44095238Y-28574819D01*
X44095238Y-28574819D02*
X44238095Y-28622438D01*
X44571429Y-28574819D02*
X44809524Y-29574819D01*
X44809524Y-29574819D02*
X45000000Y-28860533D01*
X45000000Y-28860533D02*
X45190476Y-29574819D01*
X45190476Y-29574819D02*
X45428572Y-28574819D01*
X45761905Y-28670057D02*
X45809524Y-28622438D01*
X45809524Y-28622438D02*
X45904762Y-28574819D01*
X45904762Y-28574819D02*
X46142857Y-28574819D01*
X46142857Y-28574819D02*
X46238095Y-28622438D01*
X46238095Y-28622438D02*
X46285714Y-28670057D01*
X46285714Y-28670057D02*
X46333333Y-28765295D01*
X46333333Y-28765295D02*
X46333333Y-28860533D01*
X46333333Y-28860533D02*
X46285714Y-29003390D01*
X46285714Y-29003390D02*
X45714286Y-29574819D01*
X45714286Y-29574819D02*
X46333333Y-29574819D01*
X61578333Y-78489580D02*
X61530714Y-78537200D01*
X61530714Y-78537200D02*
X61387857Y-78584819D01*
X61387857Y-78584819D02*
X61292619Y-78584819D01*
X61292619Y-78584819D02*
X61149762Y-78537200D01*
X61149762Y-78537200D02*
X61054524Y-78441961D01*
X61054524Y-78441961D02*
X61006905Y-78346723D01*
X61006905Y-78346723D02*
X60959286Y-78156247D01*
X60959286Y-78156247D02*
X60959286Y-78013390D01*
X60959286Y-78013390D02*
X61006905Y-77822914D01*
X61006905Y-77822914D02*
X61054524Y-77727676D01*
X61054524Y-77727676D02*
X61149762Y-77632438D01*
X61149762Y-77632438D02*
X61292619Y-77584819D01*
X61292619Y-77584819D02*
X61387857Y-77584819D01*
X61387857Y-77584819D02*
X61530714Y-77632438D01*
X61530714Y-77632438D02*
X61578333Y-77680057D01*
X61959286Y-77680057D02*
X62006905Y-77632438D01*
X62006905Y-77632438D02*
X62102143Y-77584819D01*
X62102143Y-77584819D02*
X62340238Y-77584819D01*
X62340238Y-77584819D02*
X62435476Y-77632438D01*
X62435476Y-77632438D02*
X62483095Y-77680057D01*
X62483095Y-77680057D02*
X62530714Y-77775295D01*
X62530714Y-77775295D02*
X62530714Y-77870533D01*
X62530714Y-77870533D02*
X62483095Y-78013390D01*
X62483095Y-78013390D02*
X61911667Y-78584819D01*
X61911667Y-78584819D02*
X62530714Y-78584819D01*
X62411666Y-79084819D02*
X62411666Y-79799104D01*
X62411666Y-79799104D02*
X62364047Y-79941961D01*
X62364047Y-79941961D02*
X62268809Y-80037200D01*
X62268809Y-80037200D02*
X62125952Y-80084819D01*
X62125952Y-80084819D02*
X62030714Y-80084819D01*
X63411666Y-80084819D02*
X62840238Y-80084819D01*
X63125952Y-80084819D02*
X63125952Y-79084819D01*
X63125952Y-79084819D02*
X63030714Y-79227676D01*
X63030714Y-79227676D02*
X62935476Y-79322914D01*
X62935476Y-79322914D02*
X62840238Y-79370533D01*
X59781666Y-39865009D02*
X59448333Y-39865009D01*
X59448333Y-40388819D02*
X59448333Y-39388819D01*
X59448333Y-39388819D02*
X59924523Y-39388819D01*
X60638809Y-39865009D02*
X60781666Y-39912628D01*
X60781666Y-39912628D02*
X60829285Y-39960247D01*
X60829285Y-39960247D02*
X60876904Y-40055485D01*
X60876904Y-40055485D02*
X60876904Y-40198342D01*
X60876904Y-40198342D02*
X60829285Y-40293580D01*
X60829285Y-40293580D02*
X60781666Y-40341200D01*
X60781666Y-40341200D02*
X60686428Y-40388819D01*
X60686428Y-40388819D02*
X60305476Y-40388819D01*
X60305476Y-40388819D02*
X60305476Y-39388819D01*
X60305476Y-39388819D02*
X60638809Y-39388819D01*
X60638809Y-39388819D02*
X60734047Y-39436438D01*
X60734047Y-39436438D02*
X60781666Y-39484057D01*
X60781666Y-39484057D02*
X60829285Y-39579295D01*
X60829285Y-39579295D02*
X60829285Y-39674533D01*
X60829285Y-39674533D02*
X60781666Y-39769771D01*
X60781666Y-39769771D02*
X60734047Y-39817390D01*
X60734047Y-39817390D02*
X60638809Y-39865009D01*
X60638809Y-39865009D02*
X60305476Y-39865009D01*
X61829285Y-40388819D02*
X61257857Y-40388819D01*
X61543571Y-40388819D02*
X61543571Y-39388819D01*
X61543571Y-39388819D02*
X61448333Y-39531676D01*
X61448333Y-39531676D02*
X61353095Y-39626914D01*
X61353095Y-39626914D02*
X61257857Y-39674533D01*
X27411666Y-71664819D02*
X27411666Y-72379104D01*
X27411666Y-72379104D02*
X27364047Y-72521961D01*
X27364047Y-72521961D02*
X27268809Y-72617200D01*
X27268809Y-72617200D02*
X27125952Y-72664819D01*
X27125952Y-72664819D02*
X27030714Y-72664819D01*
X27792619Y-71664819D02*
X28411666Y-71664819D01*
X28411666Y-71664819D02*
X28078333Y-72045771D01*
X28078333Y-72045771D02*
X28221190Y-72045771D01*
X28221190Y-72045771D02*
X28316428Y-72093390D01*
X28316428Y-72093390D02*
X28364047Y-72141009D01*
X28364047Y-72141009D02*
X28411666Y-72236247D01*
X28411666Y-72236247D02*
X28411666Y-72474342D01*
X28411666Y-72474342D02*
X28364047Y-72569580D01*
X28364047Y-72569580D02*
X28316428Y-72617200D01*
X28316428Y-72617200D02*
X28221190Y-72664819D01*
X28221190Y-72664819D02*
X27935476Y-72664819D01*
X27935476Y-72664819D02*
X27840238Y-72617200D01*
X27840238Y-72617200D02*
X27792619Y-72569580D01*
D11*
%TO.C,R2*%
X36075000Y-100870000D02*
X36845000Y-100870000D01*
X44155000Y-100870000D02*
X43385000Y-100870000D01*
X43385000Y-102240000D02*
X36845000Y-102240000D01*
X36845000Y-99500000D01*
X43385000Y-99500000D01*
X43385000Y-102240000D01*
%TO.C,C4*%
X41375000Y-81510000D02*
X41712000Y-81510000D01*
X41375000Y-86750000D02*
X41375000Y-81510000D01*
X41712000Y-86750000D02*
X41375000Y-86750000D01*
X43778000Y-81510000D02*
X44115000Y-81510000D01*
X44115000Y-81510000D02*
X44115000Y-86750000D01*
X44115000Y-86750000D02*
X43778000Y-86750000D01*
%TO.C,C3*%
X41375000Y-74010000D02*
X41712000Y-74010000D01*
X41375000Y-79250000D02*
X41375000Y-74010000D01*
X41712000Y-79250000D02*
X41375000Y-79250000D01*
X43778000Y-74010000D02*
X44115000Y-74010000D01*
X44115000Y-74010000D02*
X44115000Y-79250000D01*
X44115000Y-79250000D02*
X43778000Y-79250000D01*
%TO.C,U3*%
X74465000Y-32610000D02*
X84685000Y-32610000D01*
X74465000Y-33990000D02*
X84685000Y-33990000D01*
X74465000Y-37230000D02*
X74465000Y-32610000D01*
X77725000Y-32610000D02*
X77725000Y-33990000D01*
X81425000Y-32610000D02*
X81425000Y-33990000D01*
X84685000Y-32610000D02*
X84685000Y-37230000D01*
X84685000Y-37230000D02*
X74465000Y-37230000D01*
%TO.C,Y1*%
X33810000Y-83890000D02*
X33810000Y-77490000D01*
X38680000Y-77490000D02*
X38680000Y-83890000D01*
X33810000Y-77490000D02*
G75*
G02*
X38680000Y-77490000I2435000J0D01*
G01*
X38680000Y-83890000D02*
G75*
G02*
X33810000Y-83890000I-2435000J0D01*
G01*
%TO.C,D1*%
X28405000Y-99634000D02*
X28405000Y-99790000D01*
X28405000Y-101950000D02*
X28405000Y-102106000D01*
X28405000Y-99634484D02*
G75*
G02*
X31636437Y-99790000I1560000J-1235516D01*
G01*
X28924039Y-99790000D02*
G75*
G02*
X31005961Y-99790000I1040961J-1080000D01*
G01*
X31005961Y-101950000D02*
G75*
G02*
X28924039Y-101950000I-1040961J1080000D01*
G01*
X31636437Y-101950000D02*
G75*
G02*
X28405000Y-102105516I-1671437J1080000D01*
G01*
%TO.C,C7*%
X51745000Y-30750000D02*
X52082000Y-30750000D01*
X51745000Y-35990000D02*
X51745000Y-30750000D01*
X52082000Y-35990000D02*
X51745000Y-35990000D01*
X54148000Y-30750000D02*
X54485000Y-30750000D01*
X54485000Y-30750000D02*
X54485000Y-35990000D01*
X54485000Y-35990000D02*
X54148000Y-35990000D01*
%TO.C,J5*%
X21700000Y-26650000D02*
X36400000Y-26650000D01*
X21700000Y-35850000D02*
X21700000Y-26650000D01*
X30500000Y-35850000D02*
X21700000Y-35850000D01*
X35550000Y-26450000D02*
X36600000Y-26450000D01*
X36400000Y-26650000D02*
X36400000Y-29250000D01*
X36400000Y-33150000D02*
X36400000Y-35850000D01*
X36400000Y-35850000D02*
X34500000Y-35850000D01*
X36600000Y-27500000D02*
X36600000Y-26450000D01*
%TO.C,R3*%
X57240000Y-100860000D02*
X58010000Y-100860000D01*
X65320000Y-100860000D02*
X64550000Y-100860000D01*
X58010000Y-99490000D02*
X64550000Y-99490000D01*
X64550000Y-102230000D01*
X58010000Y-102230000D01*
X58010000Y-99490000D01*
%TO.C,R4*%
X60285000Y-91630000D02*
X61055000Y-91630000D01*
X68365000Y-91630000D02*
X67595000Y-91630000D01*
X61055000Y-90260000D02*
X67595000Y-90260000D01*
X67595000Y-93000000D01*
X61055000Y-93000000D01*
X61055000Y-90260000D01*
%TO.C,SW1*%
X94865000Y-34370000D02*
X94865000Y-35870000D01*
X96115000Y-38370000D02*
X100615000Y-38370000D01*
X100615000Y-31870000D02*
X96115000Y-31870000D01*
X101865000Y-35870000D02*
X101865000Y-34370000D01*
%TO.C,BZ1*%
X93460000Y-89360000D02*
G75*
G02*
X78260000Y-89360000I-7600000J0D01*
G01*
X78260000Y-89360000D02*
G75*
G02*
X93460000Y-89360000I7600000J0D01*
G01*
%TO.C,J6*%
X74215000Y-75990000D02*
X74215000Y-58100000D01*
X76975000Y-58100000D02*
X74215000Y-58100000D01*
X76975000Y-75990000D02*
X74215000Y-75990000D01*
X76975000Y-75990000D02*
X76975000Y-58100000D01*
X76975000Y-77260000D02*
X76975000Y-78640000D01*
X76975000Y-78640000D02*
X75595000Y-78640000D01*
%TO.C,J2*%
X100215000Y-56720000D02*
X101595000Y-56720000D01*
X100215000Y-58100000D02*
X100215000Y-56720000D01*
X100215000Y-59370000D02*
X100215000Y-77260000D01*
X100215000Y-59370000D02*
X102975000Y-59370000D01*
X100215000Y-77260000D02*
X102975000Y-77260000D01*
X102975000Y-59370000D02*
X102975000Y-77260000D01*
%TO.C,J4*%
X61365000Y-68980000D02*
X61365000Y-56170000D01*
X64125000Y-56170000D02*
X61365000Y-56170000D01*
X64125000Y-68980000D02*
X61365000Y-68980000D01*
X64125000Y-68980000D02*
X64125000Y-56170000D01*
X64125000Y-70250000D02*
X64125000Y-71630000D01*
X64125000Y-71630000D02*
X62745000Y-71630000D01*
%TO.C,Q1*%
X72535000Y-90190000D02*
X72535000Y-93790000D01*
X72546522Y-90151522D02*
G75*
G02*
X76985001Y-91990000I1838478J-1838478D01*
G01*
X76985000Y-91990000D02*
G75*
G02*
X72546522Y-93828478I-2600000J0D01*
G01*
%TO.C,U1*%
X48285000Y-56720000D02*
X48285000Y-92400000D01*
X48285000Y-92400000D02*
X53585000Y-92400000D01*
X49935000Y-56720000D02*
X48285000Y-56720000D01*
X53585000Y-56720000D02*
X51935000Y-56720000D01*
X53585000Y-92400000D02*
X53585000Y-56720000D01*
X51935000Y-56720000D02*
G75*
G02*
X49935000Y-56720000I-1000000J0D01*
G01*
%TO.C,U2*%
X84385000Y-62105000D02*
X92105000Y-62105000D01*
X84385000Y-62350000D02*
X84385000Y-62105000D01*
X84385000Y-73875000D02*
X84385000Y-73630000D01*
X92105000Y-62105000D02*
X92105000Y-62350000D01*
X92105000Y-73630000D02*
X92105000Y-73875000D01*
X92105000Y-73875000D02*
X84385000Y-73875000D01*
X83595000Y-62350000D02*
X83255000Y-61880000D01*
X83935000Y-61880000D01*
X83595000Y-62350000D01*
G36*
X83595000Y-62350000D02*
G01*
X83255000Y-61880000D01*
X83935000Y-61880000D01*
X83595000Y-62350000D01*
G37*
%TO.C,C8*%
X67745000Y-30750000D02*
X68082000Y-30750000D01*
X67745000Y-35990000D02*
X67745000Y-30750000D01*
X68082000Y-35990000D02*
X67745000Y-35990000D01*
X70148000Y-30750000D02*
X70485000Y-30750000D01*
X70485000Y-30750000D02*
X70485000Y-35990000D01*
X70485000Y-35990000D02*
X70148000Y-35990000D01*
%TO.C,C6*%
X39625000Y-69260000D02*
X44865000Y-69260000D01*
X39625000Y-69597000D02*
X39625000Y-69260000D01*
X39625000Y-72000000D02*
X39625000Y-71663000D01*
X44865000Y-69260000D02*
X44865000Y-69597000D01*
X44865000Y-71663000D02*
X44865000Y-72000000D01*
X44865000Y-72000000D02*
X39625000Y-72000000D01*
%TO.C,R1*%
X47075000Y-51370000D02*
X47845000Y-51370000D01*
X55155000Y-51370000D02*
X54385000Y-51370000D01*
X54385000Y-52740000D02*
X47845000Y-52740000D01*
X47845000Y-50000000D01*
X54385000Y-50000000D01*
X54385000Y-52740000D01*
%TO.C,D2*%
X72340000Y-99780000D02*
X72340000Y-99624000D01*
X72340000Y-102096000D02*
X72340000Y-101940000D01*
X69108563Y-99780000D02*
G75*
G02*
X72340000Y-99624484I1671437J-1080000D01*
G01*
X69739039Y-99780000D02*
G75*
G02*
X71820961Y-99780000I1040961J-1080000D01*
G01*
X71820961Y-101940000D02*
G75*
G02*
X69739039Y-101940000I-1040961J1080000D01*
G01*
X72340000Y-102095516D02*
G75*
G02*
X69108563Y-101940000I-1560000J1235516D01*
G01*
%TO.C,SW2*%
X41500000Y-32620000D02*
X41500000Y-34120000D01*
X42750000Y-36620000D02*
X47250000Y-36620000D01*
X47250000Y-30120000D02*
X42750000Y-30120000D01*
X48500000Y-34120000D02*
X48500000Y-32620000D01*
%TO.C,C2*%
X59125000Y-74260000D02*
X64365000Y-74260000D01*
X59125000Y-74597000D02*
X59125000Y-74260000D01*
X59125000Y-77000000D02*
X59125000Y-76663000D01*
X64365000Y-74260000D02*
X64365000Y-74597000D01*
X64365000Y-76663000D02*
X64365000Y-77000000D01*
X64365000Y-77000000D02*
X59125000Y-77000000D01*
%TO.C,J1*%
X58685000Y-80980000D02*
X60065000Y-80980000D01*
X58685000Y-82360000D02*
X58685000Y-80980000D01*
X58685000Y-83630000D02*
X58685000Y-88820000D01*
X58685000Y-83630000D02*
X61335000Y-83630000D01*
X58685000Y-88820000D02*
X63985000Y-88820000D01*
X61335000Y-80980000D02*
X63985000Y-80980000D01*
X61335000Y-83630000D02*
X61335000Y-80980000D01*
X63985000Y-80980000D02*
X63985000Y-88820000D01*
%TO.C,FB1*%
X57567000Y-37140000D02*
G75*
G02*
X57567000Y-34600000I508000J1270000D01*
G01*
X58090535Y-33850428D02*
G75*
G02*
X62901000Y-33584000I2524465J-2019572D01*
G01*
X62915068Y-38170068D02*
G75*
G02*
X58075000Y-37902000I-2300068J2300068D01*
G01*
X63663000Y-34600000D02*
G75*
G02*
X63663000Y-37140000I-508000J-1270000D01*
G01*
%TO.C,J3*%
X26365000Y-68560000D02*
X26365000Y-50670000D01*
X29125000Y-50670000D02*
X26365000Y-50670000D01*
X29125000Y-68560000D02*
X26365000Y-68560000D01*
X29125000Y-68560000D02*
X29125000Y-50670000D01*
X29125000Y-69830000D02*
X29125000Y-71210000D01*
X29125000Y-71210000D02*
X27745000Y-71210000D01*
%TD*%
M02*
