%TF.GenerationSoftware,KiCad,Pcbnew,9.0.5*%
%TF.CreationDate,2026-03-01T23:00:25+05:30*%
%TF.ProjectId,AVR_Controller_E177_Sneha,4156525f-436f-46e7-9472-6f6c6c65725f,rev?*%
%TF.SameCoordinates,Original*%
%TF.FileFunction,Soldermask,Top*%
%TF.FilePolarity,Negative*%
%FSLAX46Y46*%
G04 Gerber Fmt 4.6, Leading zero omitted, Abs format (unit mm)*
G04 Created by KiCad (PCBNEW 9.0.5) date 2026-03-01 23:00:25*
%MOMM*%
%LPD*%
G01*
G04 APERTURE LIST*
G04 Aperture macros list*
%AMRoundRect*
0 Rectangle with rounded corners*
0 $1 Rounding radius*
0 $2 $3 $4 $5 $6 $7 $8 $9 X,Y pos of 4 corners*
0 Add a 4 corners polygon primitive as box body*
4,1,4,$2,$3,$4,$5,$6,$7,$8,$9,$2,$3,0*
0 Add four circle primitives for the rounded corners*
1,1,$1+$1,$2,$3*
1,1,$1+$1,$4,$5*
1,1,$1+$1,$6,$7*
1,1,$1+$1,$8,$9*
0 Add four rect primitives between the rounded corners*
20,1,$1+$1,$2,$3,$4,$5,0*
20,1,$1+$1,$4,$5,$6,$7,0*
20,1,$1+$1,$6,$7,$8,$9,0*
20,1,$1+$1,$8,$9,$2,$3,0*%
G04 Aperture macros list end*
%ADD10C,1.600000*%
%ADD11R,1.905000X2.000000*%
%ADD12O,1.905000X2.000000*%
%ADD13C,1.500000*%
%ADD14R,1.800000X1.800000*%
%ADD15C,1.800000*%
%ADD16R,3.500000X3.500000*%
%ADD17RoundRect,0.750000X-0.750000X-1.000000X0.750000X-1.000000X0.750000X1.000000X-0.750000X1.000000X0*%
%ADD18RoundRect,0.875000X-0.875000X-0.875000X0.875000X-0.875000X0.875000X0.875000X-0.875000X0.875000X0*%
%ADD19C,2.000000*%
%ADD20R,2.000000X2.000000*%
%ADD21R,1.700000X1.700000*%
%ADD22C,1.700000*%
%ADD23R,1.500000X1.050000*%
%ADD24O,1.500000X1.050000*%
%ADD25RoundRect,0.250000X-0.550000X-0.550000X0.550000X-0.550000X0.550000X0.550000X-0.550000X0.550000X0*%
%ADD26RoundRect,0.150000X-0.875000X-0.150000X0.875000X-0.150000X0.875000X0.150000X-0.875000X0.150000X0*%
G04 APERTURE END LIST*
D10*
%TO.C,R2*%
X45195000Y-100870000D03*
X35035000Y-100870000D03*
%TD*%
%TO.C,C4*%
X42745000Y-81630000D03*
X42745000Y-86630000D03*
%TD*%
%TO.C,C3*%
X42745000Y-79130000D03*
X42745000Y-74130000D03*
%TD*%
D11*
%TO.C,U3*%
X77035000Y-35870000D03*
D12*
X79575000Y-35870000D03*
X82115000Y-35870000D03*
%TD*%
D13*
%TO.C,Y1*%
X36245000Y-78250000D03*
X36245000Y-83130000D03*
%TD*%
D14*
%TO.C,D1*%
X28695000Y-100870000D03*
D15*
X31235000Y-100870000D03*
%TD*%
D10*
%TO.C,C7*%
X53115000Y-35870000D03*
X53115000Y-30870000D03*
%TD*%
D16*
%TO.C,J5*%
X35500000Y-31250000D03*
D17*
X29500000Y-31250000D03*
D18*
X32500000Y-35950000D03*
%TD*%
D10*
%TO.C,R3*%
X56200000Y-100860000D03*
X66360000Y-100860000D03*
%TD*%
%TO.C,R4*%
X59245000Y-91630000D03*
X69405000Y-91630000D03*
%TD*%
D19*
%TO.C,SW1*%
X95115000Y-32870000D03*
X101615000Y-32870000D03*
X95115000Y-37370000D03*
X101615000Y-37370000D03*
%TD*%
D20*
%TO.C,BZ1*%
X85860000Y-85560000D03*
D19*
X85860000Y-93160000D03*
%TD*%
D21*
%TO.C,J6*%
X75595000Y-77260000D03*
D22*
X75595000Y-74720000D03*
X75595000Y-72180000D03*
X75595000Y-69640000D03*
X75595000Y-67100000D03*
X75595000Y-64560000D03*
X75595000Y-62020000D03*
X75595000Y-59480000D03*
%TD*%
D21*
%TO.C,J2*%
X101595000Y-58100000D03*
D22*
X101595000Y-60640000D03*
X101595000Y-63180000D03*
X101595000Y-65720000D03*
X101595000Y-68260000D03*
X101595000Y-70800000D03*
X101595000Y-73340000D03*
X101595000Y-75880000D03*
%TD*%
D21*
%TO.C,J4*%
X62745000Y-70250000D03*
D22*
X62745000Y-67710000D03*
X62745000Y-65170000D03*
X62745000Y-62630000D03*
X62745000Y-60090000D03*
X62745000Y-57550000D03*
%TD*%
D23*
%TO.C,Q1*%
X74385000Y-90720000D03*
D24*
X74385000Y-91990000D03*
X74385000Y-93260000D03*
%TD*%
D25*
%TO.C,U1*%
X47125000Y-58050000D03*
D10*
X47125000Y-60590000D03*
X47125000Y-63130000D03*
X47125000Y-65670000D03*
X47125000Y-68210000D03*
X47125000Y-70750000D03*
X47125000Y-73290000D03*
X47125000Y-75830000D03*
X47125000Y-78370000D03*
X47125000Y-80910000D03*
X47125000Y-83450000D03*
X47125000Y-85990000D03*
X47125000Y-88530000D03*
X47125000Y-91070000D03*
X54745000Y-91070000D03*
X54745000Y-88530000D03*
X54745000Y-85990000D03*
X54745000Y-83450000D03*
X54745000Y-80910000D03*
X54745000Y-78370000D03*
X54745000Y-75830000D03*
X54745000Y-73290000D03*
X54745000Y-70750000D03*
X54745000Y-68210000D03*
X54745000Y-65670000D03*
X54745000Y-63130000D03*
X54745000Y-60590000D03*
X54745000Y-58050000D03*
%TD*%
D26*
%TO.C,U2*%
X83595000Y-62910000D03*
X83595000Y-64180000D03*
X83595000Y-65450000D03*
X83595000Y-66720000D03*
X83595000Y-67990000D03*
X83595000Y-69260000D03*
X83595000Y-70530000D03*
X83595000Y-71800000D03*
X83595000Y-73070000D03*
X92895000Y-73070000D03*
X92895000Y-71800000D03*
X92895000Y-70530000D03*
X92895000Y-69260000D03*
X92895000Y-67990000D03*
X92895000Y-66720000D03*
X92895000Y-65450000D03*
X92895000Y-64180000D03*
X92895000Y-62910000D03*
%TD*%
D10*
%TO.C,C8*%
X69115000Y-35870000D03*
X69115000Y-30870000D03*
%TD*%
%TO.C,C6*%
X39745000Y-70630000D03*
X44745000Y-70630000D03*
%TD*%
%TO.C,R1*%
X56195000Y-51370000D03*
X46035000Y-51370000D03*
%TD*%
D14*
%TO.C,D2*%
X72050000Y-100860000D03*
D15*
X69510000Y-100860000D03*
%TD*%
D19*
%TO.C,SW2*%
X41750000Y-31120000D03*
X48250000Y-31120000D03*
X41750000Y-35620000D03*
X48250000Y-35620000D03*
%TD*%
D10*
%TO.C,C2*%
X64245000Y-75630000D03*
X59245000Y-75630000D03*
%TD*%
D21*
%TO.C,J1*%
X60065000Y-82360000D03*
D22*
X62605000Y-82360000D03*
X60065000Y-84900000D03*
X62605000Y-84900000D03*
X60065000Y-87440000D03*
X62605000Y-87440000D03*
%TD*%
D19*
%TO.C,FB1*%
X63155000Y-35870000D03*
X58075000Y-35870000D03*
%TD*%
D21*
%TO.C,J3*%
X27745000Y-69830000D03*
D22*
X27745000Y-67290000D03*
X27745000Y-64750000D03*
X27745000Y-62210000D03*
X27745000Y-59670000D03*
X27745000Y-57130000D03*
X27745000Y-54590000D03*
X27745000Y-52050000D03*
%TD*%
M02*
